<svg xmlns="http://www.w3.org/2000/svg" xmlns:xlink="http://www.w3.org/1999/xlink" width="115" height="115.988" viewBox="0 0 115 115.988">
  <defs>
    <filter id="Trazado_1178" x="2.367" y="6" width="109.987" height="109.988" filterUnits="userSpaceOnUse">
      <feOffset dy="3" input="SourceAlpha"/>
      <feGaussianBlur stdDeviation="3" result="blur"/>
      <feFlood flood-opacity="0.161"/>
      <feComposite operator="in" in2="blur"/>
      <feComposite in="SourceGraphic"/>
    </filter>
  </defs>
  <g id="Grupo_24752" data-name="Grupo 24752" transform="translate(-226 -2664)">
    <g id="Grupo_14736" data-name="Grupo 14736" transform="translate(-429 6819)">
      <circle id="Elipse_497" data-name="Elipse 497" cx="57.5" cy="57.5" r="57.5" transform="translate(655 -4155)" fill="#e6b42a" opacity="0.75"/>
      <g transform="matrix(1, 0, 0, 1, 655, -4155)" filter="url(#Trazado_1178)">
        <path id="Trazado_1178-2" data-name="Trazado 1178" d="M45.994,0A45.994,45.994,0,1,1,0,45.994,45.994,45.994,0,0,1,45.994,0Z" transform="translate(11.37 12)" fill="#fff"/>
      </g>
    </g>
    <g id="product" transform="translate(258.499 2693.35)">
      <path id="Trazado_56765" data-name="Trazado 56765" d="M49.717,241.8a1.659,1.659,0,0,0-1.42-.8,14.018,14.018,0,0,0-11.943,6.639H16.67a8.243,8.243,0,0,0-5.868,2.431L.987,259.884a1.661,1.661,0,0,0,0,2.347c4.031,4.03,8.261,8.229,8.3,8.271a1.66,1.66,0,0,0,2.34,0l6.295-6.266h13.9a11.581,11.581,0,0,0,10.29-6.225c.051-.1,5.077-9.689,7.647-14.578a1.659,1.659,0,0,0-.048-1.631ZM39.177,256.47a8.271,8.271,0,0,1-7.35,4.446H17.239a1.659,1.659,0,0,0-1.171.483l-5.611,5.585c-1.322-1.314-3.6-3.577-5.95-5.927l8.641-8.641a4.946,4.946,0,0,1,3.521-1.458h17.9l-1.274,2.43a1.655,1.655,0,0,1-1.47.889H20.559a1.66,1.66,0,0,0,0,3.319H31.828a4.966,4.966,0,0,0,4.41-2.668l2.562-4.888a10.71,10.71,0,0,1,6.533-5.308c-2.648,5.045-6.113,11.657-6.155,11.737Zm0,0" transform="translate(0 -214.335)" fill="#5b5b5b"/>
      <path id="Trazado_56766" data-name="Trazado 56766" d="M123.445,29.984H143.36a1.66,1.66,0,0,0,1.66-1.66V8.3a1.66,1.66,0,0,0-1.66-1.66h-4.979V4.979a4.979,4.979,0,0,0-9.958,0v1.66h-4.979a1.66,1.66,0,0,0-1.66,1.66V28.325A1.66,1.66,0,0,0,123.445,29.984Zm8.3-25.005a1.66,1.66,0,1,1,3.319,0v1.66h-3.319ZM125.1,9.958h3.319v1.66a1.66,1.66,0,1,0,3.319,0V9.958h3.319v1.66a1.66,1.66,0,0,0,3.319,0V9.958H141.7V26.665H125.1Zm0,0" transform="translate(-107.865)" fill="#5b5b5b"/>
    </g>
  </g>
</svg>
