<svg xmlns="http://www.w3.org/2000/svg" width="253.956" height="76.79" viewBox="0 0 253.956 76.79">
  <g id="Grupo_24746" data-name="Grupo 24746" transform="translate(-897.654 -7779.186)">
    <g id="Grupo_23814" data-name="Grupo 23814" transform="translate(248.39 7764)">
      <g id="Grupo_23797" data-name="Grupo 23797">
        <path id="Trazado_55526" data-name="Trazado 55526" d="M787.955,29.286,765.918,51.975l16.563,8.09Z" fill="#de7f50"/>
      </g>
      <g id="Grupo_23798" data-name="Grupo 23798">
        <path id="Trazado_55527" data-name="Trazado 55527" d="M739.224,54.891a.8.8,0,0,1-.435-1.479l52.049-33.448a.8.8,0,0,1,1.03,1.215l-29.7,32.792a.8.8,0,0,1-.572.263l-22.345.656Zm47.385-30.3L742.093,53.2l19.11-.561Z"/>
      </g>
      <g id="Grupo_23799" data-name="Grupo 23799">
        <path id="Trazado_55528" data-name="Trazado 55528" d="M771.5,36.02,749.668,50.053l9.374-.275Z" fill="#de7f50"/>
      </g>
      <g id="Grupo_23800" data-name="Grupo 23800">
        <path id="Trazado_55529" data-name="Trazado 55529" d="M785.531,67.36a.8.8,0,0,1-.369-.09L766.913,57.8a.8.8,0,0,1-.409-.51.811.811,0,0,1,.106-.645L790.6,20.2a.8.8,0,0,1,1.469.541l-5.742,45.917a.8.8,0,0,1-.8.7ZM768.443,56.788l16.434,8.524,5.171-41.349Z"/>
      </g>
      <g id="Grupo_23801" data-name="Grupo 23801">
        <path id="Trazado_55530" data-name="Trazado 55530" d="M761.57,66.684a.8.8,0,0,1-.8-.8V53.431a.8.8,0,1,1,1.606,0V63.17l4.235-6.517a.8.8,0,0,1,1.348.876l-5.713,8.79A.8.8,0,0,1,761.57,66.684Z"/>
      </g>
      <g id="Grupo_23802" data-name="Grupo 23802">
        <path id="Trazado_55531" data-name="Trazado 55531" d="M753.446,32.58H742.43a.8.8,0,1,1,0-1.607h11.016a.8.8,0,1,1,0,1.607Z"/>
      </g>
      <g id="Grupo_23803" data-name="Grupo 23803">
        <path id="Trazado_55532" data-name="Trazado 55532" d="M807.423,42.034H796.407a.8.8,0,0,1,0-1.608h11.016a.8.8,0,1,1,0,1.608Z"/>
      </g>
      <g id="Grupo_23804" data-name="Grupo 23804">
        <path id="Trazado_55533" data-name="Trazado 55533" d="M807.421,72.994H796.407a.8.8,0,0,1,0-1.608h11.014a.8.8,0,1,1,0,1.608Z"/>
      </g>
      <g id="Grupo_23805" data-name="Grupo 23805">
        <path id="Trazado_55534" data-name="Trazado 55534" d="M766.619,26.979h-2.741a.8.8,0,1,1,0-1.608h2.741a.8.8,0,1,1,0,1.608Z"/>
      </g>
      <g id="Grupo_23806" data-name="Grupo 23806">
        <path id="Trazado_55535" data-name="Trazado 55535" d="M800.519,30.09h-2.741a.8.8,0,1,1,0-1.608h2.741a.8.8,0,1,1,0,1.608Z"/>
      </g>
      <g id="Grupo_23807" data-name="Grupo 23807">
        <path id="Trazado_55536" data-name="Trazado 55536" d="M813.261,50.5h-2.742a.8.8,0,0,1,0-1.608h2.742a.8.8,0,1,1,0,1.608Z"/>
      </g>
      <g id="Grupo_23808" data-name="Grupo 23808">
        <path id="Trazado_55537" data-name="Trazado 55537" d="M749.309,61.531h-2.743a.8.8,0,1,1,0-1.607h2.743a.8.8,0,1,1,0,1.607Z"/>
      </g>
      <g id="Grupo_23809" data-name="Grupo 23809">
        <path id="Trazado_55538" data-name="Trazado 55538" d="M779.851,78.191h-2.744a.8.8,0,1,1,0-1.608h2.744a.8.8,0,1,1,0,1.608Z"/>
      </g>
      <g id="Grupo_23810" data-name="Grupo 23810">
        <path id="Trazado_55539" data-name="Trazado 55539" d="M746.815,42.48h0l-7.235,0a.8.8,0,1,1,0-1.608h0l7.235,0a.8.8,0,1,1,0,1.607Z"/>
      </g>
      <g id="Grupo_23811" data-name="Grupo 23811">
        <path id="Trazado_55540" data-name="Trazado 55540" d="M760.418,72.994h-7.235a.8.8,0,0,1,0-1.608h7.235a.8.8,0,0,1,0,1.608Z"/>
      </g>
      <g id="Grupo_23812" data-name="Grupo 23812">
        <path id="Trazado_55541" data-name="Trazado 55541" d="M790.8,16.8h0l-7.237,0a.8.8,0,1,1,0-1.607h0l7.237,0a.8.8,0,1,1,0,1.607Z"/>
      </g>
      <g id="Grupo_23813" data-name="Grupo 23813">
        <path id="Trazado_55542" data-name="Trazado 55542" d="M801.4,58.782h0l-7.237,0a.8.8,0,0,1,0-1.608h0l7.237,0a.8.8,0,1,1,0,1.608Z"/>
      </g>
    </g>
    <line id="Línea_349" data-name="Línea 349" x2="252.735" transform="translate(898.265 7855.365)" fill="none" stroke="#686868" stroke-linecap="round" stroke-linejoin="round" stroke-width="1.221" stroke-dasharray="0 2.442"/>
  </g>
</svg>
