<svg xmlns="http://www.w3.org/2000/svg" xmlns:xlink="http://www.w3.org/1999/xlink" width="86.38" height="115.379" viewBox="0 0 86.38 115.379">
  <defs>
    <clipPath id="clip-path">
      <path id="SVGID" d="M188.1,415.7c0,2.623-3.394,5.794-5.018,8.439-1.874,3.053-2.188,5.407-5.219,5.407-2.907,0-3.123-2.169-4.989-5.051-1.756-2.711-5.244-6.054-5.244-8.795a10.235,10.235,0,0,1,20.47,0Z" fill="#e6b42a"/>
    </clipPath>
    <clipPath id="clip-path-2">
      <rect id="SVGID-2" data-name="SVGID" width="6.65" height="7.061" transform="translate(174.542 434.198)" fill="#e6b42a"/>
    </clipPath>
  </defs>
  <g id="Grupo_24748" data-name="Grupo 24748" transform="translate(-393.378 -8123.29)">
    <g id="Grupo_24745" data-name="Grupo 24745">
      <g id="Grupo_23892" data-name="Grupo 23892" transform="translate(248.39 7764)">
        <g id="Grupo_23870" data-name="Grupo 23870">
          <g id="Grupo_23869" data-name="Grupo 23869">
            <path id="SVGID-3" data-name="SVGID" d="M188.1,415.7c0,2.623-3.394,5.794-5.018,8.439-1.874,3.053-2.188,5.407-5.219,5.407-2.907,0-3.123-2.169-4.989-5.051-1.756-2.711-5.244-6.054-5.244-8.795a10.235,10.235,0,0,1,20.47,0Z" fill="#e6b42a"/>
            <g id="Grupo_23868" data-name="Grupo 23868" clip-path="url(#clip-path)">
              <path id="Trazado_55715" data-name="Trazado 55715" d="M167.633,405.463v0Z" fill="#e6b42a"/>
              <rect id="Rectángulo_7873" data-name="Rectángulo 7873" width="0.38" height="24.081" transform="translate(167.633 405.463)" fill="#e6b42a"/>
              <rect id="Rectángulo_7874" data-name="Rectángulo 7874" width="0.38" height="24.081" transform="translate(168.013 405.463)" fill="#e6b42a"/>
              <rect id="Rectángulo_7875" data-name="Rectángulo 7875" width="0.38" height="24.081" transform="translate(168.392 405.463)" fill="#e6b42a"/>
              <rect id="Rectángulo_7876" data-name="Rectángulo 7876" width="0.38" height="24.081" transform="translate(168.772 405.463)" fill="#e6b42a"/>
              <rect id="Rectángulo_7877" data-name="Rectángulo 7877" width="0.38" height="24.081" transform="translate(169.151 405.463)" fill="#e6b42a"/>
              <rect id="Rectángulo_7878" data-name="Rectángulo 7878" width="0.38" height="24.081" transform="translate(169.531 405.463)" fill="#e6b42a"/>
              <rect id="Rectángulo_7879" data-name="Rectángulo 7879" width="0.38" height="24.081" transform="translate(169.91 405.463)" fill="#e6b42a"/>
              <rect id="Rectángulo_7880" data-name="Rectángulo 7880" width="0.38" height="24.081" transform="translate(170.29 405.463)" fill="#e6b42a"/>
              <rect id="Rectángulo_7881" data-name="Rectángulo 7881" width="0.38" height="24.081" transform="translate(170.669 405.463)" fill="#e6b42a"/>
              <rect id="Rectángulo_7882" data-name="Rectángulo 7882" width="0.374" height="24.081" transform="translate(171.049 405.463)" fill="#e6b42a"/>
              <rect id="Rectángulo_7883" data-name="Rectángulo 7883" width="0.38" height="24.081" transform="translate(171.423 405.463)" fill="#e6b42a"/>
              <rect id="Rectángulo_7884" data-name="Rectángulo 7884" width="0.38" height="24.081" transform="translate(171.802 405.463)" fill="#e6b42a"/>
              <rect id="Rectángulo_7885" data-name="Rectángulo 7885" width="0.38" height="24.081" transform="translate(172.182 405.463)" fill="#e6b42a"/>
              <rect id="Rectángulo_7886" data-name="Rectángulo 7886" width="0.38" height="24.081" transform="translate(172.562 405.463)" fill="#e6b42a"/>
              <rect id="Rectángulo_7887" data-name="Rectángulo 7887" width="0.38" height="24.081" transform="translate(172.941 405.463)" fill="#e6b42a"/>
              <rect id="Rectángulo_7888" data-name="Rectángulo 7888" width="0.38" height="24.081" transform="translate(173.321 405.463)" fill="#e6b42a"/>
              <rect id="Rectángulo_7889" data-name="Rectángulo 7889" width="0.38" height="24.081" transform="translate(173.7 405.463)" fill="#e6b42a"/>
              <rect id="Rectángulo_7890" data-name="Rectángulo 7890" width="0.38" height="24.081" transform="translate(174.08 405.463)" fill="#e6b42a"/>
              <rect id="Rectángulo_7891" data-name="Rectángulo 7891" width="0.38" height="24.081" transform="translate(174.459 405.463)" fill="#e6b42a"/>
              <rect id="Rectángulo_7892" data-name="Rectángulo 7892" width="0.38" height="24.081" transform="translate(174.839 405.463)" fill="#e6b42a"/>
              <rect id="Rectángulo_7893" data-name="Rectángulo 7893" width="0.374" height="24.081" transform="translate(175.218 405.463)" fill="#e6b42a"/>
              <rect id="Rectángulo_7894" data-name="Rectángulo 7894" width="0.38" height="24.081" transform="translate(175.592 405.463)" fill="#e6b42a"/>
              <rect id="Rectángulo_7895" data-name="Rectángulo 7895" width="0.38" height="24.081" transform="translate(175.972 405.463)" fill="#e6b42a"/>
              <rect id="Rectángulo_7896" data-name="Rectángulo 7896" width="0.38" height="24.081" transform="translate(176.351 405.463)" fill="#e6b42a"/>
              <rect id="Rectángulo_7897" data-name="Rectángulo 7897" width="0.38" height="24.081" transform="translate(176.731 405.463)" fill="#e6b42a"/>
              <rect id="Rectángulo_7898" data-name="Rectángulo 7898" width="0.38" height="24.081" transform="translate(177.11 405.463)" fill="#e6b42a"/>
              <rect id="Rectángulo_7899" data-name="Rectángulo 7899" width="0.38" height="24.081" transform="translate(177.49 405.463)" fill="#e6b42a"/>
              <rect id="Rectángulo_7900" data-name="Rectángulo 7900" width="0.38" height="24.081" transform="translate(177.869 405.463)" fill="#e6b42a"/>
              <rect id="Rectángulo_7901" data-name="Rectángulo 7901" width="0.38" height="24.081" transform="translate(178.249 405.463)" fill="#e6b42a"/>
              <rect id="Rectángulo_7902" data-name="Rectángulo 7902" width="0.38" height="24.081" transform="translate(178.628 405.463)" fill="#e6b42a"/>
              <rect id="Rectángulo_7903" data-name="Rectángulo 7903" width="0.38" height="24.081" transform="translate(179.008 405.463)" fill="#e6b42a"/>
              <rect id="Rectángulo_7904" data-name="Rectángulo 7904" width="0.38" height="24.081" transform="translate(179.388 405.463)" fill="#e6b42a"/>
              <rect id="Rectángulo_7905" data-name="Rectángulo 7905" width="0.38" height="24.081" transform="translate(179.767 405.463)" fill="#e6b42a"/>
              <rect id="Rectángulo_7906" data-name="Rectángulo 7906" width="0.374" height="24.081" transform="translate(180.147 405.463)" fill="#e6b42a"/>
              <rect id="Rectángulo_7907" data-name="Rectángulo 7907" width="0.38" height="24.081" transform="translate(180.52 405.463)" fill="#e6b42a"/>
              <rect id="Rectángulo_7908" data-name="Rectángulo 7908" width="0.38" height="24.081" transform="translate(180.9 405.463)" fill="#e6b42a"/>
              <rect id="Rectángulo_7909" data-name="Rectángulo 7909" width="0.38" height="24.081" transform="translate(181.28 405.463)" fill="#e6b42a"/>
              <rect id="Rectángulo_7910" data-name="Rectángulo 7910" width="0.38" height="24.081" transform="translate(181.659 405.463)" fill="#e6b42a"/>
              <rect id="Rectángulo_7911" data-name="Rectángulo 7911" width="0.38" height="24.081" transform="translate(182.039 405.463)" fill="#e6b42a"/>
              <rect id="Rectángulo_7912" data-name="Rectángulo 7912" width="0.38" height="24.081" transform="translate(182.418 405.463)" fill="#e6b42a"/>
              <rect id="Rectángulo_7913" data-name="Rectángulo 7913" width="0.38" height="24.081" transform="translate(182.798 405.463)" fill="#e6b42a"/>
              <rect id="Rectángulo_7914" data-name="Rectángulo 7914" width="0.38" height="24.081" transform="translate(183.177 405.463)" fill="#e6b42a"/>
              <rect id="Rectángulo_7915" data-name="Rectángulo 7915" width="0.38" height="24.081" transform="translate(183.557 405.463)" fill="#e6b42a"/>
              <rect id="Rectángulo_7916" data-name="Rectángulo 7916" width="0.38" height="24.081" transform="translate(183.936 405.463)" fill="#e6b42a"/>
              <rect id="Rectángulo_7917" data-name="Rectángulo 7917" width="0.374" height="24.081" transform="translate(184.316 405.463)" fill="#e6b42a"/>
              <rect id="Rectángulo_7918" data-name="Rectángulo 7918" width="0.38" height="24.081" transform="translate(184.69 405.463)" fill="#e6b42a"/>
              <rect id="Rectángulo_7919" data-name="Rectángulo 7919" width="0.38" height="24.081" transform="translate(185.069 405.463)" fill="#e6b42a"/>
              <rect id="Rectángulo_7920" data-name="Rectángulo 7920" width="0.38" height="24.081" transform="translate(185.449 405.463)" fill="#e6b42a"/>
              <rect id="Rectángulo_7921" data-name="Rectángulo 7921" width="0.38" height="24.081" transform="translate(185.828 405.463)" fill="#e6b42a"/>
              <rect id="Rectángulo_7922" data-name="Rectángulo 7922" width="0.38" height="24.081" transform="translate(186.208 405.463)" fill="#e6b42a"/>
              <rect id="Rectángulo_7923" data-name="Rectángulo 7923" width="0.38" height="24.081" transform="translate(186.587 405.463)" fill="#e6b42a"/>
              <rect id="Rectángulo_7924" data-name="Rectángulo 7924" width="0.38" height="24.081" transform="translate(186.967 405.463)" fill="#e6b42a"/>
              <rect id="Rectángulo_7925" data-name="Rectángulo 7925" width="0.38" height="24.081" transform="translate(187.347 405.463)" fill="#e6b42a"/>
              <rect id="Rectángulo_7926" data-name="Rectángulo 7926" width="0.38" height="24.081" transform="translate(187.726 405.463)" fill="#e6b42a"/>
            </g>
          </g>
        </g>
        <g id="Grupo_23871" data-name="Grupo 23871">
          <path id="Trazado_55716" data-name="Trazado 55716" d="M177.866,430.057c-3.673,0-4.839-2.161-6.314-4.9-.461-.855-.983-1.824-1.637-2.833-.726-1.12-1.659-2.316-2.647-3.582-2.523-3.233-5.133-6.576-5.133-9.69a15.733,15.733,0,1,1,31.466,0c0,2.9-2.4,5.99-4.718,8.98a43.9,43.9,0,0,0-2.72,3.754c-.621,1.012-1.136,1.994-1.589,2.861C182.993,427.671,181.745,430.057,177.866,430.057Zm0-35.129a14.141,14.141,0,0,0-14.123,14.127c0,2.561,2.546,5.823,4.792,8.7,1.01,1.295,1.965,2.517,2.729,3.7.689,1.063,1.228,2.063,1.7,2.944,1.409,2.613,2.185,4.053,4.9,4.053,2.9,0,3.75-1.615,5.284-4.545.465-.89.992-1.9,1.643-2.957a45.126,45.126,0,0,1,2.82-3.9c2.154-2.777,4.381-5.648,4.381-7.995A14.144,14.144,0,0,0,177.866,394.928Z"/>
        </g>
        <g id="Grupo_23874" data-name="Grupo 23874">
          <g id="Grupo_23873" data-name="Grupo 23873">
            <rect id="SVGID-4" data-name="SVGID" width="6.65" height="7.061" transform="translate(174.542 434.198)" fill="#e6b42a"/>
            <g id="Grupo_23872" data-name="Grupo 23872" clip-path="url(#clip-path-2)">
              <path id="Trazado_55717" data-name="Trazado 55717" d="M174.541,434.2v0Z" fill="#e6b42a"/>
              <rect id="Rectángulo_7927" data-name="Rectángulo 7927" width="0.123" height="7.06" transform="translate(174.541 434.198)" fill="#e6b42a"/>
              <rect id="Rectángulo_7928" data-name="Rectángulo 7928" width="0.123" height="7.06" transform="translate(174.664 434.198)" fill="#e6b42a"/>
              <rect id="Rectángulo_7929" data-name="Rectángulo 7929" width="0.129" height="7.06" transform="translate(174.786 434.198)" fill="#e6b42a"/>
              <rect id="Rectángulo_7930" data-name="Rectángulo 7930" width="0.123" height="7.06" transform="translate(174.915 434.198)" fill="#e6b42a"/>
              <rect id="Rectángulo_7931" data-name="Rectángulo 7931" width="0.123" height="7.06" transform="translate(175.037 434.198)" fill="#e6b42a"/>
              <rect id="Rectángulo_7932" data-name="Rectángulo 7932" width="0.123" height="7.06" transform="translate(175.16 434.198)" fill="#e6b42a"/>
              <rect id="Rectángulo_7933" data-name="Rectángulo 7933" width="0.123" height="7.06" transform="translate(175.283 434.198)" fill="#e6b42a"/>
              <rect id="Rectángulo_7934" data-name="Rectángulo 7934" width="0.123" height="7.06" transform="translate(175.405 434.198)" fill="#e6b42a"/>
              <rect id="Rectángulo_7935" data-name="Rectángulo 7935" width="0.123" height="7.06" transform="translate(175.528 434.198)" fill="#e6b42a"/>
              <rect id="Rectángulo_7936" data-name="Rectángulo 7936" width="0.123" height="7.06" transform="translate(175.65 434.198)" fill="#e6b42a"/>
              <rect id="Rectángulo_7937" data-name="Rectángulo 7937" width="0.123" height="7.06" transform="translate(175.773 434.198)" fill="#e6b42a"/>
              <rect id="Rectángulo_7938" data-name="Rectángulo 7938" width="0.123" height="7.06" transform="translate(175.896 434.198)" fill="#e6b42a"/>
              <rect id="Rectángulo_7939" data-name="Rectángulo 7939" width="0.123" height="7.06" transform="translate(176.018 434.198)" fill="#e6b42a"/>
              <rect id="Rectángulo_7940" data-name="Rectángulo 7940" width="0.128" height="7.06" transform="translate(176.141 434.198)" fill="#e6b42a"/>
              <rect id="Rectángulo_7941" data-name="Rectángulo 7941" width="0.123" height="7.06" transform="translate(176.269 434.198)" fill="#e6b42a"/>
              <rect id="Rectángulo_7942" data-name="Rectángulo 7942" width="0.123" height="7.06" transform="translate(176.392 434.198)" fill="#e6b42a"/>
              <rect id="Rectángulo_7943" data-name="Rectángulo 7943" width="0.123" height="7.06" transform="translate(176.515 434.198)" fill="#e6b42a"/>
              <rect id="Rectángulo_7944" data-name="Rectángulo 7944" width="0.123" height="7.06" transform="translate(176.637 434.198)" fill="#e6b42a"/>
              <rect id="Rectángulo_7945" data-name="Rectángulo 7945" width="0.123" height="7.06" transform="translate(176.76 434.198)" fill="#e6b42a"/>
              <rect id="Rectángulo_7946" data-name="Rectángulo 7946" width="0.123" height="7.06" transform="translate(176.883 434.198)" fill="#e6b42a"/>
              <rect id="Rectángulo_7947" data-name="Rectángulo 7947" width="0.123" height="7.06" transform="translate(177.005 434.198)" fill="#e6b42a"/>
              <rect id="Rectángulo_7948" data-name="Rectángulo 7948" width="0.123" height="7.06" transform="translate(177.128 434.198)" fill="#e6b42a"/>
              <rect id="Rectángulo_7949" data-name="Rectángulo 7949" width="0.123" height="7.06" transform="translate(177.25 434.198)" fill="#e6b42a"/>
              <rect id="Rectángulo_7950" data-name="Rectángulo 7950" width="0.123" height="7.06" transform="translate(177.373 434.198)" fill="#e6b42a"/>
              <rect id="Rectángulo_7951" data-name="Rectángulo 7951" width="0.129" height="7.06" transform="translate(177.496 434.198)" fill="#e6b42a"/>
              <rect id="Rectángulo_7952" data-name="Rectángulo 7952" width="0.123" height="7.06" transform="translate(177.624 434.198)" fill="#e6b42a"/>
              <rect id="Rectángulo_7953" data-name="Rectángulo 7953" width="0.123" height="7.06" transform="translate(177.747 434.198)" fill="#e6b42a"/>
              <rect id="Rectángulo_7954" data-name="Rectángulo 7954" width="0.123" height="7.06" transform="translate(177.869 434.198)" fill="#e6b42a"/>
              <rect id="Rectángulo_7955" data-name="Rectángulo 7955" width="0.123" height="7.06" transform="translate(177.992 434.198)" fill="#e6b42a"/>
              <rect id="Rectángulo_7956" data-name="Rectángulo 7956" width="0.123" height="7.06" transform="translate(178.115 434.198)" fill="#e6b42a"/>
              <rect id="Rectángulo_7957" data-name="Rectángulo 7957" width="0.123" height="7.06" transform="translate(178.237 434.198)" fill="#e6b42a"/>
              <rect id="Rectángulo_7958" data-name="Rectángulo 7958" width="0.123" height="7.06" transform="translate(178.36 434.198)" fill="#e6b42a"/>
              <rect id="Rectángulo_7959" data-name="Rectángulo 7959" width="0.123" height="7.06" transform="translate(178.482 434.198)" fill="#e6b42a"/>
              <rect id="Rectángulo_7960" data-name="Rectángulo 7960" width="0.123" height="7.06" transform="translate(178.605 434.198)" fill="#e6b42a"/>
              <rect id="Rectángulo_7961" data-name="Rectángulo 7961" width="0.123" height="7.06" transform="translate(178.728 434.198)" fill="#e6b42a"/>
              <rect id="Rectángulo_7962" data-name="Rectángulo 7962" width="0.128" height="7.06" transform="translate(178.85 434.198)" fill="#e6b42a"/>
              <rect id="Rectángulo_7963" data-name="Rectángulo 7963" width="0.123" height="7.06" transform="translate(178.979 434.198)" fill="#e6b42a"/>
              <rect id="Rectángulo_7964" data-name="Rectángulo 7964" width="0.123" height="7.06" transform="translate(179.102 434.198)" fill="#e6b42a"/>
              <rect id="Rectángulo_7965" data-name="Rectángulo 7965" width="0.123" height="7.06" transform="translate(179.224 434.198)" fill="#e6b42a"/>
              <rect id="Rectángulo_7966" data-name="Rectángulo 7966" width="0.123" height="7.06" transform="translate(179.347 434.198)" fill="#e6b42a"/>
              <rect id="Rectángulo_7967" data-name="Rectángulo 7967" width="0.123" height="7.06" transform="translate(179.469 434.198)" fill="#e6b42a"/>
              <rect id="Rectángulo_7968" data-name="Rectángulo 7968" width="0.123" height="7.06" transform="translate(179.592 434.198)" fill="#e6b42a"/>
              <rect id="Rectángulo_7969" data-name="Rectángulo 7969" width="0.123" height="7.06" transform="translate(179.715 434.198)" fill="#e6b42a"/>
              <rect id="Rectángulo_7970" data-name="Rectángulo 7970" width="0.123" height="7.06" transform="translate(179.837 434.198)" fill="#e6b42a"/>
              <rect id="Rectángulo_7971" data-name="Rectángulo 7971" width="0.123" height="7.06" transform="translate(179.96 434.198)" fill="#e6b42a"/>
              <rect id="Rectángulo_7972" data-name="Rectángulo 7972" width="0.123" height="7.06" transform="translate(180.082 434.198)" fill="#e6b42a"/>
              <rect id="Rectángulo_7973" data-name="Rectángulo 7973" width="0.129" height="7.06" transform="translate(180.205 434.198)" fill="#e6b42a"/>
              <rect id="Rectángulo_7974" data-name="Rectángulo 7974" width="0.123" height="7.06" transform="translate(180.334 434.198)" fill="#e6b42a"/>
              <rect id="Rectángulo_7975" data-name="Rectángulo 7975" width="0.123" height="7.06" transform="translate(180.456 434.198)" fill="#e6b42a"/>
              <rect id="Rectángulo_7976" data-name="Rectángulo 7976" width="0.123" height="7.06" transform="translate(180.579 434.198)" fill="#e6b42a"/>
              <rect id="Rectángulo_7977" data-name="Rectángulo 7977" width="0.123" height="7.06" transform="translate(180.701 434.198)" fill="#e6b42a"/>
              <rect id="Rectángulo_7978" data-name="Rectángulo 7978" width="0.123" height="7.06" transform="translate(180.824 434.198)" fill="#e6b42a"/>
              <rect id="Rectángulo_7979" data-name="Rectángulo 7979" width="0.123" height="7.06" transform="translate(180.947 434.198)" fill="#e6b42a"/>
              <rect id="Rectángulo_7980" data-name="Rectángulo 7980" width="0.123" height="7.06" transform="translate(181.069 434.198)" fill="#e6b42a"/>
              <path id="Trazado_55718" data-name="Trazado 55718" d="M181.192,441.258v0Z" fill="#e6b42a"/>
            </g>
          </g>
        </g>
        <g id="Grupo_23875" data-name="Grupo 23875">
          <path id="Trazado_55719" data-name="Trazado 55719" d="M182,440.306h-8.257v-8.67H182Zm-6.65-1.607h5.043v-5.455h-5.043Z"/>
        </g>
        <g id="Grupo_23876" data-name="Grupo 23876">
          <path id="Trazado_55720" data-name="Trazado 55720" d="M177.866,390.826a.8.8,0,0,1-.8-.8v-2.733a.8.8,0,0,1,1.607,0v2.733A.8.8,0,0,1,177.866,390.826Z"/>
        </g>
        <g id="Grupo_23877" data-name="Grupo 23877">
          <path id="Trazado_55721" data-name="Trazado 55721" d="M170.454,392.131a.8.8,0,0,1-.755-.529l-1.867-5.13a.8.8,0,1,1,1.511-.549l1.867,5.13a.805.805,0,0,1-.481,1.03A.83.83,0,0,1,170.454,392.131Z"/>
        </g>
        <g id="Grupo_23878" data-name="Grupo 23878">
          <path id="Trazado_55722" data-name="Trazado 55722" d="M159.1,401.659a.8.8,0,0,1-.4-.108l-4.726-2.731a.8.8,0,1,1,.8-1.392l4.727,2.732a.8.8,0,0,1-.4,1.5Z"/>
        </g>
        <g id="Grupo_23879" data-name="Grupo 23879">
          <path id="Trazado_55723" data-name="Trazado 55723" d="M185.33,392.131a.83.83,0,0,1-.275-.048.8.8,0,0,1-.481-1.03l1.865-5.13a.8.8,0,1,1,1.51.549l-1.864,5.13A.8.8,0,0,1,185.33,392.131Z"/>
        </g>
        <g id="Grupo_23880" data-name="Grupo 23880">
          <path id="Trazado_55724" data-name="Trazado 55724" d="M191.846,395.894a.8.8,0,0,1-.615-1.32l1.752-2.093a.8.8,0,0,1,1.232,1.032l-1.752,2.094A.8.8,0,0,1,191.846,395.894Z"/>
        </g>
        <g id="Grupo_23881" data-name="Grupo 23881">
          <path id="Trazado_55725" data-name="Trazado 55725" d="M163.938,395.894a.806.806,0,0,1-.617-.287l-1.755-2.093a.8.8,0,0,1,1.232-1.034l1.756,2.094a.8.8,0,0,1-.616,1.32Z"/>
        </g>
        <g id="Grupo_23882" data-name="Grupo 23882">
          <path id="Trazado_55726" data-name="Trazado 55726" d="M196.684,401.659a.8.8,0,0,1-.4-1.5l4.729-2.731a.8.8,0,1,1,.8,1.392l-4.729,2.732A.8.8,0,0,1,196.684,401.659Z"/>
        </g>
        <g id="Grupo_23883" data-name="Grupo 23883">
          <path id="Trazado_55727" data-name="Trazado 55727" d="M165.646,433.9H153.268a.8.8,0,1,1,0-1.607h12.378a.8.8,0,0,1,0,1.607Z"/>
        </g>
        <g id="Grupo_23884" data-name="Grupo 23884">
          <path id="Trazado_55728" data-name="Trazado 55728" d="M213.366,411.214H200.989a.8.8,0,0,1,0-1.608h12.377a.8.8,0,1,1,0,1.608Z"/>
        </g>
        <g id="Grupo_23885" data-name="Grupo 23885">
          <path id="Trazado_55729" data-name="Trazado 55729" d="M161,425.073h-3.082a.8.8,0,1,1,0-1.607H161a.8.8,0,1,1,0,1.607Z"/>
        </g>
        <g id="Grupo_23886" data-name="Grupo 23886">
          <path id="Trazado_55730" data-name="Trazado 55730" d="M194.265,434.158h-3.084a.8.8,0,0,1,0-1.608h3.084a.8.8,0,1,1,0,1.608Z"/>
        </g>
        <g id="Grupo_23887" data-name="Grupo 23887">
          <path id="Trazado_55731" data-name="Trazado 55731" d="M195.927,420.356h-3.082a.8.8,0,1,1,0-1.607h3.082a.8.8,0,1,1,0,1.607Z"/>
        </g>
        <g id="Grupo_23888" data-name="Grupo 23888">
          <path id="Trazado_55732" data-name="Trazado 55732" d="M176.084,448.565H173a.8.8,0,1,1,0-1.608h3.083a.8.8,0,1,1,0,1.608Z"/>
        </g>
        <g id="Grupo_23889" data-name="Grupo 23889">
          <path id="Trazado_55733" data-name="Trazado 55733" d="M199.048,425.076a.8.8,0,1,1,0-1.607l8.129,0a.8.8,0,1,1,0,1.607Z"/>
        </g>
        <g id="Grupo_23890" data-name="Grupo 23890">
          <path id="Trazado_55734" data-name="Trazado 55734" d="M182.2,447.687a.8.8,0,0,1,0-1.607h8.131a.8.8,0,0,1,0,1.607Z"/>
        </g>
        <g id="Grupo_23891" data-name="Grupo 23891">
          <path id="Trazado_55735" data-name="Trazado 55735" d="M153.922,415.824h-8.13a.8.8,0,1,1,0-1.608h8.13a.8.8,0,0,1,0,1.608Z"/>
        </g>
      </g>
      <line id="Línea_351" data-name="Línea 351" y2="114.158" transform="translate(479.147 8123.9)" fill="none" stroke="#686868" stroke-linecap="round" stroke-linejoin="round" stroke-width="1.221" stroke-dasharray="0 2.442"/>
    </g>
  </g>
</svg>
