<svg xmlns="http://www.w3.org/2000/svg" xmlns:xlink="http://www.w3.org/1999/xlink" width="115" height="115.988" viewBox="0 0 115 115.988">
  <defs>
    <filter id="Trazado_1178" x="2.367" y="6" width="109.987" height="109.988" filterUnits="userSpaceOnUse">
      <feOffset dy="3" input="SourceAlpha"/>
      <feGaussianBlur stdDeviation="3" result="blur"/>
      <feFlood flood-opacity="0.161"/>
      <feComposite operator="in" in2="blur"/>
      <feComposite in="SourceGraphic"/>
    </filter>
  </defs>
  <g id="Grupo_24753" data-name="Grupo 24753" transform="translate(-226 -2811)">
    <g id="Grupo_14737" data-name="Grupo 14737" transform="translate(-429 6966)">
      <circle id="Elipse_497" data-name="Elipse 497" cx="57.5" cy="57.5" r="57.5" transform="translate(655 -4155)" fill="#5cacb3" opacity="0.75"/>
      <g transform="matrix(1, 0, 0, 1, 655, -4155)" filter="url(#Trazado_1178)">
        <path id="Trazado_1178-2" data-name="Trazado 1178" d="M45.994,0A45.994,45.994,0,1,1,0,45.994,45.994,45.994,0,0,1,45.994,0Z" transform="translate(11.37 12)" fill="#fff"/>
      </g>
    </g>
    <g id="surveyor" transform="translate(258 2844)">
      <path id="Trazado_56772" data-name="Trazado 56772" d="M262.168,0H244.395A4.4,4.4,0,0,0,240,4.395V16.211a4.4,4.4,0,0,0,4.395,4.395h1.562V25a1.465,1.465,0,0,0,2.5,1.036l5.43-5.43h8.28a4.4,4.4,0,0,0,4.395-4.395V4.395A4.4,4.4,0,0,0,262.168,0Zm1.465,16.211a1.467,1.467,0,0,1-1.465,1.465h-8.887a1.465,1.465,0,0,0-1.036.429l-3.359,3.359V19.141a1.465,1.465,0,0,0-1.465-1.465h-3.027a1.467,1.467,0,0,1-1.465-1.465V4.395a1.467,1.467,0,0,1,1.465-1.465h17.773a1.467,1.467,0,0,1,1.465,1.465Z" transform="translate(-216.563)" fill="#5b5b5b"/>
      <path id="Trazado_56773" data-name="Trazado 56773" d="M330.52,76.429l-3.359,3.359L326,78.626a1.465,1.465,0,1,0-2.072,2.072l2.2,2.2a1.465,1.465,0,0,0,2.072,0l4.395-4.395a1.465,1.465,0,0,0-2.072-2.072Z" transform="translate(-291.908 -68.578)" fill="#5b5b5b"/>
      <path id="Trazado_56774" data-name="Trazado 56774" d="M2.93,260.137s0,0,0,0V266a1.465,1.465,0,0,0,1.465,1.465H21.973a1.465,1.465,0,0,0,1.39-1l1.62-4.86a4.391,4.391,0,0,0,2.614-7.861l1.628-4.962a1.465,1.465,0,0,0-1.392-1.921H26.22A7.337,7.337,0,0,0,19.043,241H7.324A7.333,7.333,0,0,0,0,248.324v5.957a7.317,7.317,0,0,0,2.93,5.855Zm2.929,1.321a7.331,7.331,0,0,0,1.465.147h2.843l-.971,2.93H5.859Zm6.423,3.077c.025-.075,4.838-14.593,4.888-14.746H25.81l-.993,3.027H21.973a1.465,1.465,0,0,0-1.465,1.465v5.859a1.464,1.464,0,0,0,1.387,1.461l-.978,2.934Zm12.62-5.859H23.437v-2.93H24.9a1.465,1.465,0,1,1,0,2.93ZM2.93,248.324a4.4,4.4,0,0,1,4.395-4.395H19.043a4.4,4.4,0,0,1,4.143,2.93H16.113a1.465,1.465,0,0,0-1.39,1l-1.642,4.953H8.789v-4.492a1.465,1.465,0,1,0-2.93,0v5.957a1.465,1.465,0,0,0,1.465,1.465H12.11l-.971,2.93H7.324a4.4,4.4,0,0,1-4.395-4.395Z" transform="translate(0 -217.465)" fill="#5b5b5b"/>
      <path id="Trazado_56775" data-name="Trazado 56775" d="M74.648,98.324a7.324,7.324,0,1,0-7.324,7.324A7.333,7.333,0,0,0,74.648,98.324Zm-7.324,4.395a4.395,4.395,0,1,1,4.395-4.395A4.4,4.4,0,0,1,67.324,102.719Z" transform="translate(-54.141 -82.113)" fill="#5b5b5b"/>
    </g>
  </g>
</svg>
