<svg xmlns="http://www.w3.org/2000/svg" xmlns:xlink="http://www.w3.org/1999/xlink" width="253.956" height="80.377" viewBox="0 0 253.956 80.377">
  <defs>
    <clipPath id="clip-path">
      <path id="Trazado_55600" data-name="Trazado 55600" d="M129.746,30.568a2.381,2.381,0,0,0,.045.327c.487,1.81.972,3.618,1.473,5.428a.37.37,0,0,1-.169.479c-.893.6-1.785,1.214-2.667,1.836a.663.663,0,0,0-.218.336c-.068.231-.071.482-.15.706a1.117,1.117,0,0,0,.231,1.087c.561.767,1.087,1.562,1.633,2.344a.329.329,0,0,1,.005.456c-1.153,1.553-2.291,3.115-3.433,4.677a.294.294,0,0,1-.389.123c-1.029-.325-2.059-.643-3.1-.947a.768.768,0,0,0-.479.053,3.155,3.155,0,0,0-1.085.622,3.336,3.336,0,0,0-.4,1.162c-.225.727-.447,1.454-.664,2.187a.243.243,0,0,1-.276.216q-2.931.114-5.861.239c-.2.006-.266-.079-.325-.242-.392-1-.785-2.006-1.195-3a.711.711,0,0,0-.31-.33c-.222-.129-.484-.19-.7-.322a.984.984,0,0,0-.978-.011c-.986.411-1.986.8-2.987,1.2-.689-.8-1.378-1.591-2.063-2.388s-1.361-1.571-2.058-2.383c.3-.514.588-1.028.881-1.544.283-.491.585-.976.849-1.475a.781.781,0,0,0,.066-.479,3.093,3.093,0,0,0-.361-1.2,3.424,3.424,0,0,0-1.06-.666c-.648-.374-1.3-.753-1.957-1.113a.284.284,0,0,1-.164-.344c.367-1.927.727-3.848,1.079-5.775.038-.187.131-.222.288-.242,1.069-.158,2.136-.313,3.2-.494a.709.709,0,0,0,.41-.251,3.094,3.094,0,0,0,.716-1.033,3.6,3.6,0,0,0-.144-1.25c-.109-.733-.218-1.463-.342-2.2a.3.3,0,0,1,.182-.37q2.562-1.35,5.125-2.719a.312.312,0,0,1,.424.047c.795.745,1.587,1.489,2.393,2.219a.646.646,0,0,0,.373.146c.271.012.543-.05.811-.017a1.032,1.032,0,0,0,.924-.459c.637-.712,1.291-1.4,1.927-2.111a.364.364,0,0,1,.5-.1q2.573,1.13,5.16,2.245a2.37,2.37,0,0,0,.314.094.415.415,0,0,1,.04.043.21.21,0,0,0-.026.079c-.091,1.168-.183,2.336-.26,3.513a.465.465,0,0,0,.117.3c.235.292.475.581.736.847a.692.692,0,0,0,.388.19c.467.052.938.076,1.406.1.7.044,1.4.082,2.094.126A.512.512,0,0,1,129.746,30.568Z" fill="#d45453" clip-rule="evenodd"/>
    </clipPath>
    <clipPath id="clip-path-2">
      <path id="Trazado_55658" data-name="Trazado 55658" d="M151.378,64.353a.865.865,0,0,0-.15.105q-1.136,1.065-2.263,2.131a.211.211,0,0,1-.277.044c-.528-.286-1.057-.558-1.59-.829a.342.342,0,0,0-.224-.023c-.13.029-.252.09-.383.113a.605.605,0,0,0-.466.4c-.23.476-.477.937-.716,1.407a.193.193,0,0,1-.225.123c-1.057-.164-2.116-.316-3.179-.467-.1-.012-.14-.056-.159-.161-.11-.584-.223-1.171-.348-1.758a.409.409,0,0,0-.149-.219,1.77,1.77,0,0,0-.586-.373,2.029,2.029,0,0,0-.67.1c-.417.078-.83.157-1.243.245a.144.144,0,0,1-.178-.076c-.548-.937-1.1-1.877-1.644-2.809a.161.161,0,0,1,.03-.222q.585-.678,1.154-1.363a.434.434,0,0,0,.081-.239c.009-.141-.032-.287-.029-.43a.547.547,0,0,0-.247-.479c-.458-.373-.907-.761-1.361-1.153.2-.546.41-1.083.622-1.626s.411-1.074.626-1.626c.325.008.654.02.982.026s.628.035.94.035a.427.427,0,0,0,.253-.09c.176-.155.4-.295.494-.491a1.868,1.868,0,0,0,.044-.692c.014-.414.033-.832.035-1.245a.16.16,0,0,1,.128-.172c1.032-.322,2.064-.643,3.093-.973a.152.152,0,0,1,.2.082c.351.479.71.958,1.072,1.438a.439.439,0,0,0,.233.134,1.616,1.616,0,0,0,.689.079,1.849,1.849,0,0,0,.57-.392c.332-.246.657-.488.982-.739a.165.165,0,0,1,.228-.009c.885.6,1.777,1.207,2.661,1.8a.174.174,0,0,1,.089.222c-.153.584-.306,1.162-.457,1.746a.372.372,0,0,0,.03.222c.061.134.165.254.217.391a.574.574,0,0,0,.467.33c.51.131,1.019.268,1.532.4a.2.2,0,0,1,.177.216c.078,1.036.167,2.07.251,3.107.008.058.028.119.04.178l-.009.035a.213.213,0,0,0-.046,0c-.6.259-1.19.519-1.781.785a.271.271,0,0,0-.115.137c-.082.19-.16.383-.226.581a.358.358,0,0,0,.012.231c.1.248.967,1.247,1.076,1.483.163.354-.435-.058-.279.3C151.381,64.33,151.381,64.344,151.378,64.353Z" fill="#d45453" clip-rule="evenodd"/>
    </clipPath>
  </defs>
  <g id="Grupo_24744" data-name="Grupo 24744" transform="translate(-248.39 -7776.209)">
    <g id="Grupo_23833" data-name="Grupo 23833" transform="translate(248.39 7764)">
      <g id="Grupo_23817" data-name="Grupo 23817">
        <g id="Grupo_23816" data-name="Grupo 23816">
          <path id="Trazado_55543" data-name="Trazado 55543" d="M129.746,30.568a2.381,2.381,0,0,0,.045.327c.487,1.81.972,3.618,1.473,5.428a.37.37,0,0,1-.169.479c-.893.6-1.785,1.214-2.667,1.836a.663.663,0,0,0-.218.336c-.068.231-.071.482-.15.706a1.117,1.117,0,0,0,.231,1.087c.561.767,1.087,1.562,1.633,2.344a.329.329,0,0,1,.005.456c-1.153,1.553-2.291,3.115-3.433,4.677a.294.294,0,0,1-.389.123c-1.029-.325-2.059-.643-3.1-.947a.768.768,0,0,0-.479.053,3.155,3.155,0,0,0-1.085.622,3.336,3.336,0,0,0-.4,1.162c-.225.727-.447,1.454-.664,2.187a.243.243,0,0,1-.276.216q-2.931.114-5.861.239c-.2.006-.266-.079-.325-.242-.392-1-.785-2.006-1.195-3a.711.711,0,0,0-.31-.33c-.222-.129-.484-.19-.7-.322a.984.984,0,0,0-.978-.011c-.986.411-1.986.8-2.987,1.2-.689-.8-1.378-1.591-2.063-2.388s-1.361-1.571-2.058-2.383c.3-.514.588-1.028.881-1.544.283-.491.585-.976.849-1.475a.781.781,0,0,0,.066-.479,3.093,3.093,0,0,0-.361-1.2,3.424,3.424,0,0,0-1.06-.666c-.648-.374-1.3-.753-1.957-1.113a.284.284,0,0,1-.164-.344c.367-1.927.727-3.848,1.079-5.775.038-.187.131-.222.288-.242,1.069-.158,2.136-.313,3.2-.494a.709.709,0,0,0,.41-.251,3.094,3.094,0,0,0,.716-1.033,3.6,3.6,0,0,0-.144-1.25c-.109-.733-.218-1.463-.342-2.2a.3.3,0,0,1,.182-.37q2.562-1.35,5.125-2.719a.312.312,0,0,1,.424.047c.795.745,1.587,1.489,2.393,2.219a.646.646,0,0,0,.373.146c.271.012.543-.05.811-.017a1.032,1.032,0,0,0,.924-.459c.637-.712,1.291-1.4,1.927-2.111a.364.364,0,0,1,.5-.1q2.573,1.13,5.16,2.245a2.37,2.37,0,0,0,.314.094.415.415,0,0,1,.04.043.21.21,0,0,0-.026.079c-.091,1.168-.183,2.336-.26,3.513a.465.465,0,0,0,.117.3c.235.292.475.581.736.847a.692.692,0,0,0,.388.19c.467.052.938.076,1.406.1.7.044,1.4.082,2.094.126A.512.512,0,0,1,129.746,30.568Z" fill="#d45453" fill-rule="evenodd"/>
          <g id="Grupo_23815" data-name="Grupo 23815" clip-path="url(#clip-path)">
            <path id="Trazado_55544" data-name="Trazado 55544" d="M107.605,22.89l-5.758,11v-11Z" fill="#d45453"/>
            <path id="Trazado_55545" data-name="Trazado 55545" d="M108.218,22.89l-6.371,12.175V33.891l5.758-11Z" fill="#d45453"/>
            <path id="Trazado_55546" data-name="Trazado 55546" d="M108.837,22.89l-6.99,13.349V35.065l6.371-12.175Z" fill="#d45453"/>
            <path id="Trazado_55547" data-name="Trazado 55547" d="M109.45,22.89l-7.6,14.516V36.238l6.99-13.349Z" fill="#d45453"/>
            <path id="Trazado_55548" data-name="Trazado 55548" d="M110.063,22.89l-8.216,15.69V37.406l7.6-14.516Z" fill="#d45453"/>
            <path id="Trazado_55549" data-name="Trazado 55549" d="M110.677,22.89l-8.829,16.864V38.58l8.216-15.69Z" fill="#d45453"/>
            <path id="Trazado_55550" data-name="Trazado 55550" d="M111.29,22.89l-9.442,18.038V39.753l8.829-16.864Z" fill="#d45453"/>
            <path id="Trazado_55551" data-name="Trazado 55551" d="M111.9,22.89,101.847,42.1V40.927L111.29,22.89Z" fill="#d45453"/>
            <path id="Trazado_55552" data-name="Trazado 55552" d="M112.516,22.89,101.847,43.269V42.1L111.9,22.89Z" fill="#d45453"/>
            <path id="Trazado_55553" data-name="Trazado 55553" d="M113.135,22.89,101.847,44.443V43.269L112.516,22.89Z" fill="#d45453"/>
            <path id="Trazado_55554" data-name="Trazado 55554" d="M113.748,22.89l-11.9,22.726V44.443L113.135,22.89Z" fill="#d45453"/>
            <path id="Trazado_55555" data-name="Trazado 55555" d="M114.361,22.89l-12.514,23.9V45.616l11.9-22.726Z" fill="#d45453"/>
            <path id="Trazado_55556" data-name="Trazado 55556" d="M114.974,22.89,101.847,47.963V46.79l12.514-23.9Z" fill="#d45453"/>
            <path id="Trazado_55557" data-name="Trazado 55557" d="M115.587,22.89,102.069,48.717l-.222-.117v-.637L114.974,22.89Z" fill="#d45453"/>
            <path id="Trazado_55558" data-name="Trazado 55558" d="M116.2,22.89,102.554,48.968l-.485-.251L115.587,22.89Z" fill="#d45453"/>
            <path id="Trazado_55559" data-name="Trazado 55559" d="M116.814,22.89,103.033,49.219l-.479-.251L116.2,22.89Z" fill="#d45453"/>
            <path id="Trazado_55560" data-name="Trazado 55560" d="M117.433,22.89,103.518,49.47l-.485-.251L116.814,22.89Z" fill="#d45453"/>
            <path id="Trazado_55561" data-name="Trazado 55561" d="M118.046,22.89,104,49.721l-.485-.251,13.915-26.58Z" fill="#d45453"/>
            <path id="Trazado_55562" data-name="Trazado 55562" d="M118.659,22.89,104.481,49.972,104,49.721,118.046,22.89Z" fill="#d45453"/>
            <path id="Trazado_55563" data-name="Trazado 55563" d="M119.272,22.89,104.966,50.223l-.485-.251L118.659,22.89Z" fill="#d45453"/>
            <path id="Trazado_55564" data-name="Trazado 55564" d="M119.885,22.89l-14.44,27.585-.479-.251L119.272,22.89Z" fill="#d45453"/>
            <path id="Trazado_55565" data-name="Trazado 55565" d="M120.5,22.89,105.929,50.726l-.485-.251,14.44-27.585Z" fill="#d45453"/>
            <path id="Trazado_55566" data-name="Trazado 55566" d="M121.111,22.89l-14.7,28.087-.479-.251L120.5,22.89Z" fill="#d45453"/>
            <path id="Trazado_55567" data-name="Trazado 55567" d="M121.73,22.89,106.893,51.228l-.485-.251,14.7-28.087Z" fill="#d45453"/>
            <path id="Trazado_55568" data-name="Trazado 55568" d="M122.343,22.89,107.377,51.479l-.485-.251L121.73,22.89Z" fill="#d45453"/>
            <path id="Trazado_55569" data-name="Trazado 55569" d="M122.956,22.89l-15.1,28.84-.479-.251L122.343,22.89Z" fill="#d45453"/>
            <path id="Trazado_55570" data-name="Trazado 55570" d="M123.57,22.89,108.382,51.9h-.187l-.339-.175,15.1-28.84Z" fill="#d45453"/>
            <path id="Trazado_55571" data-name="Trazado 55571" d="M124.183,22.89,108.995,51.9h-.613L123.57,22.89Z" fill="#d45453"/>
            <path id="Trazado_55572" data-name="Trazado 55572" d="M124.8,22.89,109.608,51.9h-.613L124.183,22.89Z" fill="#d45453"/>
            <path id="Trazado_55573" data-name="Trazado 55573" d="M125.316,22.89l.076.041L110.221,51.9h-.613L124.8,22.89Z" fill="#d45453"/>
            <path id="Trazado_55574" data-name="Trazado 55574" d="M125.391,22.93l.485.251L110.834,51.9h-.613Z" fill="#d45453"/>
            <path id="Trazado_55575" data-name="Trazado 55575" d="M125.876,23.182l.479.251L111.453,51.9h-.619Z" fill="#d45453"/>
            <path id="Trazado_55576" data-name="Trazado 55576" d="M126.355,23.433l.485.251L112.066,51.9h-.613Z" fill="#d45453"/>
            <path id="Trazado_55577" data-name="Trazado 55577" d="M126.84,23.684l.479.257L112.679,51.9h-.613Z" fill="#d45453"/>
            <path id="Trazado_55578" data-name="Trazado 55578" d="M127.318,23.941l.485.245L113.293,51.9h-.613Z" fill="#d45453"/>
            <path id="Trazado_55579" data-name="Trazado 55579" d="M127.8,24.186l.479.257L113.906,51.9h-.613Z" fill="#d45453"/>
            <path id="Trazado_55580" data-name="Trazado 55580" d="M128.282,24.443l.485.251L114.519,51.9h-.613Z" fill="#d45453"/>
            <path id="Trazado_55581" data-name="Trazado 55581" d="M128.767,24.694l.485.251L115.132,51.9h-.613Z" fill="#d45453"/>
            <path id="Trazado_55582" data-name="Trazado 55582" d="M129.251,24.945l.479.251L115.751,51.9h-.619Z" fill="#d45453"/>
            <path id="Trazado_55583" data-name="Trazado 55583" d="M129.73,25.2l.485.251L116.364,51.9h-.613Z" fill="#d45453"/>
            <path id="Trazado_55584" data-name="Trazado 55584" d="M130.215,25.447l.485.251L116.977,51.9h-.613Z" fill="#d45453"/>
            <path id="Trazado_55585" data-name="Trazado 55585" d="M130.7,25.7l.479.251L117.59,51.9h-.613Z" fill="#d45453"/>
            <path id="Trazado_55586" data-name="Trazado 55586" d="M131.178,25.949l.146.07v.829L118.2,51.9h-.613Z" fill="#d45453"/>
            <path id="Trazado_55587" data-name="Trazado 55587" d="M131.324,28.022,118.816,51.9H118.2l13.121-25.056Z" fill="#d45453"/>
            <path id="Trazado_55588" data-name="Trazado 55588" d="M131.324,29.2,119.43,51.9l.149.762,12.508-23.883Z" fill="#d45453"/>
            <path id="Trazado_55589" data-name="Trazado 55589" d="M131.324,30.364,120.049,51.9h-.619L131.324,29.2Z" fill="#d45453"/>
            <path id="Trazado_55590" data-name="Trazado 55590" d="M131.324,31.538,120.662,51.9h-.613l11.276-21.541Z" fill="#d45453"/>
            <path id="Trazado_55591" data-name="Trazado 55591" d="M131.324,32.711,121.275,51.9h-.613l10.663-20.367Z" fill="#d45453"/>
            <path id="Trazado_55592" data-name="Trazado 55592" d="M131.324,33.885,121.888,51.9h-.613l10.049-19.194Z" fill="#d45453"/>
            <path id="Trazado_55593" data-name="Trazado 55593" d="M131.324,35.059,122.5,51.9h-.613l9.436-18.02Z" fill="#d45453"/>
            <path id="Trazado_55594" data-name="Trazado 55594" d="M131.324,36.232,123.114,51.9H122.5l8.823-16.846Z" fill="#d45453"/>
            <path id="Trazado_55595" data-name="Trazado 55595" d="M131.324,37.406l-7.6,14.5h-.613l8.21-15.673Z" fill="#d45453"/>
            <path id="Trazado_55596" data-name="Trazado 55596" d="M131.324,38.574,124.346,51.9h-.619l7.6-14.5Z" fill="#d45453"/>
            <path id="Trazado_55597" data-name="Trazado 55597" d="M131.324,39.748,124.959,51.9h-.613l6.978-13.331Z" fill="#d45453"/>
            <path id="Trazado_55598" data-name="Trazado 55598" d="M131.324,40.921,125.572,51.9h-.613l6.365-12.157Z" fill="#d45453"/>
            <path id="Trazado_55599" data-name="Trazado 55599" d="M125.572,51.9l5.752-10.984V51.9Z" fill="#d45453"/>
          </g>
        </g>
      </g>
      <g id="Grupo_23820" data-name="Grupo 23820">
        <g id="Grupo_23819" data-name="Grupo 23819">
          <path id="Trazado_55601" data-name="Trazado 55601" d="M151.378,64.353a.865.865,0,0,0-.15.105q-1.136,1.065-2.263,2.131a.211.211,0,0,1-.277.044c-.528-.286-1.057-.558-1.59-.829a.342.342,0,0,0-.224-.023c-.13.029-.252.09-.383.113a.605.605,0,0,0-.466.4c-.23.476-.477.937-.716,1.407a.193.193,0,0,1-.225.123c-1.057-.164-2.116-.316-3.179-.467-.1-.012-.14-.056-.159-.161-.11-.584-.223-1.171-.348-1.758a.409.409,0,0,0-.149-.219,1.77,1.77,0,0,0-.586-.373,2.029,2.029,0,0,0-.67.1c-.417.078-.83.157-1.243.245a.144.144,0,0,1-.178-.076c-.548-.937-1.1-1.877-1.644-2.809a.161.161,0,0,1,.03-.222q.585-.678,1.154-1.363a.434.434,0,0,0,.081-.239c.009-.141-.032-.287-.029-.43a.547.547,0,0,0-.247-.479c-.458-.373-.907-.761-1.361-1.153.2-.546.41-1.083.622-1.626s.411-1.074.626-1.626c.325.008.654.02.982.026s.628.035.94.035a.427.427,0,0,0,.253-.09c.176-.155.4-.295.494-.491a1.868,1.868,0,0,0,.044-.692c.014-.414.033-.832.035-1.245a.16.16,0,0,1,.128-.172c1.032-.322,2.064-.643,3.093-.973a.152.152,0,0,1,.2.082c.351.479.71.958,1.072,1.438a.439.439,0,0,0,.233.134,1.616,1.616,0,0,0,.689.079,1.849,1.849,0,0,0,.57-.392c.332-.246.657-.488.982-.739a.165.165,0,0,1,.228-.009c.885.6,1.777,1.207,2.661,1.8a.174.174,0,0,1,.089.222c-.153.584-.306,1.162-.457,1.746a.372.372,0,0,0,.03.222c.061.134.165.254.217.391a.574.574,0,0,0,.467.33c.51.131,1.019.268,1.532.4a.2.2,0,0,1,.177.216c.078,1.036.167,2.07.251,3.107.008.058.028.119.04.178l-.009.035a.213.213,0,0,0-.046,0c-.6.259-1.19.519-1.781.785a.271.271,0,0,0-.115.137c-.082.19-.16.383-.226.581a.358.358,0,0,0,.012.231c.1.248.967,1.247,1.076,1.483.163.354-.435-.058-.279.3C151.381,64.33,151.381,64.344,151.378,64.353Z" fill="#d45453" fill-rule="evenodd"/>
          <g id="Grupo_23818" data-name="Grupo 23818" clip-path="url(#clip-path-2)">
            <path id="Trazado_55602" data-name="Trazado 55602" d="M139.651,51.537l-3.095,6.085V51.537Z" fill="#d45453"/>
            <path id="Trazado_55603" data-name="Trazado 55603" d="M139.99,51.537l-3.433,6.75v-.666l3.095-6.085Z" fill="#d45453"/>
            <path id="Trazado_55604" data-name="Trazado 55604" d="M140.328,51.537l-3.772,7.416v-.666l3.433-6.75Z" fill="#d45453"/>
            <path id="Trazado_55605" data-name="Trazado 55605" d="M140.661,51.537l-4.105,8.082v-.666l3.772-7.416Z" fill="#d45453"/>
            <path id="Trazado_55606" data-name="Trazado 55606" d="M141,51.537l-4.444,8.747v-.666l4.105-8.082Z" fill="#d45453"/>
            <path id="Trazado_55607" data-name="Trazado 55607" d="M141.339,51.537l-4.782,9.407v-.66L141,51.537Z" fill="#d45453"/>
            <path id="Trazado_55608" data-name="Trazado 55608" d="M141.677,51.537,136.556,61.61v-.666l4.782-9.407Z" fill="#d45453"/>
            <path id="Trazado_55609" data-name="Trazado 55609" d="M142.016,51.537l-5.46,10.738V61.61l5.121-10.073Z" fill="#d45453"/>
            <path id="Trazado_55610" data-name="Trazado 55610" d="M142.355,51.537l-5.8,11.4v-.666l5.46-10.738Z" fill="#d45453"/>
            <path id="Trazado_55611" data-name="Trazado 55611" d="M142.693,51.537l-6.137,12.07v-.666l5.8-11.4Z" fill="#d45453"/>
            <path id="Trazado_55612" data-name="Trazado 55612" d="M143.026,51.537l-6.47,12.73v-.66l6.137-12.07Z" fill="#d45453"/>
            <path id="Trazado_55613" data-name="Trazado 55613" d="M143.365,51.537l-6.809,13.4v-.666l6.47-12.73Z" fill="#d45453"/>
            <path id="Trazado_55614" data-name="Trazado 55614" d="M143.7,51.537,136.556,65.6v-.666l6.809-13.4Z" fill="#d45453"/>
            <path id="Trazado_55615" data-name="Trazado 55615" d="M144.042,51.537l-7.486,14.727V65.6L143.7,51.537Z" fill="#d45453"/>
            <path id="Trazado_55616" data-name="Trazado 55616" d="M144.381,51.537,136.6,66.848l-.041-.017v-.566l7.486-14.727Z" fill="#d45453"/>
            <path id="Trazado_55617" data-name="Trazado 55617" d="M144.72,51.537l-7.854,15.451-.269-.14,7.784-15.311Z" fill="#d45453"/>
            <path id="Trazado_55618" data-name="Trazado 55618" d="M145.058,51.537l-7.924,15.585-.269-.134,7.854-15.451Z" fill="#d45453"/>
            <path id="Trazado_55619" data-name="Trazado 55619" d="M145.391,51.537,137.4,67.257l-.269-.134,7.924-15.585Z" fill="#d45453"/>
            <path id="Trazado_55620" data-name="Trazado 55620" d="M145.73,51.537,137.672,67.4l-.269-.14,7.988-15.719Z" fill="#d45453"/>
            <path id="Trazado_55621" data-name="Trazado 55621" d="M146.068,51.537,137.94,67.531l-.268-.134,8.058-15.859Z" fill="#d45453"/>
            <path id="Trazado_55622" data-name="Trazado 55622" d="M146.407,51.537l-8.2,16.128-.263-.134,8.128-15.994Z" fill="#d45453"/>
            <path id="Trazado_55623" data-name="Trazado 55623" d="M146.746,51.537l-8.274,16.268-.269-.14,8.2-16.128Z" fill="#d45453"/>
            <path id="Trazado_55624" data-name="Trazado 55624" d="M147.084,51.537l-8.292,16.3h-.257l-.064-.029,8.274-16.268Z" fill="#d45453"/>
            <path id="Trazado_55625" data-name="Trazado 55625" d="M147.423,51.537l-8.292,16.3h-.339l8.292-16.3Z" fill="#d45453"/>
            <path id="Trazado_55626" data-name="Trazado 55626" d="M147.756,51.537l-8.286,16.3h-.339l8.292-16.3Z" fill="#d45453"/>
            <path id="Trazado_55627" data-name="Trazado 55627" d="M148.095,51.537l-8.286,16.3h-.339l8.286-16.3Z" fill="#d45453"/>
            <path id="Trazado_55628" data-name="Trazado 55628" d="M148.433,51.537l-8.286,16.3h-.339l8.286-16.3Z" fill="#d45453"/>
            <path id="Trazado_55629" data-name="Trazado 55629" d="M148.772,51.537l-8.286,16.3h-.339l8.286-16.3Z" fill="#d45453"/>
            <path id="Trazado_55630" data-name="Trazado 55630" d="M149.111,51.537l-8.286,16.3h-.339l8.286-16.3Z" fill="#d45453"/>
            <path id="Trazado_55631" data-name="Trazado 55631" d="M149.449,51.537l-8.286,16.3h-.339l8.286-16.3Z" fill="#d45453"/>
            <path id="Trazado_55632" data-name="Trazado 55632" d="M149.782,51.537l-8.286,16.3h-.333l8.286-16.3Z" fill="#d45453"/>
            <path id="Trazado_55633" data-name="Trazado 55633" d="M150.121,51.537l-8.286,16.3H141.5l8.286-16.3Z" fill="#d45453"/>
            <path id="Trazado_55634" data-name="Trazado 55634" d="M150.459,51.537l-8.286,16.3h-.339l8.286-16.3Z" fill="#d45453"/>
            <path id="Trazado_55635" data-name="Trazado 55635" d="M150.8,51.537h0l-8.286,16.3h-.339l8.286-16.3Z" fill="#d45453"/>
            <path id="Trazado_55636" data-name="Trazado 55636" d="M150.8,51.537l.269.14-8.216,16.157h-.339Z" fill="#d45453"/>
            <path id="Trazado_55637" data-name="Trazado 55637" d="M151.067,51.677l.269.134L143.19,67.835h-.339Z" fill="#d45453"/>
            <path id="Trazado_55638" data-name="Trazado 55638" d="M151.335,51.812l.269.134-8.082,15.889h-.333Z" fill="#d45453"/>
            <path id="Trazado_55639" data-name="Trazado 55639" d="M151.6,51.946l.269.14-8.012,15.749h-.339Z" fill="#d45453"/>
            <path id="Trazado_55640" data-name="Trazado 55640" d="M151.873,52.086l.268.134L144.2,67.835h-.339Z" fill="#d45453"/>
            <path id="Trazado_55641" data-name="Trazado 55641" d="M152.141,52.22l.269.134-7.871,15.48H144.2Z" fill="#d45453"/>
            <path id="Trazado_55642" data-name="Trazado 55642" d="M152.41,52.355l.269.14-7.8,15.34h-.339Z" fill="#d45453"/>
            <path id="Trazado_55643" data-name="Trazado 55643" d="M152.678,52.495l.07.035v.485l-7.533,14.82h-.339Z" fill="#d45453"/>
            <path id="Trazado_55644" data-name="Trazado 55644" d="M152.749,53.68l-7.194,14.155h-.339l7.533-14.82Z" fill="#d45453"/>
            <path id="Trazado_55645" data-name="Trazado 55645" d="M152.749,54.34l-6.855,13.495h-.339l7.194-14.155Z" fill="#d45453"/>
            <path id="Trazado_55646" data-name="Trazado 55646" d="M152.749,55.006l-6.523,12.829h-.333l6.855-13.495Z" fill="#d45453"/>
            <path id="Trazado_55647" data-name="Trazado 55647" d="M152.749,55.671l-6.184,12.163h-.339l6.523-12.829Z" fill="#d45453"/>
            <path id="Trazado_55648" data-name="Trazado 55648" d="M152.749,56.337l-5.845,11.5h-.339l6.184-12.163Z" fill="#d45453"/>
            <path id="Trazado_55649" data-name="Trazado 55649" d="M152.749,57l-5.506,10.832H146.9l5.845-11.5Z" fill="#d45453"/>
            <path id="Trazado_55650" data-name="Trazado 55650" d="M152.749,57.663l-5.168,10.172h-.339L152.749,57Z" fill="#d45453"/>
            <path id="Trazado_55651" data-name="Trazado 55651" d="M152.749,58.328l-4.829,9.506h-.339l5.168-10.172Z" fill="#d45453"/>
            <path id="Trazado_55652" data-name="Trazado 55652" d="M152.749,58.994l-4.5,8.841h-.333l4.829-9.506Z" fill="#d45453"/>
            <path id="Trazado_55653" data-name="Trazado 55653" d="M152.749,59.66l-4.158,8.175h-.339l4.5-8.841Z" fill="#d45453"/>
            <path id="Trazado_55654" data-name="Trazado 55654" d="M152.749,60.32l-3.819,7.515h-.339l4.158-8.175Z" fill="#d45453"/>
            <path id="Trazado_55655" data-name="Trazado 55655" d="M152.749,60.985l-3.48,6.849h-.339l3.819-7.515Z" fill="#d45453"/>
            <path id="Trazado_55656" data-name="Trazado 55656" d="M152.749,61.651l-3.142,6.184h-.339l3.48-6.849Z" fill="#d45453"/>
            <path id="Trazado_55657" data-name="Trazado 55657" d="M149.607,67.835l3.142-6.184v6.184Z" fill="#d45453"/>
          </g>
        </g>
      </g>
      <g id="Grupo_23821" data-name="Grupo 23821">
        <path id="Trazado_55659" data-name="Trazado 55659" d="M116.649,42.1a4.792,4.792,0,1,1,4.792-4.792A4.8,4.8,0,0,1,116.649,42.1Zm0-7.977a3.184,3.184,0,1,0,3.184,3.185A3.189,3.189,0,0,0,116.649,34.122Z" fill="#fff"/>
      </g>
      <g id="Grupo_23822" data-name="Grupo 23822">
        <path id="Trazado_55660" data-name="Trazado 55660" d="M144.639,63.032a3.377,3.377,0,1,1,3.376-3.38A3.384,3.384,0,0,1,144.639,63.032Zm0-5.547a2.173,2.173,0,0,0-2.173,2.167,3.707,3.707,0,0,0,2.936,2.936c1.2,0,1.407-1.737,1.407-2.936A2.171,2.171,0,0,0,144.639,57.485Z" fill="#fff"/>
      </g>
      <g id="Grupo_23823" data-name="Grupo 23823">
        <path id="Trazado_55661" data-name="Trazado 55661" d="M113.668,58.111l-9.021-3.578.133-3.52c.029-.582.058-1.165.062-1.747a3.972,3.972,0,0,0-.3-.432,2.458,2.458,0,0,0-.651-.676,1.417,1.417,0,0,0-.515-.067l-.643.012-.767-.029c-.833-.036-1.668-.073-2.5-.092a1.187,1.187,0,0,1-1.166-.876q-1.158-3.822-2.342-7.624a1.145,1.145,0,0,1,.507-1.377c1.165-.845,2.345-1.7,3.512-2.579l.121-.487a2.478,2.478,0,0,0,.121-.932,2.342,2.342,0,0,0-.47-.688c-.123-.147-.245-.294-.355-.444l-.215-.294c-.521-.71-1.041-1.419-1.572-2.122a1.2,1.2,0,0,1-.032-1.5l.273-.4c1.4-2.025,2.791-4.053,4.169-6.086a1.225,1.225,0,0,1,1.037-.589,1.454,1.454,0,0,1,.4.058l.2.056c1.352.375,2.7.748,4.057,1.106.124-.066.234-.137.344-.206a3.657,3.657,0,0,1,.68-.357c.126-.047.194-.092.319-.578.149-.577.3-1.155.459-1.732.18-.671.36-1.343.531-2.016a1.287,1.287,0,0,1,1.261-1.033c2.241-.144,4.479-.307,6.719-.469l.9-.065a1.369,1.369,0,0,0,.189-.042l.219-.054.329.041.5.17.195.656c.58,1.35,1.16,2.7,1.752,4.043.43.187.863.366,1.306.511.556-.2,1.054-.424,1.551-.647l.216-.1c.87-.386,1.731-.771,2.6-1.162l.324-.146.538.233.292.354a1.219,1.219,0,0,0,.1.15q2.582,2.8,5.186,5.6a1.3,1.3,0,0,1,.215,1.62q-1.038,1.911-2.042,3.861c.049.151.091.265.13.381a3.791,3.791,0,0,1,.165.6c.038.233.129.385.518.576.769.382,1.519.781,2.27,1.179l1.189.629a1.234,1.234,0,0,1,.714,1.389q-.6,3.875-1.178,7.776a1.186,1.186,0,0,1-1.059,1.064c-1.425.251-2.861.51-4.286.8l-.316.382a2.453,2.453,0,0,0-.515.793,2.111,2.111,0,0,0,.119.789c.049.184.1.366.13.546.186,1.013.373,2.025.578,3.04a1.139,1.139,0,0,1-.573,1.284q-3.477,1.983-6.918,3.966a1.3,1.3,0,0,1-1.5-.195l-.278-.242c-1-.87-2-1.742-3.013-2.6l-.067-.816-.089.8c-.111,0-.222.014-.333.025a4.72,4.72,0,0,1-.5.034l-.187-.007h0c-.157,0-.268.023-.5.31-.635.77-1.288,1.522-1.944,2.28Zm-7.373-4.652,6.9,2.737.537-.622c.648-.748,1.292-1.491,1.919-2.251a2.17,2.17,0,0,1,1.719-.894l.212.81v-.8a3.109,3.109,0,0,0,.332-.025,4.7,4.7,0,0,1,.5-.034,1.943,1.943,0,0,1,1.18.381c1.036.875,2.043,1.753,3.046,2.628l.142.124q3.213-1.852,6.433-3.687c-.186-.938-.357-1.862-.527-2.786-.027-.14-.065-.284-.1-.429a3.19,3.19,0,0,1-.135-1.542,3.557,3.557,0,0,1,.839-1.465l.221-.276a1.808,1.808,0,0,1,1.022-.666c1.365-.273,2.738-.522,4.11-.764q.547-3.688,1.113-7.344L134.72,36c-.739-.392-1.477-.784-2.226-1.158a2.342,2.342,0,0,1-1.394-1.755,2.294,2.294,0,0,0-.1-.346,3.952,3.952,0,0,1-.164-.588,1.559,1.559,0,0,1,.132-1.055c.641-1.249,1.3-2.5,1.977-3.741-1.709-1.837-3.39-3.657-5.063-5.474-.684.308-1.366.612-2.052.916l-.211.095c-.523.234-1.047.469-1.582.676a1.8,1.8,0,0,1-1.118.035c-.516-.168-1.011-.373-1.5-.587a1.5,1.5,0,0,1-.733-.691c-.585-1.33-1.153-2.649-1.721-3.969l-.822.06c-2.194.158-4.386.317-6.579.46-.163.63-.329,1.251-.5,1.87-.153.573-.306,1.145-.454,1.719a2.163,2.163,0,0,1-1.317,1.682,2.506,2.506,0,0,0-.387.213,4.444,4.444,0,0,1-.525.294,1.687,1.687,0,0,1-1.095.1c-1.347-.355-2.7-.73-4.054-1.106q-2.018,2.973-4.058,5.922l-.141.2c.487.646.965,1.3,1.444,1.951l.217.3c.09.122.19.241.289.359a3.415,3.415,0,0,1,.8,1.336,3.552,3.552,0,0,1-.12,1.7l-.081.352a1.734,1.734,0,0,1-.643,1.046c-1.1.832-2.228,1.648-3.357,2.467q1.1,3.537,2.181,7.1c.757.021,1.518.054,2.277.088l.7.026.643-.011a2.8,2.8,0,0,1,1.2.218,3.541,3.541,0,0,1,1.241,1.149l.227.287a1.857,1.857,0,0,1,.408,1.133c0,.611-.035,1.217-.064,1.822Z"/>
      </g>
      <g id="Grupo_23824" data-name="Grupo 23824">
        <path id="Trazado_55662" data-name="Trazado 55662" d="M146.144,73.039a1.056,1.056,0,0,1-.863-.457c-.529-.694-1.076-1.4-1.631-2.088l-.191-.038a2.547,2.547,0,0,0-.436-.07,1.174,1.174,0,0,0-.322.234c-.1.086-.2.172-.294.248l-.251.2c-.428.333-.853.663-1.276,1a1.014,1.014,0,0,1-1.236.068l-.445-.287q-1.9-1.226-3.81-2.444a1.036,1.036,0,0,1-.45-1.225l.138-.583c.165-.689.33-1.38.488-2.074-.031.073-.072.016-.109-.039a2.938,2.938,0,0,1-.241-.416c-.762-.17-1.4-.325-2.053-.482l-1.33-.318-.676-6.513,2.263-1.064c.315-.143.63-.286.937-.442l.023-.161a1.9,1.9,0,0,0,.163-.431,3.066,3.066,0,0,0-.17-.329c-.063-.115-.126-.23-.179-.346l-.18-.381c-.211-.45-.422-.9-.642-1.348a1.024,1.024,0,0,1,.22-1.26c1.2-1.167,2.4-2.338,3.594-3.516a.925.925,0,0,1,1.267-.163c.8.4,1.628.815,2.463,1.213l.1-.085a1.869,1.869,0,0,0,.462-.149,2.115,2.115,0,0,0,.155-.328c.051-.126.1-.252.165-.369.277-.559.557-1.125.829-1.7a1.055,1.055,0,0,1,.974-.63l.152.008.976.123q1.992.25,3.983.494a1.076,1.076,0,0,1,.971.892l.128.6c.143.664.285,1.329.435,1.993.038.024.075.044.111.066a2.683,2.683,0,0,1,.443.307.573.573,0,0,1,.161-.049c.419-.1.841-.187,1.262-.277l1.441-.287a1.089,1.089,0,0,1,.96.573c.836,1.375,1.688,2.749,2.535,4.117l.3.361.048.848-.39.168c-.577.7-1.132,1.38-1.68,2.059.016.218.035.434.066.647.2.175.415.342.625.508l1.941,1.54-.069.766c-.026.058-.056.113-.085.166l-.434,1.179c-.408,1.128-.818,2.259-1.219,3.39a1.113,1.113,0,0,1-1.111.786c-.9-.02-1.779-.025-2.659-.026l-.065.07a2.755,2.755,0,0,1-.357.328c-.027.019-.048.035-.045.213.01.534.005,1.071,0,1.609l0,.859a1.076,1.076,0,0,1-.781,1.085c-1.561.521-3.14,1.055-4.712,1.591Zm-3.121-4.261a3.68,3.68,0,0,1,.772.106l.2.042a1.386,1.386,0,0,1,.842.486c.509.633,1.014,1.276,1.508,1.921q2.026-.69,4.059-1.37l0-.538c0-.523.008-1.046,0-1.568a1.772,1.772,0,0,1,.7-1.536,1.221,1.221,0,0,0,.146-.14,2.866,2.866,0,0,1,.269-.26,1.408,1.408,0,0,1,.838-.31c.826,0,1.654,0,2.481.019q.555-1.557,1.12-3.109l.33-.915-1.166-.926c-.258-.2-.518-.409-.763-.626a1.467,1.467,0,0,1-.434-.762,10.623,10.623,0,0,1-.114-1.07,1.206,1.206,0,0,1,.249-.828q.783-.972,1.585-1.946c-.743-1.2-1.5-2.422-2.247-3.647l-.845.192c-.414.09-.83.18-1.246.276a1.834,1.834,0,0,1-1.6-.33,1.277,1.277,0,0,0-.176-.111,3.085,3.085,0,0,1-.356-.235,1.315,1.315,0,0,1-.48-.737c-.163-.714-.315-1.425-.468-2.136l-.058-.271c-1.211-.147-2.432-.3-3.653-.454l-.607-.077q-.339.7-.688,1.4c-.045.088-.08.175-.116.261a2.309,2.309,0,0,1-.593.933,2.585,2.585,0,0,1-1.126.491l-.2.05a1.267,1.267,0,0,1-.967-.074c-.738-.352-1.467-.714-2.2-1.079-1.019,1-2.035,1.994-3.05,2.984.165.343.327.688.489,1.032l.181.386c.04.086.085.167.13.248a2.437,2.437,0,0,1,.368,1.038,2.57,2.57,0,0,1-.31,1.174l-.093.206a1.481,1.481,0,0,1-.641.7c-.348.178-.683.331-1.02.484l-1.213.566.441,4.248.229.055c.635.154,1.266.306,1.9.444a1.639,1.639,0,0,1,1.244.947,1.281,1.281,0,0,0,.108.174,2.908,2.908,0,0,1,.228.387,1.461,1.461,0,0,1,.119.875c-.166.729-.333,1.425-.5,2.119l-.067.284q1.753,1.119,3.5,2.244l.11.072c.329-.261.658-.517.988-.775l.256-.2c.074-.057.14-.117.207-.177a2.357,2.357,0,0,1,.929-.582A1.783,1.783,0,0,1,143.023,68.778Z"/>
      </g>
      <g id="Grupo_23825" data-name="Grupo 23825">
        <path id="Trazado_55663" data-name="Trazado 55663" d="M155.643,42.1H144.632a.8.8,0,1,1,0-1.608h11.011a.8.8,0,0,1,0,1.608Z"/>
      </g>
      <g id="Grupo_23826" data-name="Grupo 23826">
        <path id="Trazado_55664" data-name="Trazado 55664" d="M108.359,60.468H97.344a.8.8,0,1,1,0-1.608h11.015a.8.8,0,1,1,0,1.608Z"/>
      </g>
      <g id="Grupo_23827" data-name="Grupo 23827">
        <path id="Trazado_55665" data-name="Trazado 55665" d="M141.863,34.122h-2.738a.8.8,0,1,1,0-1.607h2.738a.8.8,0,1,1,0,1.607Z"/>
      </g>
      <g id="Grupo_23828" data-name="Grupo 23828">
        <path id="Trazado_55666" data-name="Trazado 55666" d="M130.49,13.816h-2.74a.8.8,0,1,1,0-1.607h2.74a.8.8,0,1,1,0,1.607Z"/>
      </g>
      <g id="Grupo_23829" data-name="Grupo 23829">
        <path id="Trazado_55667" data-name="Trazado 55667" d="M148.783,81.168h-2.738a.8.8,0,1,1,0-1.607h2.738a.8.8,0,1,1,0,1.607Z"/>
      </g>
      <g id="Grupo_23830" data-name="Grupo 23830">
        <path id="Trazado_55668" data-name="Trazado 55668" d="M128.491,66.561h-2.743a.8.8,0,0,1,0-1.607h2.743a.8.8,0,1,1,0,1.607Z"/>
      </g>
      <g id="Grupo_23831" data-name="Grupo 23831">
        <path id="Trazado_55669" data-name="Trazado 55669" d="M119.9,72.92h-7.234a.8.8,0,1,1,0-1.607H119.9a.8.8,0,1,1,0,1.607Z"/>
      </g>
      <g id="Grupo_23832" data-name="Grupo 23832">
        <path id="Trazado_55670" data-name="Trazado 55670" d="M155.643,29.988h-7.237a.8.8,0,1,1,0-1.607h7.237a.8.8,0,0,1,0,1.607Z"/>
      </g>
    </g>
    <line id="Línea_350" data-name="Línea 350" x2="252.735" transform="translate(249 7855.976)" fill="none" stroke="#686868" stroke-linecap="round" stroke-linejoin="round" stroke-width="1.221" stroke-dasharray="0 2.442"/>
  </g>
</svg>
