<svg xmlns="http://www.w3.org/2000/svg" xmlns:xlink="http://www.w3.org/1999/xlink" width="162.236" height="521.782" viewBox="0 0 162.236 521.782">
  <defs>
    <linearGradient id="linear-gradient" y1="0.5" x2="1" y2="0.5" gradientUnits="objectBoundingBox">
      <stop offset="0" stop-color="#df7f50"/>
      <stop offset="0.05" stop-color="#e0864a"/>
      <stop offset="0.219" stop-color="#e39b3c"/>
      <stop offset="0.409" stop-color="#e5a931"/>
      <stop offset="0.637" stop-color="#e6b22b"/>
      <stop offset="1" stop-color="#e7b52a"/>
    </linearGradient>
    <linearGradient id="linear-gradient-2" y1="0.5" x2="1" y2="0.5" gradientUnits="objectBoundingBox">
      <stop offset="0" stop-color="#df7f50"/>
      <stop offset="0.158" stop-color="#da6d51"/>
      <stop offset="0.36" stop-color="#d75f52"/>
      <stop offset="0.603" stop-color="#d55652"/>
      <stop offset="1" stop-color="#d55453"/>
    </linearGradient>
  </defs>
  <g id="Grupo_24755" data-name="Grupo 24755" transform="translate(-215 -4049)">
    <g id="Grupo_24241" data-name="Grupo 24241" transform="translate(215 4049)">
      <g id="Grupo_24143" data-name="Grupo 24143">
        <path id="Trazado_56785" data-name="Trazado 56785" d="M162.236,141.172V44.354L83.992,0,0,48.419v89.325l44.185,25.133a12.592,12.592,0,1,0,8.6-13.516L16,128.438V57.663L84.058,18.43l62.178,35.247V131.9L0,215.792v89.934L44.788,333.1a12.581,12.581,0,1,0,5.845-15.179L16,296.753V225.06Z" fill="url(#linear-gradient)"/>
        <path id="Trazado_56786" data-name="Trazado 56786" d="M0,380.61v96.817l78.245,44.355,83.991-48.419V384.038L118.051,358.9a12.6,12.6,0,1,0-8.6,13.515l36.786,20.924v70.775L78.178,503.352,16,468.105V389.877L162.236,305.99V216.056l-44.788-27.37a12.582,12.582,0,1,0-5.845,15.178l34.633,21.165v71.693Z" fill="url(#linear-gradient-2)"/>
      </g>
      <g id="Grupo_24166" data-name="Grupo 24166">
        <g id="Grupo_24152" data-name="Grupo 24152">
          <g id="Grupo_24144" data-name="Grupo 24144">
            <path id="Trazado_56787" data-name="Trazado 56787" d="M93.406,62.147a13.589,13.589,0,0,1,1.619,6.475v.034a13.667,13.667,0,0,1-4,9.668l-.833.832A6.768,6.768,0,0,0,88.4,82.3a6.452,6.452,0,0,0-.217,1.7v.581a6.84,6.84,0,1,1-13.681,0V84a6.452,6.452,0,0,0-.217-1.7A6.769,6.769,0,0,0,72.5,79.156l-.833-.832a13.667,13.667,0,0,1-4-9.668v-.034a13.592,13.592,0,0,1,1.345-5.928A26.977,26.977,0,0,0,54.9,83.705l-.889,8.631c-.012.148-.023.307-.023.456A4.43,4.43,0,0,0,57.015,97l.388.126,1.334,8.653a9.13,9.13,0,0,0,7.034,7.524l4.173.924v9.12H97.306v-6.954a9.18,9.18,0,0,1,2.109-5.849l3.044-3.636a26.992,26.992,0,0,0,6.247-17.272V86.475A27,27,0,0,0,93.406,62.147Z" fill="#f0d0b4"/>
          </g>
          <g id="Grupo_24145" data-name="Grupo 24145">
            <path id="Trazado_56788" data-name="Trazado 56788" d="M88.185,109.665h4.56a6.849,6.849,0,0,1-6.84,6.84h-4.56a6.849,6.849,0,0,1,6.84-6.84Z" fill="#a0d468"/>
          </g>
          <g id="Grupo_24146" data-name="Grupo 24146">
            <path id="Trazado_56789" data-name="Trazado 56789" d="M90.465,95.984h9.121a9.107,9.107,0,0,1-9.121,9.12h-9.12a9.107,9.107,0,0,1,9.12-9.12Z" fill="#b4dd7f"/>
          </g>
          <g id="Grupo_24147" data-name="Grupo 24147">
            <path id="Trazado_56790" data-name="Trazado 56790" d="M81.345,109.665H72.224a9.109,9.109,0,0,1-9.121-9.121h9.121a9.109,9.109,0,0,1,9.121,9.121Z" fill="#b4dd7f"/>
          </g>
          <g id="Grupo_24148" data-name="Grupo 24148">
            <path id="Trazado_56791" data-name="Trazado 56791" d="M83.625,82.3H88.4a6.452,6.452,0,0,0-.217,1.7v.581a6.84,6.84,0,1,1-13.681,0V84a6.452,6.452,0,0,0-.217-1.7h9.338Z" fill="#aab2bd"/>
          </g>
          <g id="Grupo_24149" data-name="Grupo 24149">
            <path id="Trazado_56792" data-name="Trazado 56792" d="M93.406,62.147h-.011a13.341,13.341,0,0,0-2.371-3.2,13.7,13.7,0,0,0-22.015,3.739v.012a13.592,13.592,0,0,0-1.345,5.928v.034a13.667,13.667,0,0,0,4,9.668l.833.832A6.769,6.769,0,0,1,74.287,82.3H88.4a6.768,6.768,0,0,1,1.789-3.147l.833-.832a13.667,13.667,0,0,0,4-9.668v-.034A13.589,13.589,0,0,0,93.406,62.147Z" fill="#ffeaa7"/>
          </g>
          <g id="Grupo_24150" data-name="Grupo 24150">
            <path id="Trazado_56793" data-name="Trazado 56793" d="M87.512,64.735A2.28,2.28,0,0,1,85.9,68.622h-2.28v-2.28a2.287,2.287,0,0,1,2.28-2.28A2.227,2.227,0,0,1,87.512,64.735Z" fill="#fcd770"/>
          </g>
          <g id="Grupo_24151" data-name="Grupo 24151">
            <path id="Trazado_56794" data-name="Trazado 56794" d="M79.064,66.342v2.28h-2.28a2.287,2.287,0,0,1-2.28-2.28,2.28,2.28,0,0,1,4.56,0Z" fill="#fcd770"/>
          </g>
        </g>
        <g id="Grupo_24165" data-name="Grupo 24165">
          <g id="Grupo_24153" data-name="Grupo 24153">
            <path id="Trazado_56795" data-name="Trazado 56795" d="M71.084,123.345H68.8V115.14l-3.28-.729a10.2,10.2,0,0,1-7.916-8.457l-1.227-7.977a5.559,5.559,0,0,1-3.538-5.185c0-.191.01-.383.029-.573l.894-8.635A28.1,28.1,0,0,1,68.479,61.678l1.075,2.01a25.82,25.82,0,0,0-13.519,20.13l-.894,8.635a3.2,3.2,0,0,0-.018.339,3.283,3.283,0,0,0,2.249,3.119l1.052.351,1.437,9.345a7.936,7.936,0,0,0,6.157,6.578l5.066,1.124Z"/>
          </g>
          <g id="Grupo_24154" data-name="Grupo 24154">
            <path id="Trazado_56796" data-name="Trazado 56796" d="M98.446,123.345H96.165v-6.959a10.282,10.282,0,0,1,2.378-6.568l3.034-3.641a25.878,25.878,0,0,0,5.989-16.54V86.476a25.99,25.99,0,0,0-14.66-23.3l.986-2.055a28.28,28.28,0,0,1,15.954,25.355v3.161a28.17,28.17,0,0,1-6.516,18l-3.034,3.64a7.993,7.993,0,0,0-1.85,5.109Z"/>
          </g>
          <g id="Grupo_24155" data-name="Grupo 24155">
            <path id="Trazado_56797" data-name="Trazado 56797" d="M105.286,86.863h-2.28v-.387A21.275,21.275,0,0,0,98,72.777l1.743-1.47a23.557,23.557,0,0,1,5.547,15.169Z"/>
          </g>
          <g id="Grupo_24156" data-name="Grupo 24156">
            <rect id="Rectángulo_8230" data-name="Rectángulo 8230" width="70.684" height="2.28" transform="translate(46.002 122.205)"/>
          </g>
          <g id="Grupo_24157" data-name="Grupo 24157">
            <path id="Trazado_56798" data-name="Trazado 56798" d="M81.345,92.563a7.99,7.99,0,0,1-7.981-7.98V84a5.662,5.662,0,0,0-1.67-4.031l-.831-.83a14.821,14.821,0,1,1,20.962,0l-.829.83A5.659,5.659,0,0,0,89.325,84v.587A7.99,7.99,0,0,1,81.345,92.563Zm0-36.482a12.565,12.565,0,0,0-8.868,21.442l.83.83A7.928,7.928,0,0,1,75.644,84v.587a5.7,5.7,0,0,0,11.4,0V84a7.925,7.925,0,0,1,2.338-5.643l.828-.83a12.564,12.564,0,0,0-8.866-21.442Z"/>
          </g>
          <g id="Grupo_24158" data-name="Grupo 24158">
            <path id="Trazado_56799" data-name="Trazado 56799" d="M84.765,82.3h-2.28V69.762H80.2V82.3h-2.28V69.762h-1.14a3.42,3.42,0,1,1,3.42-3.42v1.14h2.281v-1.14a3.42,3.42,0,1,1,3.42,3.42h-1.14Zm0-14.82H85.9a1.141,1.141,0,1,0-1.14-1.14ZM76.784,65.2a1.141,1.141,0,0,0,0,2.281h1.14v-1.14A1.141,1.141,0,0,0,76.784,65.2Z"/>
          </g>
          <g id="Grupo_24159" data-name="Grupo 24159">
            <rect id="Rectángulo_8231" data-name="Rectángulo 8231" width="14.106" height="2.28" transform="translate(74.291 81.162)"/>
          </g>
          <g id="Grupo_24160" data-name="Grupo 24160">
            <rect id="Rectángulo_8232" data-name="Rectángulo 8232" width="2.28" height="31.922" transform="translate(80.204 91.423)"/>
          </g>
          <g id="Grupo_24161" data-name="Grupo 24161">
            <path id="Trazado_56800" data-name="Trazado 56800" d="M90.465,106.244H80.2V105.1A10.273,10.273,0,0,1,90.465,94.843h10.261v1.14A10.273,10.273,0,0,1,90.465,106.244Zm-7.9-2.28h7.9a7.992,7.992,0,0,0,7.9-6.841h-7.9A7.992,7.992,0,0,0,82.566,103.964Z"/>
          </g>
          <g id="Grupo_24162" data-name="Grupo 24162">
            <path id="Trazado_56801" data-name="Trazado 56801" d="M82.485,110.8H72.224a10.272,10.272,0,0,1-10.261-10.26V99.4H72.224a10.272,10.272,0,0,1,10.261,10.26Zm-18.16-9.12a7.992,7.992,0,0,0,7.9,6.84h7.9a7.992,7.992,0,0,0-7.9-6.84Z"/>
          </g>
          <g id="Grupo_24163" data-name="Grupo 24163">
            <path id="Trazado_56802" data-name="Trazado 56802" d="M85.9,117.645H80.2V116.5a7.991,7.991,0,0,1,7.981-7.981h5.7v1.14A7.99,7.99,0,0,1,85.9,117.645Zm-3.306-2.28H85.9A5.709,5.709,0,0,0,91.49,110.8H88.185A5.711,5.711,0,0,0,82.6,115.365Z"/>
          </g>
          <g id="Grupo_24164" data-name="Grupo 24164">
            <rect id="Rectángulo_8233" data-name="Rectángulo 8233" width="2.28" height="2.28" transform="translate(103.006 89.143)"/>
          </g>
        </g>
      </g>
      <g id="Grupo_24208" data-name="Grupo 24208">
        <g id="Grupo_24183" data-name="Grupo 24183">
          <g id="Grupo_24167" data-name="Grupo 24167">
            <path id="Trazado_56803" data-name="Trazado 56803" d="M81.345,273.96l3.663,5.5a14.54,14.54,0,0,1-3.663,2.711,14.3,14.3,0,0,1-3.664-2.711Z" fill="#e6e9ed"/>
          </g>
          <g id="Grupo_24168" data-name="Grupo 24168">
            <path id="Trazado_56804" data-name="Trazado 56804" d="M89.1,270.389l-.08.609a14.291,14.291,0,0,1-4.007,8.464l-3.663-5.5,3.967-3.968A17.948,17.948,0,0,1,89.1,270.389Z" fill="#ccd1d9"/>
          </g>
          <g id="Grupo_24169" data-name="Grupo 24169">
            <path id="Trazado_56805" data-name="Trazado 56805" d="M81.345,273.96l-3.664,5.5A14.327,14.327,0,0,1,73.674,271l-.08-.609a17.948,17.948,0,0,1,3.783-.4Z" fill="#ccd1d9"/>
          </g>
          <g id="Grupo_24170" data-name="Grupo 24170">
            <path id="Trazado_56806" data-name="Trazado 56806" d="M103.471,284.779l3.32-5.4,6.295,2.513.093.026-2.46,7.962a7.377,7.377,0,0,1-7.063,5.224,7.285,7.285,0,0,1-4.205-1.322,7.413,7.413,0,0,1-2.712-3.479l-2.169-5.779v10.593H78.7v-11.9a14.807,14.807,0,0,0,2.646-1.045,14.54,14.54,0,0,0,3.663-2.711A14.291,14.291,0,0,0,89.015,271l.08-.609a18.328,18.328,0,0,1,8,3.836,18.563,18.563,0,0,1,6.362,10.554Z" fill="#b4dd7f"/>
          </g>
          <g id="Grupo_24171" data-name="Grupo 24171">
            <path id="Trazado_56807" data-name="Trazado 56807" d="M68.119,284.528l-2.169,5.779a7.413,7.413,0,0,1-2.712,3.479,7.285,7.285,0,0,1-4.2,1.322,7.377,7.377,0,0,1-7.063-5.224l-2.46-7.962.093-.026,6.295-2.513,3.333,5.409a18.53,18.53,0,0,1,14.363-14.4l.08.609a14.357,14.357,0,0,0,7.671,11.175,14.807,14.807,0,0,1-2.646,1.045v11.9H68.119Z" fill="#b4dd7f"/>
          </g>
          <g id="Grupo_24172" data-name="Grupo 24172">
            <path id="Trazado_56808" data-name="Trazado 56808" d="M90.682,230.381a9.857,9.857,0,0,0,1.243-4.788,3.277,3.277,0,0,0-.013-.357,37.045,37.045,0,0,1,26.465,35.5h-5.291A31.767,31.767,0,0,0,90.682,230.381Z" fill="#ff826e"/>
          </g>
          <g id="Grupo_24173" data-name="Grupo 24173">
            <path id="Trazado_56809" data-name="Trazado 56809" d="M70.764,225.593a9.771,9.771,0,0,0,1.243,4.775l-.106.053a31.75,31.75,0,0,0-22.3,30.313H44.312a37.045,37.045,0,0,1,26.465-35.5A3.277,3.277,0,0,0,70.764,225.593Z" fill="#ff826e"/>
          </g>
          <g id="Grupo_24174" data-name="Grupo 24174">
            <path id="Trazado_56810" data-name="Trazado 56810" d="M90.682,230.381a31.767,31.767,0,0,1,22.4,30.353H107.8A26.449,26.449,0,0,0,86.37,234.759l1.865-1.495A10,10,0,0,0,90.682,230.381Z" fill="#fcd770"/>
          </g>
          <g id="Grupo_24175" data-name="Grupo 24175">
            <path id="Trazado_56811" data-name="Trazado 56811" d="M74.454,233.264l1.27,1.019H72.748a5.958,5.958,0,0,0-5.687,4.179,26.452,26.452,0,0,0-12.168,22.272H49.6a31.75,31.75,0,0,1,22.3-30.313l.106-.053A10.017,10.017,0,0,0,74.454,233.264Z" fill="#fcd770"/>
          </g>
          <g id="Grupo_24176" data-name="Grupo 24176">
            <path id="Trazado_56812" data-name="Trazado 56812" d="M118.377,272.624a2.644,2.644,0,0,1,2.645,2.645,2.586,2.586,0,0,1-.78,1.865,2.644,2.644,0,0,1-1.865.781h-3.968l-1.23,4.007-.093-.026-6.295-2.513,3.783-6.15a4.08,4.08,0,0,1,6.348-.741l.132.132Z" fill="#f0d0b4"/>
          </g>
          <g id="Grupo_24177" data-name="Grupo 24177">
            <path id="Trazado_56813" data-name="Trazado 56813" d="M85.312,269.992l-3.967,3.968-3.968-3.968v-3.967H75.023a2.93,2.93,0,0,1-2.937-2.936v-2.355l-1.957-.648a2.942,2.942,0,0,1-2.01-2.79,3.09,3.09,0,0,1,.185-1.032l3.134-8.359a2.649,2.649,0,0,1,1.984-1.666,2.08,2.08,0,0,1,.5-.053h7.42a3.962,3.962,0,0,1,3.967,3.968V252.8a2.663,2.663,0,0,1,2.645,2.645v.225a2.652,2.652,0,0,1-.78,1.878l-1.865,1.865v10.58Z" fill="#f0d0b4"/>
          </g>
          <g id="Grupo_24178" data-name="Grupo 24178">
            <path id="Trazado_56814" data-name="Trazado 56814" d="M52.115,273.233l3.783,6.15L49.6,281.9l-.093.026-1.23-4.007H44.312a2.644,2.644,0,0,1-1.865-.781,2.586,2.586,0,0,1-.78-1.865,2.644,2.644,0,0,1,2.645-2.645h1.323l.132-.132a4.08,4.08,0,0,1,6.348.741Z" fill="#f0d0b4"/>
          </g>
          <g id="Grupo_24179" data-name="Grupo 24179">
            <path id="Trazado_56815" data-name="Trazado 56815" d="M77.377,235.6v2.645a2.653,2.653,0,0,0,2.645,2.646h2.645a2.653,2.653,0,0,0,2.645-2.646V235.6l.238-.185a16.358,16.358,0,0,1,1.31,29.838l-1.548.767v-6.613l1.865-1.865a2.652,2.652,0,0,0,.78-1.878v-.225a2.663,2.663,0,0,0-2.645-2.645v-2.645a3.962,3.962,0,0,0-3.967-3.968h-7.42a2.08,2.08,0,0,0-.5.053l-.013-.053h-.661a5.961,5.961,0,0,1-5.952-5.952,6.117,6.117,0,0,1,.265-1.772,5.958,5.958,0,0,1,5.687-4.179h2.976Z" fill="#b27946"/>
          </g>
          <g id="Grupo_24180" data-name="Grupo 24180">
            <path id="Trazado_56816" data-name="Trazado 56816" d="M85.312,235.6v2.645a2.653,2.653,0,0,1-2.645,2.646H80.022a2.653,2.653,0,0,1-2.645-2.646V235.6h7.935Z" fill="#aab2bd"/>
          </g>
          <g id="Grupo_24181" data-name="Grupo 24181">
            <path id="Trazado_56817" data-name="Trazado 56817" d="M81.345,235.6H77.377l-1.653-1.322-1.27-1.019a10.017,10.017,0,0,1-2.447-2.9,9.771,9.771,0,0,1-1.243-4.775,3.277,3.277,0,0,1,.013-.357,9.82,9.82,0,0,1,9.814-9.469H82.1a9.832,9.832,0,0,1,9.814,9.469,3.277,3.277,0,0,1,.013.357,9.857,9.857,0,0,1-1.243,4.788,10,10,0,0,1-2.447,2.883l-1.865,1.495-.82.661-.238.185Z" fill="#ffeaa7"/>
          </g>
          <g id="Grupo_24182" data-name="Grupo 24182">
            <path id="Trazado_56818" data-name="Trazado 56818" d="M81.345,223.7a2.645,2.645,0,1,1-2.646,2.645A2.653,2.653,0,0,1,81.345,223.7Z" fill="#fcd770"/>
          </g>
        </g>
        <g id="Grupo_24207" data-name="Grupo 24207">
          <g id="Grupo_24184" data-name="Grupo 24184">
            <path id="Trazado_56819" data-name="Trazado 56819" d="M59.029,296.425a8.672,8.672,0,0,1-8.329-6.152l-3.4-11.041H44.312a3.968,3.968,0,0,1,0-7.936H45.1a5.4,5.4,0,0,1,8.142,1.247L62.632,287.8l-2.252,1.387L50.994,273.93a2.758,2.758,0,0,0-4.3-.505l-.512.516H44.312a1.323,1.323,0,0,0,0,2.646h4.944L53.229,289.5a6.068,6.068,0,0,0,11.481.347l2.17-5.786,2.477.93-2.17,5.785A8.753,8.753,0,0,1,59.029,296.425Z"/>
          </g>
          <g id="Grupo_24185" data-name="Grupo 24185">
            <path id="Trazado_56820" data-name="Trazado 56820" d="M103.66,296.425a8.752,8.752,0,0,1-8.158-5.654l-2.17-5.784,2.477-.93,2.17,5.785a6.068,6.068,0,0,0,11.481-.346l3.973-12.909h4.944a1.323,1.323,0,0,0,0-2.646H116.5l-.517-.521a2.758,2.758,0,0,0-4.291.51l-9.385,15.253-2.253-1.387,9.386-15.253a5.4,5.4,0,0,1,8.142-1.247h.792a3.968,3.968,0,1,1,0,7.936h-2.991l-3.4,11.041A8.672,8.672,0,0,1,103.66,296.425Z"/>
          </g>
          <g id="Grupo_24186" data-name="Grupo 24186">
            <path id="Trazado_56821" data-name="Trazado 56821" d="M95.893,296.443H66.8V279.232h2.645V293.8H93.248V279.232h2.645Z"/>
          </g>
          <g id="Grupo_24187" data-name="Grupo 24187">
            <path id="Trazado_56822" data-name="Trazado 56822" d="M73.409,247.508h-.661a7.274,7.274,0,1,1,0-14.548h2.976V235.6H72.748a4.629,4.629,0,0,0,0,9.258h.661Z"/>
          </g>
          <g id="Grupo_24188" data-name="Grupo 24188">
            <path id="Trazado_56823" data-name="Trazado 56823" d="M85.9,267.208l-1.183-2.366,1.543-.771a15.031,15.031,0,0,0-1.205-27.423l.971-2.459a17.674,17.674,0,0,1,1.417,32.248Z"/>
          </g>
          <g id="Grupo_24189" data-name="Grupo 24189">
            <path id="Trazado_56824" data-name="Trazado 56824" d="M60.528,285.059l-2.591-.527a19.9,19.9,0,0,1,18.117-15.819v-2.689H78.7v5.29H77.377A17.242,17.242,0,0,0,60.528,285.059Z"/>
          </g>
          <g id="Grupo_24190" data-name="Grupo 24190">
            <path id="Trazado_56825" data-name="Trazado 56825" d="M102.157,285.041a17.247,17.247,0,0,0-16.845-13.727H83.99V258.863l2.257-2.257a1.332,1.332,0,0,0,.388-.935v-.228a1.324,1.324,0,0,0-1.323-1.322H83.99v-3.968a2.649,2.649,0,0,0-2.645-2.645H73.919a1.328,1.328,0,0,0-1.237.858l-3.137,8.368a1.579,1.579,0,0,0-.1.564,1.607,1.607,0,0,0,1.1,1.528l2.866.956v3.31A1.612,1.612,0,0,0,75.02,264.7h6.325v2.645H75.02a4.261,4.261,0,0,1-4.256-4.256v-1.4l-1.058-.351a4.253,4.253,0,0,1-2.637-5.535l3.136-8.365a3.982,3.982,0,0,1,3.714-2.574h7.426a5.3,5.3,0,0,1,5.29,5.29V251.7a3.976,3.976,0,0,1,2.645,3.741v.228a3.943,3.943,0,0,1-1.162,2.805l-1.483,1.483v8.754a19.907,19.907,0,0,1,18.113,15.8Z"/>
          </g>
          <g id="Grupo_24191" data-name="Grupo 24191">
            <path id="Trazado_56826" data-name="Trazado 56826" d="M82.667,242.218H80.022a3.972,3.972,0,0,1-3.968-3.968v-2.01L73.626,234.3a11.149,11.149,0,0,1,6.964-19.856H82.1A11.149,11.149,0,0,1,89.064,234.3l-2.429,1.942v2.01A3.972,3.972,0,0,1,82.667,242.218ZM80.59,217.089a8.5,8.5,0,0,0-5.312,15.145l3.421,2.735v3.281a1.323,1.323,0,0,0,1.323,1.322h2.645a1.323,1.323,0,0,0,1.323-1.322v-3.281l3.422-2.737A8.5,8.5,0,0,0,82.1,217.089Z"/>
          </g>
          <g id="Grupo_24192" data-name="Grupo 24192">
            <rect id="Rectángulo_8234" data-name="Rectángulo 8234" width="7.935" height="2.645" transform="translate(77.377 234.282)"/>
          </g>
          <g id="Grupo_24193" data-name="Grupo 24193">
            <path id="Trazado_56827" data-name="Trazado 56827" d="M81.345,230.314a3.967,3.967,0,1,1,3.967-3.967A3.972,3.972,0,0,1,81.345,230.314Zm0-5.29a1.323,1.323,0,1,0,1.322,1.323A1.324,1.324,0,0,0,81.345,225.024Z"/>
          </g>
          <g id="Grupo_24194" data-name="Grupo 24194">
            <rect id="Rectángulo_8235" data-name="Rectángulo 8235" width="2.645" height="6.613" transform="translate(80.022 228.992)"/>
          </g>
          <g id="Grupo_24195" data-name="Grupo 24195">
            <path id="Trazado_56828" data-name="Trazado 56828" d="M119.7,260.734h-2.645A35.918,35.918,0,0,0,91.542,226.5l.754-2.537A38.584,38.584,0,0,1,119.7,260.734Z"/>
          </g>
          <g id="Grupo_24196" data-name="Grupo 24196">
            <path id="Trazado_56829" data-name="Trazado 56829" d="M45.635,260.734H42.99A38.582,38.582,0,0,1,70.4,223.965l.754,2.537A35.915,35.915,0,0,0,45.635,260.734Z"/>
          </g>
          <g id="Grupo_24197" data-name="Grupo 24197">
            <path id="Trazado_56830" data-name="Trazado 56830" d="M114.409,260.734h-2.645a30.259,30.259,0,0,0-21.477-29.083l.778-2.529A32.892,32.892,0,0,1,114.409,260.734Z"/>
          </g>
          <g id="Grupo_24198" data-name="Grupo 24198">
            <path id="Trazado_56831" data-name="Trazado 56831" d="M50.925,260.734H48.28a32.914,32.914,0,0,1,23.233-31.578l.785,2.526A30.279,30.279,0,0,0,50.925,260.734Z"/>
          </g>
          <g id="Grupo_24199" data-name="Grupo 24199">
            <path id="Trazado_56832" data-name="Trazado 56832" d="M109.119,260.734h-2.645A25.147,25.147,0,0,0,86.12,236.058l.5-2.6A27.8,27.8,0,0,1,109.119,260.734Z"/>
          </g>
          <g id="Grupo_24200" data-name="Grupo 24200">
            <path id="Trazado_56833" data-name="Trazado 56833" d="M56.215,260.734H53.57a27.679,27.679,0,0,1,12.777-23.379l1.431,2.224A25.046,25.046,0,0,0,56.215,260.734Z"/>
          </g>
          <g id="Grupo_24201" data-name="Grupo 24201">
            <path id="Trazado_56834" data-name="Trazado 56834" d="M80.737,283.345a15.639,15.639,0,0,1-8.383-12.2l-.07-.624,2.63-.294.069.625a13,13,0,0,0,6.969,10.139Z"/>
          </g>
          <g id="Grupo_24202" data-name="Grupo 24202">
            <path id="Trazado_56835" data-name="Trazado 56835" d="M80.022,295.121H77.377v-12.9l.959-.274a12.979,12.979,0,0,0,9.37-11.088l.069-.626,2.63.294-.07.625a15.611,15.611,0,0,1-10.313,13.032Z"/>
          </g>
          <g id="Grupo_24203" data-name="Grupo 24203">
            <path id="Trazado_56836" data-name="Trazado 56836" d="M78.779,280.193l-2.2-1.467,3.064-4.6-3.2-3.2,1.87-1.87,4.735,4.734Z"/>
          </g>
          <g id="Grupo_24204" data-name="Grupo 24204">
            <path id="Trazado_56837" data-name="Trazado 56837" d="M83.91,280.193l-4.267-6.4,4.735-4.734,1.87,1.87-3.2,3.2,3.064,4.6Z"/>
          </g>
          <g id="Grupo_24205" data-name="Grupo 24205">
            <rect id="Rectángulo_8236" data-name="Rectángulo 8236" width="2.646" height="7.122" transform="translate(105.982 280.478) rotate(-68.199)"/>
          </g>
          <g id="Grupo_24206" data-name="Grupo 24206">
            <rect id="Rectángulo_8237" data-name="Rectángulo 8237" width="7.122" height="2.646" transform="translate(49.111 280.665) rotate(-21.78)"/>
          </g>
        </g>
      </g>
      <g id="Grupo_24240" data-name="Grupo 24240">
        <g id="Grupo_24218" data-name="Grupo 24218">
          <g id="Grupo_24209" data-name="Grupo 24209">
            <path id="Trazado_56838" data-name="Trazado 56838" d="M81.345,398.736a28.719,28.719,0,0,1,16.588,5.25H83.969a2.632,2.632,0,0,0-2.624,2.624,2.643,2.643,0,0,0,2.624,2.625h5.25a2.632,2.632,0,0,1,2.624,2.625,2.643,2.643,0,0,1-2.624,2.624H80.032a2.634,2.634,0,0,0-2.625,2.625,2.645,2.645,0,0,0,2.625,2.625H94.468a2.632,2.632,0,0,1,2.625,2.625,2.643,2.643,0,0,0,2.624,2.624H110.1c.079.866.118,1.733.118,2.625s-.039,1.759-.118,2.625H84.547a2.637,2.637,0,0,0-2.494,1.8l-.105.341a2.637,2.637,0,0,1-2.493,1.8H76.1a2.633,2.633,0,0,0-2.625,2.624v1.313a2.633,2.633,0,0,1-2.624,2.625H69.533a2.632,2.632,0,0,0-2.624,2.624,2.643,2.643,0,0,0,2.624,2.625H78.72a2.633,2.633,0,0,1,2.625,2.625,2.643,2.643,0,0,0,2.624,2.624h8.583a5.171,5.171,0,0,0,2.074,2.008,28.858,28.858,0,0,1-41.668-20.381H62.972a2.632,2.632,0,0,0,2.624-2.624,2.643,2.643,0,0,0-2.624-2.625,2.625,2.625,0,0,1,0-5.249h3.937a2.633,2.633,0,0,0,2.624-2.625,2.643,2.643,0,0,0-2.624-2.625H54.454a28.721,28.721,0,0,1,4.62-7.874h5.21a6.571,6.571,0,0,0,6.3-8.412A28.728,28.728,0,0,1,81.345,398.736Z" fill="#69d6f4"/>
          </g>
          <g id="Grupo_24210" data-name="Grupo 24210">
            <path id="Trazado_56839" data-name="Trazado 56839" d="M84.547,430.233H110.1a28.59,28.59,0,0,1-1.666,7.375,7.7,7.7,0,0,0-3.465-.814,7.862,7.862,0,0,0-7.756,6.575c-.039,0-.079-.013-.118-.013a5.242,5.242,0,0,0-4.541,7.874H83.969a2.643,2.643,0,0,1-2.624-2.624,2.633,2.633,0,0,0-2.625-2.625H69.533a2.643,2.643,0,0,1-2.624-2.625,2.632,2.632,0,0,1,2.624-2.624h1.313a2.633,2.633,0,0,0,2.624-2.625v-1.313A2.633,2.633,0,0,1,76.1,434.17h3.36a2.637,2.637,0,0,0,2.493-1.8l.105-.341A2.637,2.637,0,0,1,84.547,430.233Z" fill="#b4dd7f"/>
          </g>
          <g id="Grupo_24211" data-name="Grupo 24211">
            <path id="Trazado_56840" data-name="Trazado 56840" d="M68.759,417.883a2.566,2.566,0,0,1,.774,1.851,2.633,2.633,0,0,1-2.624,2.625H62.972a2.625,2.625,0,0,0,0,5.249,2.643,2.643,0,0,1,2.624,2.625,2.632,2.632,0,0,1-2.624,2.624H52.958a27.7,27.7,0,0,1-.485-5.249,28.508,28.508,0,0,1,1.981-10.5H66.909A2.568,2.568,0,0,1,68.759,417.883Z" fill="#b4dd7f"/>
          </g>
          <g id="Grupo_24212" data-name="Grupo 24212">
            <path id="Trazado_56841" data-name="Trazado 56841" d="M110.1,424.983H99.717a2.643,2.643,0,0,1-2.624-2.624,2.632,2.632,0,0,0-2.625-2.625H80.032a2.645,2.645,0,0,1-2.625-2.625,2.634,2.634,0,0,1,2.625-2.625h9.187a2.643,2.643,0,0,0,2.624-2.624,2.632,2.632,0,0,0-2.624-2.625h-5.25a2.643,2.643,0,0,1-2.624-2.625,2.632,2.632,0,0,1,2.624-2.624H97.933A28.8,28.8,0,0,1,110.1,424.983Z" fill="#b4dd7f"/>
          </g>
          <g id="Grupo_24213" data-name="Grupo 24213">
            <path id="Trazado_56842" data-name="Trazado 56842" d="M70.846,394.8a6.568,6.568,0,0,1-1.326,3.924,6.445,6.445,0,0,0-7.4-2.218,7.81,7.81,0,0,0-4.043-3.74,6.544,6.544,0,0,1,12.77,2.034Z" fill="#fcd770"/>
          </g>
          <g id="Grupo_24214" data-name="Grupo 24214">
            <path id="Trazado_56843" data-name="Trazado 56843" d="M70.583,400.823a6.571,6.571,0,0,1-6.3,8.412H47.223a5.249,5.249,0,0,1,0-10.5c.04,0,.079.013.118.013a7.863,7.863,0,0,1,7.756-6.575,7.884,7.884,0,0,1,7.022,4.331,6.445,6.445,0,0,1,7.4,2.218A6.464,6.464,0,0,1,70.583,400.823Z" fill="#e6e9ed"/>
          </g>
          <g id="Grupo_24215" data-name="Grupo 24215">
            <path id="Trazado_56844" data-name="Trazado 56844" d="M94.626,453.238a5.171,5.171,0,0,1-2.074-2.008,5.242,5.242,0,0,1,4.541-7.874c.039,0,.079.013.118.013a7.862,7.862,0,0,1,7.756-6.575,7.7,7.7,0,0,1,3.465.814,7.822,7.822,0,0,1,3.556,3.517,6.551,6.551,0,1,1,2.165,12.73H97.093A5.2,5.2,0,0,1,94.626,453.238Z" fill="#e6e9ed"/>
          </g>
          <g id="Grupo_24216" data-name="Grupo 24216">
            <path id="Trazado_56845" data-name="Trazado 56845" d="M107.592,397.424a3.949,3.949,0,1,1-3.163,1.6A3.932,3.932,0,0,1,107.592,397.424Z" fill="#ff826e"/>
          </g>
          <g id="Grupo_24217" data-name="Grupo 24217">
            <path id="Trazado_56846" data-name="Trazado 56846" d="M58.26,456.2a3.941,3.941,0,1,1,.774-2.349A3.915,3.915,0,0,1,58.26,456.2Z" fill="#ff826e"/>
          </g>
        </g>
        <g id="Grupo_24239" data-name="Grupo 24239">
          <g id="Grupo_24219" data-name="Grupo 24219">
            <path id="Trazado_56847" data-name="Trazado 56847" d="M70.551,399.527l-2.094-1.582a5.228,5.228,0,1,0-9.137-4.763l-2.494-.815a7.854,7.854,0,1,1,13.725,7.16Z"/>
          </g>
          <g id="Grupo_24220" data-name="Grupo 24220">
            <rect id="Rectángulo_8238" data-name="Rectángulo 8238" width="2.625" height="2.625" transform="translate(99.717 465.666)"/>
          </g>
          <g id="Grupo_24221" data-name="Grupo 24221">
            <rect id="Rectángulo_8239" data-name="Rectángulo 8239" width="2.625" height="9.186" transform="translate(99.717 453.855)"/>
          </g>
          <g id="Grupo_24222" data-name="Grupo 24222">
            <rect id="Rectángulo_8240" data-name="Rectángulo 8240" width="2.625" height="2.625" transform="translate(104.967 465.666)"/>
          </g>
          <g id="Grupo_24223" data-name="Grupo 24223">
            <rect id="Rectángulo_8241" data-name="Rectángulo 8241" width="2.625" height="9.186" transform="translate(104.967 453.855)"/>
          </g>
          <g id="Grupo_24224" data-name="Grupo 24224">
            <rect id="Rectángulo_8242" data-name="Rectángulo 8242" width="2.625" height="2.625" transform="translate(110.216 465.666)"/>
          </g>
          <g id="Grupo_24225" data-name="Grupo 24225">
            <rect id="Rectángulo_8243" data-name="Rectángulo 8243" width="2.625" height="9.186" transform="translate(110.216 453.855)"/>
          </g>
          <g id="Grupo_24226" data-name="Grupo 24226">
            <path id="Trazado_56848" data-name="Trazado 56848" d="M107.592,406.61a5.249,5.249,0,1,1,5.249-5.249A5.254,5.254,0,0,1,107.592,406.61Zm0-7.874a2.625,2.625,0,1,0,2.624,2.625A2.629,2.629,0,0,0,107.592,398.736Z"/>
          </g>
          <g id="Grupo_24227" data-name="Grupo 24227">
            <path id="Trazado_56849" data-name="Trazado 56849" d="M55.1,459.1a5.249,5.249,0,1,1,5.25-5.249A5.254,5.254,0,0,1,55.1,459.1Zm0-7.874a2.625,2.625,0,1,0,2.625,2.625A2.628,2.628,0,0,0,55.1,451.23Z"/>
          </g>
          <g id="Grupo_24228" data-name="Grupo 24228">
            <path id="Trazado_56850" data-name="Trazado 56850" d="M103.606,400.038a35.52,35.52,0,0,0-28.516-7.314l-.458-2.583A38.136,38.136,0,0,1,105.257,398Z"/>
          </g>
          <g id="Grupo_24229" data-name="Grupo 24229">
            <path id="Trazado_56851" data-name="Trazado 56851" d="M118.205,437.121l-2.543-.653a35.517,35.517,0,0,0-6.749-31.123l2.04-1.65a38.142,38.142,0,0,1,7.252,33.426Z"/>
          </g>
          <g id="Grupo_24230" data-name="Grupo 24230">
            <path id="Trazado_56852" data-name="Trazado 56852" d="M81.345,465.666a38.148,38.148,0,0,1-23.919-8.454l1.651-2.041a35.511,35.511,0,0,0,22.268,7.871,35.135,35.135,0,0,0,15.183-3.408l1.125,2.371A37.725,37.725,0,0,1,81.345,465.666Z"/>
          </g>
          <g id="Grupo_24231" data-name="Grupo 24231">
            <path id="Trazado_56853" data-name="Trazado 56853" d="M51.736,451.521a38.1,38.1,0,0,1-5.394-38.877l2.412,1.033a35.483,35.483,0,0,0,5.022,36.194Z"/>
          </g>
          <g id="Grupo_24232" data-name="Grupo 24232">
            <path id="Trazado_56854" data-name="Trazado 56854" d="M110.092,426.3H99.717a3.941,3.941,0,0,1-3.937-3.937,1.313,1.313,0,0,0-1.312-1.313H80.032a3.937,3.937,0,1,1,0-7.874h9.187a1.313,1.313,0,0,0,0-2.625h-5.25a3.937,3.937,0,1,1,0-7.874H97.935V405.3H83.969a1.313,1.313,0,0,0,0,2.625h5.25a3.937,3.937,0,1,1,0,7.874H80.032a1.313,1.313,0,0,0,0,2.625H94.468a3.941,3.941,0,0,1,3.937,3.937,1.313,1.313,0,0,0,1.312,1.312h10.375Z"/>
          </g>
          <g id="Grupo_24233" data-name="Grupo 24233">
            <path id="Trazado_56855" data-name="Trazado 56855" d="M92.551,452.543H83.969a3.941,3.941,0,0,1-3.937-3.937,1.313,1.313,0,0,0-1.312-1.313H69.533a3.937,3.937,0,1,1,0-7.874h1.313a1.313,1.313,0,0,0,1.312-1.312v-1.313a3.941,3.941,0,0,1,3.937-3.937h3.358a1.313,1.313,0,0,0,1.246-.9l.114-.346a3.934,3.934,0,0,1,3.736-2.694h25.543v2.625H84.549a1.311,1.311,0,0,0-1.246.9l-.114.346a3.935,3.935,0,0,1-3.736,2.694H76.1a1.313,1.313,0,0,0-1.312,1.312v1.313a3.941,3.941,0,0,1-3.937,3.937H69.533a1.313,1.313,0,0,0,0,2.625H78.72a3.941,3.941,0,0,1,3.937,3.937,1.313,1.313,0,0,0,1.312,1.312h8.582Z"/>
          </g>
          <g id="Grupo_24234" data-name="Grupo 24234">
            <path id="Trazado_56856" data-name="Trazado 56856" d="M109.665,438.07l-2.463-.91a27.562,27.562,0,0,0-36.16-35.112l-.982-2.435a30.2,30.2,0,0,1,39.605,38.457Z"/>
          </g>
          <g id="Grupo_24235" data-name="Grupo 24235">
            <path id="Trazado_56857" data-name="Trazado 56857" d="M81.345,457.792A30.185,30.185,0,0,1,58.06,408.4l2.025,1.672a27.559,27.559,0,0,0,21.26,45.1,27.234,27.234,0,0,0,12.7-3.1l1.213,2.328A30.253,30.253,0,0,1,81.345,457.792Z"/>
          </g>
          <g id="Grupo_24236" data-name="Grupo 24236">
            <path id="Trazado_56858" data-name="Trazado 56858" d="M62.972,434.17H52.957v-2.625H62.972a1.313,1.313,0,0,0,0-2.625,3.937,3.937,0,1,1,0-7.874h3.937a1.312,1.312,0,1,0,0-2.624H54.45V415.8H66.909a3.937,3.937,0,1,1,0,7.874H62.972a1.313,1.313,0,1,0,0,2.625,3.937,3.937,0,0,1,0,7.874Z"/>
          </g>
          <g id="Grupo_24237" data-name="Grupo 24237">
            <path id="Trazado_56859" data-name="Trazado 56859" d="M114.153,455.167H97.093a6.562,6.562,0,0,1-.943-13.055,9.176,9.176,0,0,1,16.463-2.525,7.21,7.21,0,0,1,1.54-.168,7.874,7.874,0,1,1,0,15.748ZM96.97,444.661a3.942,3.942,0,0,0,.123,7.882h17.06a5.25,5.25,0,1,0-1.727-10.18l-1.087.381-.519-1.027A6.551,6.551,0,0,0,98.5,443.583l-.189,1.133Z"/>
          </g>
          <g id="Grupo_24238" data-name="Grupo 24238">
            <path id="Trazado_56860" data-name="Trazado 56860" d="M64.284,410.547H47.223a6.562,6.562,0,0,1-.943-13.055,9.176,9.176,0,0,1,16.463-2.525,7.226,7.226,0,0,1,1.541-.168,7.874,7.874,0,1,1,0,15.748ZM47.1,400.041a3.942,3.942,0,0,0,.123,7.882H64.284a5.25,5.25,0,1,0-1.728-10.18l-1.086.381-.519-1.027a6.552,6.552,0,0,0-12.317,1.866l-.188,1.133Z"/>
          </g>
        </g>
      </g>
    </g>
  </g>
</svg>
