<svg xmlns="http://www.w3.org/2000/svg" xmlns:xlink="http://www.w3.org/1999/xlink" width="583.393" height="380.231" viewBox="0 0 583.393 380.231">
  <defs>
    <linearGradient id="linear-gradient" y1="0.5" x2="1" y2="0.5" gradientUnits="objectBoundingBox">
      <stop offset="0" stop-color="#df7f50"/>
      <stop offset="0.158" stop-color="#da6d51"/>
      <stop offset="0.36" stop-color="#d75f52"/>
      <stop offset="0.603" stop-color="#d55652"/>
      <stop offset="1" stop-color="#d55453"/>
    </linearGradient>
    <linearGradient id="linear-gradient-3" y1="0.5" x2="1" y2="0.5" gradientUnits="objectBoundingBox">
      <stop offset="0" stop-color="#df7f50"/>
      <stop offset="0.088" stop-color="#db755f"/>
      <stop offset="0.24" stop-color="#d66873"/>
      <stop offset="0.414" stop-color="#d35f81"/>
      <stop offset="0.628" stop-color="#d15a89"/>
      <stop offset="0.995" stop-color="#d1598c"/>
      <stop offset="1" stop-color="#d1598c"/>
    </linearGradient>
    <linearGradient id="linear-gradient-5" x1="1" y1="0.5" x2="0" y2="0.5" gradientUnits="objectBoundingBox">
      <stop offset="0" stop-color="#df7f50"/>
      <stop offset="0.113" stop-color="#c56c61" stop-opacity="0.953"/>
      <stop offset="0.233" stop-color="#b05e6f" stop-opacity="0.918"/>
      <stop offset="0.367" stop-color="#a0527b" stop-opacity="0.886"/>
      <stop offset="0.517" stop-color="#944a82" stop-opacity="0.867"/>
      <stop offset="0.698" stop-color="#8e4587" stop-opacity="0.855"/>
      <stop offset="0.995" stop-color="#8c4489" stop-opacity="0.851"/>
      <stop offset="1" stop-color="#8c4489"/>
    </linearGradient>
  </defs>
  <g id="Grupo_24743" data-name="Grupo 24743" transform="translate(-255 -6033.066)">
    <g id="Grupo_23793" data-name="Grupo 23793" transform="translate(255 6033.066)">
      <g id="Grupo_23779" data-name="Grupo 23779" transform="translate(0 142.667)">
        <path id="Trazado_55349" data-name="Trazado 55349" d="M97.721,197.382l-38.458-27.3v15.006H0v24.588H59.263v15.006Z" transform="translate(0 -170.082)" fill="url(#linear-gradient)"/>
        <g id="Grupo_23777" data-name="Grupo 23777" transform="translate(15.088 24.108)">
          <path id="Trazado_55350" data-name="Trazado 55350" d="M23.483,198.823v1.516H19.688v1.569H23.1v1.45H19.688v1.582H23.6v1.5H17.987v-7.622Z" transform="translate(-17.987 -198.823)" fill="#fff"/>
          <path id="Trazado_55351" data-name="Trazado 55351" d="M31.821,198.823h1.7v7.622h-1.7l-3.631-4.776v4.776h-1.7v-7.622h1.592l3.74,4.907Z" transform="translate(-19.357 -198.823)" fill="#fff"/>
          <path id="Trazado_55352" data-name="Trazado 55352" d="M40.216,200.3v6.15h-1.7V200.3H36.356v-1.472h6.019V200.3Z" transform="translate(-20.948 -198.823)" fill="#fff"/>
          <path id="Trazado_55353" data-name="Trazado 55353" d="M51.2,201.353a2.245,2.245,0,0,1-1.45,2.366l1.931,2.726H49.583l-1.691-2.432H46.715v2.432h-1.7v-7.622H47.9a4.149,4.149,0,0,1,2.535.6A2.313,2.313,0,0,1,51.2,201.353Zm-2.05.9a1.148,1.148,0,0,0,.316-.9.962.962,0,0,0-.326-.845,2.1,2.1,0,0,0-1.145-.23H46.715v2.258h1.242A1.823,1.823,0,0,0,49.146,202.257Z" transform="translate(-22.343 -198.823)" fill="#fff"/>
          <path id="Trazado_55354" data-name="Trazado 55354" d="M59.7,206.445l-.709-1.647H55.8l-.709,1.647h-1.81l3.293-7.622h1.647l3.293,7.622Zm-2.3-5.354-.96,2.213h1.908Z" transform="translate(-23.676 -198.823)" fill="#fff"/>
          <path id="Trazado_55355" data-name="Trazado 55355" d="M69.972,199.82a3.572,3.572,0,0,1,1.09,2.776A3.748,3.748,0,0,1,70,205.409a4.489,4.489,0,0,1-3.245,1.036H64.149v-7.622h2.693A4.474,4.474,0,0,1,69.972,199.82Zm-1.248,4.53a2.234,2.234,0,0,0,.627-1.712,2.292,2.292,0,0,0-.627-1.728,2.681,2.681,0,0,0-1.925-.6H65.85v4.634h1.08A2.519,2.519,0,0,0,68.724,204.351Z" transform="translate(-25.428 -198.823)" fill="#fff"/>
          <path id="Trazado_55356" data-name="Trazado 55356" d="M79.126,206.445l-.708-1.647h-3.2l-.71,1.647H72.7L76,198.823h1.647l3.293,7.622Zm-2.3-5.354-.96,2.213h1.908Z" transform="translate(-26.807 -198.823)" fill="#fff"/>
        </g>
        <path id="Trazado_55357" data-name="Trazado 55357" d="M676.721,197.382l-38.458-27.3v15.006H579v24.588h59.263v15.006Z" transform="translate(-93.328 -170.082)" fill="url(#linear-gradient)"/>
        <g id="Grupo_23778" data-name="Grupo 23778" transform="translate(507.193 23.934)">
          <path id="Trazado_55358" data-name="Trazado 55358" d="M606.985,200.31a.656.656,0,0,0-.246.534.605.605,0,0,0,.3.529,5.5,5.5,0,0,0,1.384.463,3.892,3.892,0,0,1,1.685.8,1.979,1.979,0,0,1,.6,1.559,2.061,2.061,0,0,1-.768,1.663,3.067,3.067,0,0,1-2.023.638,4.684,4.684,0,0,1-3.26-1.342l1.014-1.242a3.611,3.611,0,0,0,2.279,1.08,1.2,1.2,0,0,0,.736-.2.648.648,0,0,0,.267-.545.636.636,0,0,0-.284-.545,3.7,3.7,0,0,0-1.123-.409,4.892,4.892,0,0,1-1.947-.824,1.945,1.945,0,0,1-.616-1.592,1.973,1.973,0,0,1,.78-1.673,3.136,3.136,0,0,1,1.946-.589,4.685,4.685,0,0,1,1.527.262,4.084,4.084,0,0,1,1.33.741l-.861,1.243a3.363,3.363,0,0,0-2.05-.752A1.026,1.026,0,0,0,606.985,200.31Z" transform="translate(-604.657 -198.615)" fill="#fff"/>
          <path id="Trazado_55359" data-name="Trazado 55359" d="M618.737,206.445l-.709-1.647h-3.2l-.709,1.647h-1.81l3.293-7.622h1.647l3.293,7.622Zm-2.3-5.354-.96,2.213h1.908Z" transform="translate(-605.891 -198.649)" fill="#fff"/>
          <path id="Trazado_55360" data-name="Trazado 55360" d="M623.182,206.445v-7.622h1.7v6.106h3.25v1.517Z" transform="translate(-607.643 -198.649)" fill="#fff"/>
          <path id="Trazado_55361" data-name="Trazado 55361" d="M630.566,198.823h1.7v7.622h-1.7Z" transform="translate(-608.833 -198.649)" fill="#fff"/>
          <path id="Trazado_55362" data-name="Trazado 55362" d="M640.653,199.82a3.574,3.574,0,0,1,1.09,2.776,3.748,3.748,0,0,1-1.063,2.813,4.488,4.488,0,0,1-3.244,1.036H634.83v-7.622h2.693A4.477,4.477,0,0,1,640.653,199.82Zm-1.249,4.53a2.234,2.234,0,0,0,.627-1.712,2.292,2.292,0,0,0-.627-1.728,2.68,2.68,0,0,0-1.925-.6h-.949v4.634h1.08A2.518,2.518,0,0,0,639.4,204.351Z" transform="translate(-609.521 -198.649)" fill="#fff"/>
          <path id="Trazado_55363" data-name="Trazado 55363" d="M649.807,206.445,649.1,204.8h-3.2l-.709,1.647h-1.81l3.293-7.622h1.647l3.293,7.622Zm-2.3-5.354-.96,2.213h1.908Z" transform="translate(-610.899 -198.649)" fill="#fff"/>
        </g>
      </g>
      <g id="Grupo_23780" data-name="Grupo 23780" transform="translate(230.595 353.142)">
        <path id="Trazado_55364" data-name="Trazado 55364" d="M277.373,428.7l-.881,2h-1.585l3.875-8.795h1.585l3.875,8.795h-1.585l-.881-2Zm3.8-1.371-1.6-3.624-1.6,3.624Z" transform="translate(-274.907 -421.148)" fill="#58619c"/>
        <path id="Trazado_55365" data-name="Trazado 55365" d="M288.661,427.459v3.624h-1.409v-6.694h1.409v1.22a2.234,2.234,0,0,1,.912-.97,2.593,2.593,0,0,1,1.314-.352,2.129,2.129,0,0,1,2.152,1.309,3,3,0,0,1,2.479-1.309,2.487,2.487,0,0,1,1.83.693,2.692,2.692,0,0,1,.7,2v4.1h-1.41v-3.674q0-1.851-1.534-1.85a1.862,1.862,0,0,0-1.252.459,1.74,1.74,0,0,0-.559,1.34v3.724h-1.409v-3.674a2.327,2.327,0,0,0-.34-1.4,1.258,1.258,0,0,0-1.069-.446,1.842,1.842,0,0,0-1.271.484A1.8,1.8,0,0,0,288.661,427.459Z" transform="translate(-276.897 -421.532)" fill="#58619c"/>
        <path id="Trazado_55366" data-name="Trazado 55366" d="M306.048,423.8a3.185,3.185,0,0,1,2.3.931,3.306,3.306,0,0,1,.956,2.479,3.44,3.44,0,0,1-.95,2.516,2.944,2.944,0,0,1-4.485-.138v1.007h-1.41v-9.336h1.41v3.812A2.507,2.507,0,0,1,306.048,423.8Zm-2.2,3.46a2.18,2.18,0,0,0,.579,1.567,1.868,1.868,0,0,0,1.409.611,2,2,0,0,0,1.447-.6,2.1,2.1,0,0,0,.616-1.566,2.227,2.227,0,0,0-.6-1.6,1.926,1.926,0,0,0-1.447-.635,1.847,1.847,0,0,0-1.422.635A2.271,2.271,0,0,0,303.846,427.259Z" transform="translate(-279.348 -421.044)" fill="#58619c"/>
        <path id="Trazado_55367" data-name="Trazado 55367" d="M312.6,422.525a.881.881,0,1,1,.629.264A.859.859,0,0,1,312.6,422.525Zm1.321,8.027h-1.409v-6.694h1.409Z" transform="translate(-280.94 -421.003)" fill="#58619c"/>
        <path id="Trazado_55368" data-name="Trazado 55368" d="M322.8,428.352H317.55a1.525,1.525,0,0,0,.668,1.176,2.59,2.59,0,0,0,3.322-.346l.805.882a3.745,3.745,0,0,1-2.818,1.12,3.356,3.356,0,0,1-2.4-.938,3.305,3.305,0,0,1-.987-2.516,3.258,3.258,0,0,1,1.006-2.511,3.384,3.384,0,0,1,2.372-.931,3.437,3.437,0,0,1,2.322.825,2.843,2.843,0,0,1,.956,2.271Zm-5.248-1.108h3.838a1.616,1.616,0,0,0-.528-1.3,1.937,1.937,0,0,0-1.3-.453,2.227,2.227,0,0,0-1.39.472A1.522,1.522,0,0,0,317.55,427.244Z" transform="translate(-281.554 -421.532)" fill="#58619c"/>
        <path id="Trazado_55369" data-name="Trazado 55369" d="M327.331,427.459v3.624h-1.41v-6.694h1.41v1.22a2.536,2.536,0,0,1,2.226-1.322,2.488,2.488,0,0,1,1.831.693,2.692,2.692,0,0,1,.7,2v4.1h-1.41v-3.674q0-1.851-1.534-1.85a1.842,1.842,0,0,0-1.271.484A1.8,1.8,0,0,0,327.331,427.459Z" transform="translate(-283.13 -421.532)" fill="#58619c"/>
        <path id="Trazado_55370" data-name="Trazado 55370" d="M337.144,425.137v3.4a1.1,1.1,0,0,0,.252.761.893.893,0,0,0,.7.284,1.2,1.2,0,0,0,.869-.44l.578.994a2.4,2.4,0,0,1-1.642.667,2.113,2.113,0,0,1-1.535-.623,2.245,2.245,0,0,1-.635-1.679v-3.359h-.843V424h.843v-2.1h1.409V424H338.9v1.132Z" transform="translate(-284.576 -421.148)" fill="#58619c"/>
        <path id="Trazado_55371" data-name="Trazado 55371" d="M347.922,428.352h-5.247a1.527,1.527,0,0,0,.667,1.176,2.591,2.591,0,0,0,3.322-.346l.805.882a3.74,3.74,0,0,1-2.818,1.12,3.356,3.356,0,0,1-2.4-.938,3.305,3.305,0,0,1-.987-2.516,3.258,3.258,0,0,1,1.006-2.511,3.384,3.384,0,0,1,2.372-.931,3.436,3.436,0,0,1,2.322.825,2.842,2.842,0,0,1,.955,2.271Zm-5.247-1.108h3.838a1.616,1.616,0,0,0-.528-1.3,1.937,1.937,0,0,0-1.3-.453,2.227,2.227,0,0,0-1.39.472A1.522,1.522,0,0,0,342.675,427.244Z" transform="translate(-285.604 -421.532)" fill="#58619c"/>
        <path id="Trazado_55372" data-name="Trazado 55372" d="M361.3,428.352h-5.247a1.525,1.525,0,0,0,.667,1.176,2.591,2.591,0,0,0,3.322-.346l.805.882a3.74,3.74,0,0,1-2.818,1.12,3.354,3.354,0,0,1-2.4-.938,3.305,3.305,0,0,1-.987-2.516,3.252,3.252,0,0,1,1.007-2.511,3.381,3.381,0,0,1,2.371-.931,3.432,3.432,0,0,1,2.321.825,2.84,2.84,0,0,1,.956,2.271Zm-5.247-1.108h3.838a1.618,1.618,0,0,0-.528-1.3,1.937,1.937,0,0,0-1.3-.453,2.227,2.227,0,0,0-1.39.472A1.522,1.522,0,0,0,356.055,427.244Z" transform="translate(-287.76 -421.532)" fill="#58619c"/>
        <path id="Trazado_55373" data-name="Trazado 55373" d="M365.181,424.408l1.434,2.2,1.485-2.2h1.673l-2.34,3.271,2.441,3.422h-1.736l-1.6-2.227-1.56,2.227h-1.648l2.378-3.41-2.252-3.284Z" transform="translate(-289.16 -421.552)" fill="#58619c"/>
        <path id="Trazado_55374" data-name="Trazado 55374" d="M374.268,425.137v3.4a1.1,1.1,0,0,0,.252.761.9.9,0,0,0,.7.284,1.2,1.2,0,0,0,.868-.44l.579.994a2.4,2.4,0,0,1-1.642.667,2.114,2.114,0,0,1-1.535-.623,2.244,2.244,0,0,1-.634-1.679v-3.359h-.844V424h.844v-2.1h1.408V424h1.762v1.132Z" transform="translate(-290.56 -421.148)" fill="#58619c"/>
        <path id="Trazado_55375" data-name="Trazado 55375" d="M385.046,428.352H379.8a1.524,1.524,0,0,0,.667,1.176,2.591,2.591,0,0,0,3.322-.346l.805.882a3.74,3.74,0,0,1-2.818,1.12,3.356,3.356,0,0,1-2.4-.938,3.305,3.305,0,0,1-.987-2.516,3.252,3.252,0,0,1,1.007-2.511,3.381,3.381,0,0,1,2.371-.931,3.436,3.436,0,0,1,2.322.825,2.842,2.842,0,0,1,.955,2.271Zm-5.247-1.108h3.838a1.616,1.616,0,0,0-.528-1.3,1.937,1.937,0,0,0-1.3-.453,2.227,2.227,0,0,0-1.39.472A1.522,1.522,0,0,0,379.8,427.244Z" transform="translate(-291.587 -421.532)" fill="#58619c"/>
        <path id="Trazado_55376" data-name="Trazado 55376" d="M391.681,425.71a1.87,1.87,0,0,0-1.573.679,2.9,2.9,0,0,0-.529,1.825v2.869H388.17v-6.694h1.409v1.346a2.915,2.915,0,0,1,.924-1.032,2.239,2.239,0,0,1,1.24-.416l.013,1.423Z" transform="translate(-293.164 -421.532)" fill="#58619c"/>
        <path id="Trazado_55377" data-name="Trazado 55377" d="M395.534,427.459v3.624h-1.409v-6.694h1.409v1.22a2.627,2.627,0,0,1,4.058-.629,2.7,2.7,0,0,1,.7,2v4.1h-1.41v-3.674q0-1.851-1.535-1.85a1.843,1.843,0,0,0-1.271.484A1.805,1.805,0,0,0,395.534,427.459Z" transform="translate(-294.124 -421.532)" fill="#58619c"/>
        <path id="Trazado_55378" data-name="Trazado 55378" d="M409.329,430.182a3.664,3.664,0,0,1-5.033,0,3.48,3.48,0,0,1,0-4.894,3.664,3.664,0,0,1,5.033,0,3.476,3.476,0,0,1,0,4.894Zm-4.032-.868a2.187,2.187,0,0,0,3.032,0,2.384,2.384,0,0,0,0-3.158,2.187,2.187,0,0,0-3.032,0,2.386,2.386,0,0,0,0,3.158Z" transform="translate(-295.601 -421.532)" fill="#58619c"/>
        <path id="Trazado_55379" data-name="Trazado 55379" d="M290.847,441.618a9.273,9.273,0,0,0,0,6.027,9.338,9.338,0,0,0,1.233,2.586h-1.5a8.927,8.927,0,0,1-1.127-2.441,10.049,10.049,0,0,1,0-6.316,8.928,8.928,0,0,1,1.127-2.441h1.5A9.332,9.332,0,0,0,290.847,441.618Z" transform="translate(-277.17 -423.909)" fill="#58619c"/>
        <path id="Trazado_55380" data-name="Trazado 55380" d="M298.79,447.082a1.882,1.882,0,0,1-.692,1.528,2.691,2.691,0,0,1-1.774.573,4.755,4.755,0,0,1-1.517-.264,4.554,4.554,0,0,1-1.39-.742l.679-1.095a3.8,3.8,0,0,0,2.265.881,1.181,1.181,0,0,0,.755-.221.686.686,0,0,0,.277-.56q0-.5-1.334-.906c-.067-.024-.117-.041-.151-.049q-2.089-.566-2.089-1.887a1.791,1.791,0,0,1,.723-1.491,2.99,2.99,0,0,1,1.881-.56,3.915,3.915,0,0,1,2.189.68l-.528,1.044a3.153,3.153,0,0,0-1.774-.541,1.618,1.618,0,0,0-.818.182.594.594,0,0,0-.315.548.5.5,0,0,0,.327.478,3.161,3.161,0,0,0,.636.213c.272.068.513.135.723.2s.414.143.61.227a3.89,3.89,0,0,1,.636.352A1.574,1.574,0,0,1,298.79,447.082Z" transform="translate(-277.891 -424.434)" fill="#58619c"/>
        <path id="Trazado_55381" data-name="Trazado 55381" d="M306.393,446.031v-3.623H307.8V449.1h-1.409v-1.22a2.628,2.628,0,0,1-4.058.629,2.694,2.694,0,0,1-.7-2v-4.1h1.409v3.673q0,1.851,1.535,1.85a1.844,1.844,0,0,0,1.271-.485A1.8,1.8,0,0,0,306.393,446.031Z" transform="translate(-279.216 -424.453)" fill="#58619c"/>
        <path id="Trazado_55382" data-name="Trazado 55382" d="M315,442.287a3.185,3.185,0,0,1,2.3.931,3.306,3.306,0,0,1,.956,2.479,3.44,3.44,0,0,1-.95,2.516,2.944,2.944,0,0,1-4.485-.138v3.448h-1.409v-9.135h1.409v1.17A2.507,2.507,0,0,1,315,442.287Zm-2.2,3.46a2.18,2.18,0,0,0,.579,1.567,1.868,1.868,0,0,0,1.409.611,2,2,0,0,0,1.447-.6,2.1,2.1,0,0,0,.617-1.566,2.227,2.227,0,0,0-.6-1.6,1.926,1.926,0,0,0-1.447-.635,1.847,1.847,0,0,0-1.422.635A2.271,2.271,0,0,0,312.8,445.747Z" transform="translate(-280.792 -424.434)" fill="#58619c"/>
        <path id="Trazado_55383" data-name="Trazado 55383" d="M327.643,446.352H322.4a1.524,1.524,0,0,0,.667,1.176,2.59,2.59,0,0,0,3.322-.346l.805.882a3.743,3.743,0,0,1-2.818,1.12,3.356,3.356,0,0,1-2.4-.938,3.305,3.305,0,0,1-.987-2.516,3.255,3.255,0,0,1,1.007-2.511,3.381,3.381,0,0,1,2.371-.931,3.436,3.436,0,0,1,2.322.825,2.84,2.84,0,0,1,.956,2.271Zm-5.247-1.108h3.838a1.616,1.616,0,0,0-.528-1.3,1.937,1.937,0,0,0-1.3-.453,2.229,2.229,0,0,0-1.39.472A1.524,1.524,0,0,0,322.4,445.244Z" transform="translate(-282.335 -424.434)" fill="#58619c"/>
        <path id="Trazado_55384" data-name="Trazado 55384" d="M334.277,443.71a1.872,1.872,0,0,0-1.573.679,2.9,2.9,0,0,0-.528,1.825v2.869h-1.409v-6.694h1.409v1.346a2.923,2.923,0,0,1,.924-1.032,2.237,2.237,0,0,1,1.24-.416l.013,1.423Z" transform="translate(-283.911 -424.434)" fill="#58619c"/>
        <path id="Trazado_55385" data-name="Trazado 55385" d="M341.374,447.082a1.884,1.884,0,0,1-.691,1.528,2.7,2.7,0,0,1-1.775.573,4.75,4.75,0,0,1-1.516-.264,4.553,4.553,0,0,1-1.39-.742l.679-1.095a3.793,3.793,0,0,0,2.264.881,1.181,1.181,0,0,0,.755-.221.686.686,0,0,0,.277-.56q0-.5-1.334-.906c-.067-.024-.117-.041-.151-.049q-2.089-.566-2.088-1.887a1.791,1.791,0,0,1,.723-1.491,2.986,2.986,0,0,1,1.881-.56,3.913,3.913,0,0,1,2.189.68l-.528,1.044a3.153,3.153,0,0,0-1.774-.541,1.612,1.612,0,0,0-.817.182.593.593,0,0,0-.315.548.5.5,0,0,0,.326.478,3.181,3.181,0,0,0,.636.213q.409.1.723.2t.611.227a3.887,3.887,0,0,1,.635.352A1.574,1.574,0,0,1,341.374,447.082Z" transform="translate(-284.755 -424.434)" fill="#58619c"/>
        <path id="Trazado_55386" data-name="Trazado 55386" d="M344.366,440.525a.881.881,0,1,1,.629.264A.859.859,0,0,1,344.366,440.525Zm1.32,8.027h-1.408v-6.694h1.408Z" transform="translate(-286.06 -423.904)" fill="#58619c"/>
        <path id="Trazado_55387" data-name="Trazado 55387" d="M353.074,447.082a1.883,1.883,0,0,1-.693,1.528,2.69,2.69,0,0,1-1.774.573,4.755,4.755,0,0,1-1.517-.264,4.554,4.554,0,0,1-1.39-.742l.679-1.095a3.8,3.8,0,0,0,2.265.881,1.181,1.181,0,0,0,.755-.221.686.686,0,0,0,.277-.56q0-.5-1.334-.906c-.067-.024-.117-.041-.151-.049q-2.089-.566-2.089-1.887a1.792,1.792,0,0,1,.724-1.491,2.984,2.984,0,0,1,1.881-.56,3.919,3.919,0,0,1,2.19.68l-.529,1.044a3.153,3.153,0,0,0-1.774-.541,1.618,1.618,0,0,0-.818.182.594.594,0,0,0-.315.548.5.5,0,0,0,.327.478,3.17,3.17,0,0,0,.635.213q.409.1.725.2c.209.067.413.143.609.227a3.889,3.889,0,0,1,.636.352A1.574,1.574,0,0,1,353.074,447.082Z" transform="translate(-286.641 -424.434)" fill="#58619c"/>
        <path id="Trazado_55388" data-name="Trazado 55388" d="M357.648,443.137v3.4a1.1,1.1,0,0,0,.252.761.894.894,0,0,0,.7.284,1.2,1.2,0,0,0,.868-.44l.579.994a2.4,2.4,0,0,1-1.642.667,2.113,2.113,0,0,1-1.535-.623,2.245,2.245,0,0,1-.635-1.679v-3.359H355.4V442h.843v-2.1h1.409V442h1.762v1.132Z" transform="translate(-287.881 -424.049)" fill="#58619c"/>
        <path id="Trazado_55389" data-name="Trazado 55389" d="M368.426,446.352h-5.247a1.524,1.524,0,0,0,.667,1.176,2.591,2.591,0,0,0,3.322-.346l.805.882a3.74,3.74,0,0,1-2.818,1.12,3.354,3.354,0,0,1-2.4-.938,3.305,3.305,0,0,1-.987-2.516,3.252,3.252,0,0,1,1.007-2.511,3.381,3.381,0,0,1,2.371-.931,3.432,3.432,0,0,1,2.321.825,2.84,2.84,0,0,1,.956,2.271Zm-5.247-1.108h3.838a1.618,1.618,0,0,0-.528-1.3,1.937,1.937,0,0,0-1.3-.453,2.227,2.227,0,0,0-1.39.472A1.522,1.522,0,0,0,363.179,445.244Z" transform="translate(-288.909 -424.434)" fill="#58619c"/>
        <path id="Trazado_55390" data-name="Trazado 55390" d="M372.959,445.458v3.624H371.55v-6.694h1.409v1.22a2.239,2.239,0,0,1,.912-.97,2.6,2.6,0,0,1,1.315-.352,2.129,2.129,0,0,1,2.152,1.309,3.005,3.005,0,0,1,2.479-1.309,2.491,2.491,0,0,1,1.831.693,2.692,2.692,0,0,1,.7,2v4.1h-1.409v-3.674q0-1.851-1.535-1.85a1.864,1.864,0,0,0-1.252.459,1.74,1.74,0,0,0-.559,1.34v3.724H376.18v-3.674a2.327,2.327,0,0,0-.34-1.4,1.257,1.257,0,0,0-1.069-.446,1.844,1.844,0,0,0-1.271.484A1.8,1.8,0,0,0,372.959,445.458Z" transform="translate(-290.485 -424.434)" fill="#58619c"/>
        <path id="Trazado_55391" data-name="Trazado 55391" d="M392.086,449.082H390.8v-.893a2.753,2.753,0,0,1-2.227.994,2.554,2.554,0,0,1-1.73-.591,1.982,1.982,0,0,1-.686-1.579,1.661,1.661,0,0,1,.73-1.478,3.487,3.487,0,0,1,1.975-.491h1.824v-.253q0-1.332-1.485-1.333a3.481,3.481,0,0,0-1.938.679l-.629-.881a4.334,4.334,0,0,1,2.768-.97,3,3,0,0,1,1.931.6,2.261,2.261,0,0,1,.749,1.881Zm-1.409-2.492v-.565h-1.585q-1.522,0-1.522.956a.851.851,0,0,0,.378.748,1.844,1.844,0,0,0,1.05.258,1.907,1.907,0,0,0,1.177-.377A1.209,1.209,0,0,0,390.677,446.59Z" transform="translate(-292.84 -424.434)" fill="#58619c"/>
        <path id="Trazado_55392" data-name="Trazado 55392" d="M395.837,447.645a9.259,9.259,0,0,0,0-6.027,9.333,9.333,0,0,0-1.232-2.585h1.5a8.93,8.93,0,0,1,1.126,2.441,10.033,10.033,0,0,1,0,6.316,8.93,8.93,0,0,1-1.126,2.441h-1.5A9.34,9.34,0,0,0,395.837,447.645Z" transform="translate(-294.201 -423.909)" fill="#58619c"/>
      </g>
      <ellipse id="Elipse_919" data-name="Elipse 919" cx="188.313" cy="166.504" rx="188.313" ry="166.504" transform="translate(103.383)" opacity="0.1" fill="url(#linear-gradient-3)"/>
      <g id="Grupo_23781" data-name="Grupo 23781" transform="translate(9.406 208.929)">
        <path id="Trazado_55393" data-name="Trazado 55393" d="M11.213,249.977H12.7v8.795H11.213Z" transform="translate(-11.213 -249.222)"/>
        <path id="Trazado_55394" data-name="Trazado 55394" d="M16.987,255.533v3.624H15.578v-6.694h1.409v1.22a2.628,2.628,0,0,1,4.058-.629,2.694,2.694,0,0,1,.7,2v4.1H20.334v-3.674q0-1.85-1.534-1.85a1.844,1.844,0,0,0-1.272.484A1.8,1.8,0,0,0,16.987,255.533Z" transform="translate(-11.917 -249.607)"/>
        <path id="Trazado_55395" data-name="Trazado 55395" d="M26.83,251.387v.554h1.762v1.132H26.83v5.561H25.421v-5.561h-.843V251.94h.843v-.516a2.249,2.249,0,0,1,.635-1.68,2.117,2.117,0,0,1,1.535-.622,2.4,2.4,0,0,1,1.642.667l-.579.994a1.2,1.2,0,0,0-.868-.44.893.893,0,0,0-.7.283A1.106,1.106,0,0,0,26.83,251.387Z" transform="translate(-13.367 -249.084)"/>
        <path id="Trazado_55396" data-name="Trazado 55396" d="M36.3,258.257a3.667,3.667,0,0,1-5.033,0,3.479,3.479,0,0,1,0-4.9,3.667,3.667,0,0,1,5.033,0,3.479,3.479,0,0,1,0,4.9Zm-4.033-.869a2.187,2.187,0,0,0,3.032,0,2.384,2.384,0,0,0,0-3.158,2.19,2.19,0,0,0-3.032,0,2.386,2.386,0,0,0,0,3.158Z" transform="translate(-14.284 -249.607)"/>
        <path id="Trazado_55397" data-name="Trazado 55397" d="M44.078,253.784a1.87,1.87,0,0,0-1.573.679,2.9,2.9,0,0,0-.528,1.824v2.869h-1.41v-6.694h1.41v1.346a2.916,2.916,0,0,1,.924-1.032,2.229,2.229,0,0,1,1.24-.415l.013,1.422Z" transform="translate(-15.945 -249.607)"/>
        <path id="Trazado_55398" data-name="Trazado 55398" d="M47.932,255.533v3.624H46.523v-6.694h1.409v1.22a2.235,2.235,0,0,1,.913-.969,2.582,2.582,0,0,1,1.314-.352,2.128,2.128,0,0,1,2.152,1.309,3,3,0,0,1,2.479-1.309,2.49,2.49,0,0,1,1.831.692,2.694,2.694,0,0,1,.7,2v4.1H55.909v-3.674q0-1.85-1.535-1.85a1.859,1.859,0,0,0-1.252.459,1.738,1.738,0,0,0-.56,1.34v3.724H51.153v-3.674a2.328,2.328,0,0,0-.34-1.4,1.259,1.259,0,0,0-1.069-.446,1.843,1.843,0,0,0-1.271.484A1.8,1.8,0,0,0,47.932,255.533Z" transform="translate(-16.905 -249.607)"/>
        <path id="Trazado_55399" data-name="Trazado 55399" d="M67.059,259.156H65.776v-.893a2.753,2.753,0,0,1-2.227.994,2.554,2.554,0,0,1-1.73-.591,1.977,1.977,0,0,1-.686-1.579,1.662,1.662,0,0,1,.73-1.479,3.5,3.5,0,0,1,1.975-.491h1.824v-.252q0-1.334-1.485-1.334a3.481,3.481,0,0,0-1.938.679l-.629-.881a4.334,4.334,0,0,1,2.768-.969,3.006,3.006,0,0,1,1.932.6,2.266,2.266,0,0,1,.748,1.881Zm-1.409-2.491V256.1H64.065q-1.522,0-1.522.956a.852.852,0,0,0,.377.749,1.846,1.846,0,0,0,1.051.258,1.907,1.907,0,0,0,1.176-.377A1.208,1.208,0,0,0,65.65,256.665Z" transform="translate(-19.26 -249.607)"/>
        <path id="Trazado_55400" data-name="Trazado 55400" d="M73.423,259.257a3.38,3.38,0,0,1-2.4-.95,3.532,3.532,0,0,1,.044-4.983,3.657,3.657,0,0,1,2.561-.962,3.474,3.474,0,0,1,2.554,1.044l-.83,1.019a2.672,2.672,0,0,0-1.749-.755,2.2,2.2,0,0,0-1.529.585,1.938,1.938,0,0,0-.648,1.509,2.191,2.191,0,0,0,2.22,2.209,2.453,2.453,0,0,0,1.768-.856l.83.906A3.852,3.852,0,0,1,73.423,259.257Z" transform="translate(-20.691 -249.607)"/>
        <path id="Trazado_55401" data-name="Trazado 55401" d="M79.231,250.6a.881.881,0,1,1,.629.264A.859.859,0,0,1,79.231,250.6Zm1.321,8.027H79.143v-6.694h1.409Z" transform="translate(-22.134 -249.077)"/>
        <path id="Trazado_55402" data-name="Trazado 55402" d="M88.8,257.762a3.667,3.667,0,0,1-5.033,0,3.479,3.479,0,0,1,0-4.9,3.667,3.667,0,0,1,5.033,0,3.479,3.479,0,0,1,0,4.9Zm-4.032-.869a2.187,2.187,0,0,0,3.032,0,2.386,2.386,0,0,0,0-3.158,2.19,2.19,0,0,0-3.032,0,2.384,2.384,0,0,0,0,3.158Zm2.157-5.781H85.643l1.334-1.824,1.485.617Z" transform="translate(-22.746 -249.111)"/>
        <path id="Trazado_55403" data-name="Trazado 55403" d="M94.476,255.533v3.624H93.067v-6.694h1.409v1.22a2.628,2.628,0,0,1,4.058-.629,2.694,2.694,0,0,1,.7,2v4.1H97.823v-3.674q0-1.85-1.535-1.85a1.843,1.843,0,0,0-1.271.484A1.8,1.8,0,0,0,94.476,255.533Z" transform="translate(-24.407 -249.607)"/>
        <path id="Trazado_55404" data-name="Trazado 55404" d="M34.558,267.977v1.4H29.865V271.7H34.08v1.321H29.865v2.353h4.844v1.4H28.38v-8.795Z" transform="translate(-13.98 -252.123)"/>
        <path id="Trazado_55405" data-name="Trazado 55405" d="M39.359,273.533v3.624H37.95v-6.694h1.409v1.22a2.628,2.628,0,0,1,4.058-.629,2.694,2.694,0,0,1,.7,2v4.1H42.706v-3.674q0-1.85-1.534-1.85a1.846,1.846,0,0,0-1.272.484A1.8,1.8,0,0,0,39.359,273.533Z" transform="translate(-15.523 -252.508)"/>
        <path id="Trazado_55406" data-name="Trazado 55406" d="M53.786,274.426H48.539a1.523,1.523,0,0,0,.668,1.176,2.59,2.59,0,0,0,3.321-.346l.805.881a3.743,3.743,0,0,1-2.818,1.12,3.354,3.354,0,0,1-2.4-.938,3.3,3.3,0,0,1-.988-2.516,3.252,3.252,0,0,1,1.007-2.51,3.379,3.379,0,0,1,2.372-.931,3.433,3.433,0,0,1,2.321.824,2.841,2.841,0,0,1,.956,2.272Zm-5.247-1.107h3.838a1.613,1.613,0,0,0-.528-1.3,1.929,1.929,0,0,0-1.3-.453,2.23,2.23,0,0,0-1.391.471A1.524,1.524,0,0,0,48.539,273.319Z" transform="translate(-17.002 -252.508)"/>
        <path id="Trazado_55407" data-name="Trazado 55407" d="M60.42,271.784a1.87,1.87,0,0,0-1.573.679,2.894,2.894,0,0,0-.528,1.824v2.869H56.91v-6.694h1.409v1.346a2.918,2.918,0,0,1,.925-1.032,2.227,2.227,0,0,1,1.239-.415l.013,1.422Z" transform="translate(-18.579 -252.508)"/>
        <path id="Trazado_55408" data-name="Trazado 55408" d="M68.976,270.463V276.3a3.444,3.444,0,0,1-.963,2.661,3.5,3.5,0,0,1-2.472.887,4.353,4.353,0,0,1-2.73-.944l.667-1.069a3.267,3.267,0,0,0,1.981.742,2.311,2.311,0,0,0,1.585-.516,2.092,2.092,0,0,0,.585-1.648v-.856a2.4,2.4,0,0,1-.9.944,2.5,2.5,0,0,1-1.314.352,2.841,2.841,0,0,1-2.189-.931,3.56,3.56,0,0,1,0-4.63,2.833,2.833,0,0,1,2.183-.931,2.588,2.588,0,0,1,2.158,1.095v-.994Zm-5.222,3.089a2.115,2.115,0,0,0,.51,1.422,1.707,1.707,0,0,0,1.371.6,1.812,1.812,0,0,0,1.4-.579,2.038,2.038,0,0,0,.535-1.441,2.1,2.1,0,0,0-.541-1.46,1.8,1.8,0,0,0-1.4-.6,1.678,1.678,0,0,0-1.365.617A2.189,2.189,0,0,0,63.754,273.551Z" transform="translate(-19.459 -252.508)"/>
        <path id="Trazado_55409" data-name="Trazado 55409" d="M72.675,269.979h1.409v6.694H72.675Zm1.371-.856H72.864l1.334-1.762,1.384.617Z" transform="translate(-21.12 -252.024)"/>
        <path id="Trazado_55410" data-name="Trazado 55410" d="M82.111,277.156H80.828v-.893a2.753,2.753,0,0,1-2.227.994,2.552,2.552,0,0,1-1.73-.591,1.977,1.977,0,0,1-.686-1.579,1.662,1.662,0,0,1,.73-1.479,3.5,3.5,0,0,1,1.975-.491h1.824v-.252q0-1.334-1.485-1.334a3.481,3.481,0,0,0-1.938.679l-.629-.881a4.334,4.334,0,0,1,2.768-.969,3,3,0,0,1,1.931.6,2.264,2.264,0,0,1,.749,1.881ZM80.7,274.665V274.1H79.117q-1.522,0-1.522.956a.852.852,0,0,0,.377.749,1.843,1.843,0,0,0,1.05.258,1.908,1.908,0,0,0,1.177-.377A1.208,1.208,0,0,0,80.7,274.665Z" transform="translate(-21.686 -252.508)"/>
        <path id="Trazado_55411" data-name="Trazado 55411" d="M29.409,288.833a2.553,2.553,0,0,1-1.9,2.743l2.3,3.2H27.924l-2.1-2.957H23.873v2.957H22.388v-8.795h3.271a4.739,4.739,0,0,1,2.881.679A2.594,2.594,0,0,1,29.409,288.833Zm-1.975,1.246a1.569,1.569,0,0,0,.452-1.252,1.341,1.341,0,0,0-.465-1.183,3.1,3.1,0,0,0-1.661-.32H23.873v3.146h1.85A2.722,2.722,0,0,0,27.433,290.079Z" transform="translate(-13.014 -255.025)"/>
        <path id="Trazado_55412" data-name="Trazado 55412" d="M39.214,292.426H33.966a1.525,1.525,0,0,0,.668,1.176,2.592,2.592,0,0,0,3.322-.346l.805.881a3.745,3.745,0,0,1-2.818,1.12,3.356,3.356,0,0,1-2.4-.938,3.3,3.3,0,0,1-.987-2.516,3.255,3.255,0,0,1,1.006-2.51,3.381,3.381,0,0,1,2.372-.931,3.437,3.437,0,0,1,2.322.824,2.843,2.843,0,0,1,.956,2.272Zm-5.248-1.107H37.8a1.613,1.613,0,0,0-.528-1.3,1.932,1.932,0,0,0-1.3-.453,2.226,2.226,0,0,0-1.39.471A1.523,1.523,0,0,0,33.966,291.319Z" transform="translate(-14.654 -255.409)"/>
        <path id="Trazado_55413" data-name="Trazado 55413" d="M45.223,295.257a3.38,3.38,0,0,1-2.4-.95,3.532,3.532,0,0,1,.044-4.983,3.657,3.657,0,0,1,2.561-.962,3.476,3.476,0,0,1,2.554,1.044l-.831,1.019a2.671,2.671,0,0,0-1.749-.755,2.2,2.2,0,0,0-1.528.585,1.938,1.938,0,0,0-.648,1.509,2.19,2.19,0,0,0,2.22,2.209,2.455,2.455,0,0,0,1.768-.856l.83.906A3.852,3.852,0,0,1,45.223,295.257Z" transform="translate(-16.145 -255.409)"/>
        <path id="Trazado_55414" data-name="Trazado 55414" d="M55.643,292.106v-3.624h1.409v6.694H55.643v-1.22a2.627,2.627,0,0,1-4.057.629,2.694,2.694,0,0,1-.7-2v-4.1H52.3v3.674q0,1.85,1.535,1.85a1.844,1.844,0,0,0,1.271-.485A1.8,1.8,0,0,0,55.643,292.106Z" transform="translate(-17.608 -255.429)"/>
        <path id="Trazado_55415" data-name="Trazado 55415" d="M64.177,289.784a1.87,1.87,0,0,0-1.573.679,2.894,2.894,0,0,0-.528,1.824v2.869H60.667v-6.694h1.409v1.346A2.918,2.918,0,0,1,63,288.777a2.227,2.227,0,0,1,1.239-.415l.013,1.422Z" transform="translate(-19.184 -255.409)"/>
        <path id="Trazado_55416" data-name="Trazado 55416" d="M71.275,293.156a1.882,1.882,0,0,1-.692,1.528,2.691,2.691,0,0,1-1.774.573,4.755,4.755,0,0,1-1.517-.264,4.553,4.553,0,0,1-1.39-.742l.679-1.095a3.8,3.8,0,0,0,2.265.881,1.181,1.181,0,0,0,.755-.221.685.685,0,0,0,.277-.56q0-.5-1.334-.906a1.533,1.533,0,0,0-.151-.05q-2.09-.566-2.089-1.887a1.792,1.792,0,0,1,.723-1.491,2.986,2.986,0,0,1,1.881-.559,3.913,3.913,0,0,1,2.189.679l-.528,1.044a3.155,3.155,0,0,0-1.774-.541,1.627,1.627,0,0,0-.818.182.594.594,0,0,0-.315.548.5.5,0,0,0,.327.478,3.161,3.161,0,0,0,.635.214q.409.1.724.2t.61.226a3.955,3.955,0,0,1,.636.352A1.574,1.574,0,0,1,71.275,293.156Z" transform="translate(-20.028 -255.409)"/>
        <path id="Trazado_55417" data-name="Trazado 55417" d="M79.726,294.257a3.667,3.667,0,0,1-5.033,0,3.479,3.479,0,0,1,0-4.9,3.667,3.667,0,0,1,5.033,0,3.481,3.481,0,0,1,0,4.9Zm-4.033-.869a2.187,2.187,0,0,0,3.032,0,2.384,2.384,0,0,0,0-3.158,2.19,2.19,0,0,0-3.032,0,2.386,2.386,0,0,0,0,3.158Z" transform="translate(-21.283 -255.409)"/>
        <path id="Trazado_55418" data-name="Trazado 55418" d="M88.644,293.156a1.884,1.884,0,0,1-.691,1.528,2.7,2.7,0,0,1-1.775.573,4.75,4.75,0,0,1-1.516-.264,4.553,4.553,0,0,1-1.39-.742l.679-1.095a3.793,3.793,0,0,0,2.264.881,1.181,1.181,0,0,0,.755-.221.685.685,0,0,0,.277-.56q0-.5-1.334-.906a1.532,1.532,0,0,0-.151-.05q-2.089-.566-2.088-1.887a1.792,1.792,0,0,1,.723-1.491,2.986,2.986,0,0,1,1.881-.559,3.911,3.911,0,0,1,2.188.679l-.528,1.044a3.151,3.151,0,0,0-1.774-.541,1.621,1.621,0,0,0-.817.182.593.593,0,0,0-.315.548.5.5,0,0,0,.326.478,3.172,3.172,0,0,0,.636.214q.409.1.723.2t.611.226a3.949,3.949,0,0,1,.635.352A1.574,1.574,0,0,1,88.644,293.156Z" transform="translate(-22.828 -255.409)"/>
      </g>
      <g id="Grupo_23782" data-name="Grupo 23782" transform="translate(497.594 208.929)">
        <path id="Trazado_55419" data-name="Trazado 55419" d="M593.213,249.977H594.7v8.795h-1.485Z" transform="translate(-593.213 -249.222)"/>
        <path id="Trazado_55420" data-name="Trazado 55420" d="M598.987,255.533v3.624h-1.409v-6.694h1.409v1.22a2.628,2.628,0,0,1,4.058-.629,2.694,2.694,0,0,1,.7,2v4.1h-1.409v-3.674q0-1.85-1.534-1.85a1.844,1.844,0,0,0-1.272.484A1.8,1.8,0,0,0,598.987,255.533Z" transform="translate(-593.917 -249.607)"/>
        <path id="Trazado_55421" data-name="Trazado 55421" d="M608.83,251.387v.554h1.761v1.132H608.83v5.561h-1.409v-5.561h-.843V251.94h.843v-.516a2.248,2.248,0,0,1,.635-1.68,2.117,2.117,0,0,1,1.535-.622,2.4,2.4,0,0,1,1.642.667l-.579.994a1.2,1.2,0,0,0-.868-.44.893.893,0,0,0-.7.283A1.106,1.106,0,0,0,608.83,251.387Z" transform="translate(-595.367 -249.084)"/>
        <path id="Trazado_55422" data-name="Trazado 55422" d="M618.3,258.257a3.667,3.667,0,0,1-5.033,0,3.479,3.479,0,0,1,0-4.9,3.667,3.667,0,0,1,5.033,0,3.479,3.479,0,0,1,0,4.9Zm-4.033-.869a2.188,2.188,0,0,0,3.032,0,2.384,2.384,0,0,0,0-3.158,2.19,2.19,0,0,0-3.032,0,2.386,2.386,0,0,0,0,3.158Z" transform="translate(-596.284 -249.607)"/>
        <path id="Trazado_55423" data-name="Trazado 55423" d="M626.078,253.784a1.87,1.87,0,0,0-1.573.679,2.9,2.9,0,0,0-.528,1.824v2.869h-1.41v-6.694h1.41v1.346a2.915,2.915,0,0,1,.924-1.032,2.229,2.229,0,0,1,1.24-.415l.013,1.422Z" transform="translate(-597.945 -249.607)"/>
        <path id="Trazado_55424" data-name="Trazado 55424" d="M629.932,255.533v3.624h-1.409v-6.694h1.409v1.22a2.235,2.235,0,0,1,.913-.969,2.582,2.582,0,0,1,1.314-.352,2.128,2.128,0,0,1,2.152,1.309,3,3,0,0,1,2.479-1.309,2.49,2.49,0,0,1,1.831.692,2.694,2.694,0,0,1,.7,2v4.1h-1.409v-3.674q0-1.85-1.535-1.85a1.859,1.859,0,0,0-1.251.459,1.738,1.738,0,0,0-.56,1.34v3.724h-1.409v-3.674a2.328,2.328,0,0,0-.34-1.4,1.259,1.259,0,0,0-1.07-.446,1.843,1.843,0,0,0-1.271.484A1.8,1.8,0,0,0,629.932,255.533Z" transform="translate(-598.905 -249.607)"/>
        <path id="Trazado_55425" data-name="Trazado 55425" d="M649.059,259.156h-1.283v-.893a2.753,2.753,0,0,1-2.227.994,2.554,2.554,0,0,1-1.73-.591,1.977,1.977,0,0,1-.686-1.579,1.662,1.662,0,0,1,.73-1.479,3.5,3.5,0,0,1,1.975-.491h1.824v-.252q0-1.334-1.485-1.334a3.481,3.481,0,0,0-1.938.679l-.629-.881a4.334,4.334,0,0,1,2.768-.969,3.006,3.006,0,0,1,1.932.6,2.266,2.266,0,0,1,.748,1.881Zm-1.409-2.491V256.1h-1.585q-1.522,0-1.522.956a.852.852,0,0,0,.377.749,1.846,1.846,0,0,0,1.051.258,1.907,1.907,0,0,0,1.176-.377A1.208,1.208,0,0,0,647.65,256.665Z" transform="translate(-601.26 -249.607)"/>
        <path id="Trazado_55426" data-name="Trazado 55426" d="M655.423,259.257a3.38,3.38,0,0,1-2.4-.95,3.532,3.532,0,0,1,.044-4.983,3.657,3.657,0,0,1,2.561-.962,3.474,3.474,0,0,1,2.554,1.044l-.83,1.019a2.672,2.672,0,0,0-1.749-.755,2.2,2.2,0,0,0-1.529.585,1.938,1.938,0,0,0-.648,1.509,2.191,2.191,0,0,0,2.22,2.209,2.453,2.453,0,0,0,1.768-.856l.83.906A3.852,3.852,0,0,1,655.423,259.257Z" transform="translate(-602.691 -249.607)"/>
        <path id="Trazado_55427" data-name="Trazado 55427" d="M661.231,250.6a.881.881,0,1,1,.629.264A.859.859,0,0,1,661.231,250.6Zm1.321,8.027h-1.409v-6.694h1.409Z" transform="translate(-604.134 -249.077)"/>
        <path id="Trazado_55428" data-name="Trazado 55428" d="M670.8,257.762a3.667,3.667,0,0,1-5.033,0,3.479,3.479,0,0,1,0-4.9,3.667,3.667,0,0,1,5.033,0,3.479,3.479,0,0,1,0,4.9Zm-4.032-.869a2.187,2.187,0,0,0,3.032,0,2.386,2.386,0,0,0,0-3.158,2.19,2.19,0,0,0-3.032,0,2.384,2.384,0,0,0,0,3.158Zm2.157-5.781h-1.283l1.334-1.824,1.485.617Z" transform="translate(-604.746 -249.111)"/>
        <path id="Trazado_55429" data-name="Trazado 55429" d="M676.476,255.533v3.624h-1.409v-6.694h1.409v1.22a2.628,2.628,0,0,1,4.058-.629,2.694,2.694,0,0,1,.7,2v4.1h-1.409v-3.674q0-1.85-1.535-1.85a1.843,1.843,0,0,0-1.271.484A1.8,1.8,0,0,0,676.476,255.533Z" transform="translate(-606.407 -249.607)"/>
        <path id="Trazado_55430" data-name="Trazado 55430" d="M616.558,267.977v1.4h-4.693V271.7h4.215v1.321h-4.215v2.353h4.844v1.4H610.38v-8.795Z" transform="translate(-595.98 -252.123)"/>
        <path id="Trazado_55431" data-name="Trazado 55431" d="M621.359,273.533v3.624H619.95v-6.694h1.409v1.22a2.628,2.628,0,0,1,4.058-.629,2.694,2.694,0,0,1,.7,2v4.1h-1.409v-3.674q0-1.85-1.534-1.85a1.845,1.845,0,0,0-1.272.484A1.8,1.8,0,0,0,621.359,273.533Z" transform="translate(-597.523 -252.508)"/>
        <path id="Trazado_55432" data-name="Trazado 55432" d="M635.786,274.426h-5.247a1.523,1.523,0,0,0,.668,1.176,2.59,2.59,0,0,0,3.321-.346l.805.881a3.743,3.743,0,0,1-2.818,1.12,3.354,3.354,0,0,1-2.4-.938,3.3,3.3,0,0,1-.988-2.516,3.252,3.252,0,0,1,1.007-2.51,3.379,3.379,0,0,1,2.372-.931,3.433,3.433,0,0,1,2.321.824,2.841,2.841,0,0,1,.956,2.272Zm-5.247-1.107h3.838a1.613,1.613,0,0,0-.528-1.3,1.929,1.929,0,0,0-1.3-.453,2.23,2.23,0,0,0-1.391.471A1.524,1.524,0,0,0,630.539,273.319Z" transform="translate(-599.002 -252.508)"/>
        <path id="Trazado_55433" data-name="Trazado 55433" d="M642.42,271.784a1.87,1.87,0,0,0-1.573.679,2.894,2.894,0,0,0-.528,1.824v2.869H638.91v-6.694h1.409v1.346a2.918,2.918,0,0,1,.925-1.032,2.227,2.227,0,0,1,1.239-.415l.013,1.422Z" transform="translate(-600.579 -252.508)"/>
        <path id="Trazado_55434" data-name="Trazado 55434" d="M650.976,270.463V276.3a3.443,3.443,0,0,1-.963,2.661,3.5,3.5,0,0,1-2.472.887,4.353,4.353,0,0,1-2.73-.944l.667-1.069a3.267,3.267,0,0,0,1.981.742,2.311,2.311,0,0,0,1.585-.516,2.092,2.092,0,0,0,.585-1.648v-.856a2.4,2.4,0,0,1-.9.944,2.5,2.5,0,0,1-1.314.352,2.841,2.841,0,0,1-2.189-.931,3.56,3.56,0,0,1,0-4.63,2.833,2.833,0,0,1,2.183-.931,2.588,2.588,0,0,1,2.158,1.095v-.994Zm-5.222,3.089a2.115,2.115,0,0,0,.51,1.422,1.707,1.707,0,0,0,1.371.6,1.812,1.812,0,0,0,1.4-.579,2.038,2.038,0,0,0,.535-1.441,2.1,2.1,0,0,0-.541-1.46,1.8,1.8,0,0,0-1.4-.6,1.678,1.678,0,0,0-1.365.617A2.189,2.189,0,0,0,645.754,273.551Z" transform="translate(-601.459 -252.508)"/>
        <path id="Trazado_55435" data-name="Trazado 55435" d="M654.675,269.979h1.409v6.694h-1.409Zm1.371-.856h-1.183l1.334-1.762,1.384.617Z" transform="translate(-603.12 -252.024)"/>
        <path id="Trazado_55436" data-name="Trazado 55436" d="M664.111,277.156h-1.283v-.893a2.753,2.753,0,0,1-2.227.994,2.552,2.552,0,0,1-1.73-.591,1.977,1.977,0,0,1-.686-1.579,1.662,1.662,0,0,1,.73-1.479,3.5,3.5,0,0,1,1.975-.491h1.824v-.252q0-1.334-1.485-1.334a3.481,3.481,0,0,0-1.938.679l-.629-.881a4.334,4.334,0,0,1,2.768-.969,3,3,0,0,1,1.931.6,2.264,2.264,0,0,1,.749,1.881Zm-1.409-2.491V274.1h-1.585q-1.522,0-1.522.956a.852.852,0,0,0,.377.749,1.843,1.843,0,0,0,1.05.258,1.908,1.908,0,0,0,1.177-.377A1.208,1.208,0,0,0,662.7,274.665Z" transform="translate(-603.686 -252.508)"/>
        <path id="Trazado_55437" data-name="Trazado 55437" d="M611.409,288.833a2.553,2.553,0,0,1-1.9,2.743l2.3,3.2h-1.887l-2.1-2.957h-1.949v2.957h-1.485v-8.795h3.271a4.739,4.739,0,0,1,2.881.679A2.594,2.594,0,0,1,611.409,288.833Zm-1.975,1.246a1.569,1.569,0,0,0,.452-1.252,1.341,1.341,0,0,0-.465-1.183,3.1,3.1,0,0,0-1.661-.32h-1.887v3.146h1.85A2.722,2.722,0,0,0,609.433,290.079Z" transform="translate(-595.014 -255.025)"/>
        <path id="Trazado_55438" data-name="Trazado 55438" d="M621.214,292.426h-5.248a1.525,1.525,0,0,0,.668,1.176,2.591,2.591,0,0,0,3.322-.346l.805.881a3.744,3.744,0,0,1-2.818,1.12,3.356,3.356,0,0,1-2.4-.938,3.3,3.3,0,0,1-.987-2.516,3.255,3.255,0,0,1,1.006-2.51,3.381,3.381,0,0,1,2.372-.931,3.437,3.437,0,0,1,2.322.824,2.843,2.843,0,0,1,.956,2.272Zm-5.248-1.107H619.8a1.613,1.613,0,0,0-.528-1.3,1.932,1.932,0,0,0-1.3-.453,2.226,2.226,0,0,0-1.39.471A1.523,1.523,0,0,0,615.966,291.319Z" transform="translate(-596.654 -255.409)"/>
        <path id="Trazado_55439" data-name="Trazado 55439" d="M627.223,295.257a3.38,3.38,0,0,1-2.4-.95,3.532,3.532,0,0,1,.044-4.983,3.657,3.657,0,0,1,2.561-.962,3.476,3.476,0,0,1,2.554,1.044l-.831,1.019a2.671,2.671,0,0,0-1.749-.755,2.2,2.2,0,0,0-1.528.585,1.938,1.938,0,0,0-.648,1.509,2.19,2.19,0,0,0,2.22,2.209,2.455,2.455,0,0,0,1.768-.856l.83.906A3.852,3.852,0,0,1,627.223,295.257Z" transform="translate(-598.145 -255.409)"/>
        <path id="Trazado_55440" data-name="Trazado 55440" d="M637.643,292.106v-3.624h1.409v6.694h-1.409v-1.22a2.627,2.627,0,0,1-4.057.629,2.694,2.694,0,0,1-.7-2v-4.1H634.3v3.674q0,1.85,1.535,1.85a1.844,1.844,0,0,0,1.271-.485A1.8,1.8,0,0,0,637.643,292.106Z" transform="translate(-599.608 -255.429)"/>
        <path id="Trazado_55441" data-name="Trazado 55441" d="M646.177,289.784a1.87,1.87,0,0,0-1.573.679,2.894,2.894,0,0,0-.528,1.824v2.869h-1.409v-6.694h1.409v1.346a2.917,2.917,0,0,1,.925-1.032,2.226,2.226,0,0,1,1.239-.415l.013,1.422Z" transform="translate(-601.184 -255.409)"/>
        <path id="Trazado_55442" data-name="Trazado 55442" d="M653.275,293.156a1.882,1.882,0,0,1-.692,1.528,2.691,2.691,0,0,1-1.774.573,4.755,4.755,0,0,1-1.517-.264,4.554,4.554,0,0,1-1.39-.742l.679-1.095a3.8,3.8,0,0,0,2.265.881,1.181,1.181,0,0,0,.755-.221.685.685,0,0,0,.277-.56q0-.5-1.334-.906a1.54,1.54,0,0,0-.151-.05q-2.09-.566-2.089-1.887a1.792,1.792,0,0,1,.723-1.491,2.986,2.986,0,0,1,1.881-.559,3.913,3.913,0,0,1,2.189.679l-.529,1.044a3.155,3.155,0,0,0-1.774-.541,1.627,1.627,0,0,0-.818.182.594.594,0,0,0-.315.548.5.5,0,0,0,.327.478,3.16,3.16,0,0,0,.635.214q.409.1.724.2t.61.226a3.957,3.957,0,0,1,.636.352A1.574,1.574,0,0,1,653.275,293.156Z" transform="translate(-602.028 -255.409)"/>
        <path id="Trazado_55443" data-name="Trazado 55443" d="M661.726,294.257a3.667,3.667,0,0,1-5.033,0,3.479,3.479,0,0,1,0-4.9,3.667,3.667,0,0,1,5.033,0,3.481,3.481,0,0,1,0,4.9Zm-4.033-.869a2.188,2.188,0,0,0,3.032,0,2.384,2.384,0,0,0,0-3.158,2.19,2.19,0,0,0-3.032,0,2.386,2.386,0,0,0,0,3.158Z" transform="translate(-603.283 -255.409)"/>
        <path id="Trazado_55444" data-name="Trazado 55444" d="M670.644,293.156a1.884,1.884,0,0,1-.691,1.528,2.7,2.7,0,0,1-1.775.573,4.75,4.75,0,0,1-1.516-.264,4.555,4.555,0,0,1-1.39-.742l.679-1.095a3.793,3.793,0,0,0,2.264.881,1.181,1.181,0,0,0,.755-.221.685.685,0,0,0,.277-.56q0-.5-1.334-.906a1.534,1.534,0,0,0-.151-.05q-2.089-.566-2.088-1.887a1.792,1.792,0,0,1,.723-1.491,2.986,2.986,0,0,1,1.881-.559,3.911,3.911,0,0,1,2.188.679l-.528,1.044a3.151,3.151,0,0,0-1.774-.541,1.621,1.621,0,0,0-.817.182.592.592,0,0,0-.315.548.5.5,0,0,0,.326.478,3.173,3.173,0,0,0,.636.214q.409.1.723.2t.611.226a3.95,3.95,0,0,1,.635.352A1.574,1.574,0,0,1,670.644,293.156Z" transform="translate(-604.828 -255.409)"/>
      </g>
      <ellipse id="Elipse_920" data-name="Elipse 920" cx="64.169" cy="58.717" rx="64.169" ry="58.717" transform="translate(147.577 152.351)" fill="url(#linear-gradient-3)"/>
      <g id="Grupo_23783" data-name="Grupo 23783" transform="translate(248.907 32.303)">
        <path id="Trazado_55445" data-name="Trazado 55445" d="M304.311,41.212a6.417,6.417,0,0,0-1.92-.347,2.68,2.68,0,0,0-1.466.347,1.087,1.087,0,0,0-.54.965,1.266,1.266,0,0,0,.377.935,2.938,2.938,0,0,0,.945.617,14.883,14.883,0,0,0,1.553.531,17.047,17.047,0,0,1,2.247.809,4.017,4.017,0,0,1,1.5,1.2,3.3,3.3,0,0,1,.617,2.084,3.566,3.566,0,0,1-.665,2.151,4.168,4.168,0,0,1-1.833,1.4,6.956,6.956,0,0,1-2.672.482,8.4,8.4,0,0,1-3.087-.589,8.75,8.75,0,0,1-2.624-1.572l1.08-2.2a7.88,7.88,0,0,0,2.3,1.485,6.1,6.1,0,0,0,2.373.541,3.011,3.011,0,0,0,1.7-.415,1.365,1.365,0,0,0,.241-2.084,2.776,2.776,0,0,0-.955-.607q-.579-.232-1.582-.521a18.51,18.51,0,0,1-2.238-.792,3.883,3.883,0,0,1-1.486-1.167,3.215,3.215,0,0,1-.617-2.054,3.442,3.442,0,0,1,.627-2.055,4.036,4.036,0,0,1,1.774-1.36,6.812,6.812,0,0,1,2.653-.482,8.948,8.948,0,0,1,2.594.386,8.774,8.774,0,0,1,2.287,1.042L306.442,42.2A9.794,9.794,0,0,0,304.311,41.212Z" transform="translate(-296.738 -38.511)" fill="#8b4488"/>
        <path id="Trazado_55446" data-name="Trazado 55446" d="M312.631,38.764h2.585v13.5h-2.585Z" transform="translate(-299.3 -38.552)" fill="#8b4488"/>
        <path id="Trazado_55447" data-name="Trazado 55447" d="M325.793,41.212a6.417,6.417,0,0,0-1.92-.347,2.68,2.68,0,0,0-1.466.347,1.087,1.087,0,0,0-.54.965,1.266,1.266,0,0,0,.377.935,2.938,2.938,0,0,0,.945.617,14.886,14.886,0,0,0,1.553.531,17.047,17.047,0,0,1,2.247.809,4.018,4.018,0,0,1,1.5,1.2,3.3,3.3,0,0,1,.617,2.084,3.562,3.562,0,0,1-.666,2.151,4.159,4.159,0,0,1-1.833,1.4,6.949,6.949,0,0,1-2.672.482,8.4,8.4,0,0,1-3.087-.589,8.75,8.75,0,0,1-2.624-1.572l1.08-2.2a7.881,7.881,0,0,0,2.3,1.485,6.1,6.1,0,0,0,2.373.541,3.011,3.011,0,0,0,1.7-.415,1.365,1.365,0,0,0,.241-2.084,2.784,2.784,0,0,0-.955-.607q-.579-.232-1.582-.521a18.507,18.507,0,0,1-2.238-.792,3.883,3.883,0,0,1-1.486-1.167,3.215,3.215,0,0,1-.617-2.054,3.442,3.442,0,0,1,.627-2.055,4.035,4.035,0,0,1,1.774-1.36,6.809,6.809,0,0,1,2.653-.482,8.952,8.952,0,0,1,2.594.386,8.787,8.787,0,0,1,2.287,1.042L327.924,42.2A9.794,9.794,0,0,0,325.793,41.212Z" transform="translate(-300.201 -38.511)" fill="#8b4488"/>
        <path id="Trazado_55448" data-name="Trazado 55448" d="M332.319,38.764h11.016v2.3h-4.206V52.269h-2.6V41.06h-4.206Z" transform="translate(-302.473 -38.552)" fill="#8b4488"/>
        <path id="Trazado_55449" data-name="Trazado 55449" d="M347.637,38.764h9.9V41.02h-7.312v3.338h6.56v2.258h-6.56v3.4h7.543v2.257H347.637Z" transform="translate(-304.942 -38.552)" fill="#8b4488"/>
        <path id="Trazado_55450" data-name="Trazado 55450" d="M362.839,38.764h2.952l4.476,8.7,4.437-8.7h2.952v13.5h-2.372V42.584l-4.207,8.3h-1.658l-4.225-8.3v9.685h-2.355Z" transform="translate(-307.393 -38.552)" fill="#8b4488"/>
        <path id="Trazado_55451" data-name="Trazado 55451" d="M394.13,52.269l-1.2-2.855h-6.6l-1.2,2.855h-2.682l5.924-13.5h2.682l5.846,13.5Zm-6.867-5.074h4.746l-2.355-5.672Z" transform="translate(-310.555 -38.552)" fill="#8b4488"/>
      </g>
      <rect id="Rectángulo_7770" data-name="Rectángulo 7770" width="121.628" height="30.197" transform="translate(183.646 70.148)" fill="url(#linear-gradient-5)"/>
      <g id="Grupo_23785" data-name="Grupo 23785" transform="translate(205.78 80.854)">
        <g id="Grupo_23784" data-name="Grupo 23784">
          <path id="Trazado_55452" data-name="Trazado 55452" d="M249.587,103.167a2.7,2.7,0,0,0,2.208-1.069l1.174,1.21a4.43,4.43,0,0,1-6.418.376,4.339,4.339,0,0,1,.023-6.071,4.21,4.21,0,0,1,3.059-1.221,4.336,4.336,0,0,1,3.382,1.538l-1.139,1.292a2.669,2.669,0,0,0-2.161-1.08,2.517,2.517,0,0,0-1.767.675,2.354,2.354,0,0,0-.734,1.82,2.483,2.483,0,0,0,.693,1.838A2.286,2.286,0,0,0,249.587,103.167Z" transform="translate(-245.324 -96.391)" fill="#fff"/>
          <path id="Trazado_55453" data-name="Trazado 55453" d="M261.9,102.008a3.125,3.125,0,0,1-.951,2.313,3.509,3.509,0,0,1-4.78,0,3.3,3.3,0,0,1,0-4.633,3.493,3.493,0,0,1,4.78,0A3.143,3.143,0,0,1,261.9,102.008Zm-4.909,0a1.81,1.81,0,0,0,.44,1.262,1.548,1.548,0,0,0,2.255,0,1.81,1.81,0,0,0,.44-1.262,1.833,1.833,0,0,0-.44-1.268,1.535,1.535,0,0,0-2.255,0A1.833,1.833,0,0,0,257,102.008Z" transform="translate(-246.919 -96.77)" fill="#fff"/>
          <path id="Trazado_55454" data-name="Trazado 55454" d="M270.543,101.761v3.406H268.77v-3.453a2.071,2.071,0,0,0-.229-1.1.817.817,0,0,0-.74-.352,1.263,1.263,0,0,0-.9.382,1.491,1.491,0,0,0-.393,1.121v3.406h-1.762V98.849H266.5v.716a2.18,2.18,0,0,1,1.668-.822,1.81,1.81,0,0,1,1.086.352,2.3,2.3,0,0,1,.734.857,2.474,2.474,0,0,1,.981-.892,2.685,2.685,0,0,1,1.239-.317,2.465,2.465,0,0,1,1.8.664,2.56,2.56,0,0,1,.681,1.92v3.84h-1.773v-3.453q0-1.456-1.069-1.456a1.263,1.263,0,0,0-.916.382A1.506,1.506,0,0,0,270.543,101.761Z" transform="translate(-248.454 -96.77)" fill="#fff"/>
          <path id="Trazado_55455" data-name="Trazado 55455" d="M282.18,98.743a2.631,2.631,0,0,1,1.967.922,3.261,3.261,0,0,1,.863,2.319,3.324,3.324,0,0,1-.863,2.337,2.663,2.663,0,0,1-2.02.939,2.225,2.225,0,0,1-1.861-.928v3.112H278.5v-8.6h1.762v.7A2.616,2.616,0,0,1,282.18,98.743Zm-1.938,3.271a1.831,1.831,0,0,0,.429,1.257,1.334,1.334,0,0,0,1.039.487,1.425,1.425,0,0,0,1.069-.487,1.752,1.752,0,0,0,.458-1.251,1.892,1.892,0,0,0-.446-1.28,1.366,1.366,0,0,0-1.069-.517,1.321,1.321,0,0,0-1.051.511A1.922,1.922,0,0,0,280.242,102.014Z" transform="translate(-250.672 -96.77)" fill="#fff"/>
          <path id="Trazado_55456" data-name="Trazado 55456" d="M294.075,102.008a3.124,3.124,0,0,1-.95,2.313,3.51,3.51,0,0,1-4.78,0,3.3,3.3,0,0,1,0-4.633,3.494,3.494,0,0,1,4.78,0A3.142,3.142,0,0,1,294.075,102.008Zm-4.909,0a1.811,1.811,0,0,0,.441,1.262,1.548,1.548,0,0,0,2.255,0,1.814,1.814,0,0,0,.44-1.262,1.837,1.837,0,0,0-.44-1.268,1.535,1.535,0,0,0-2.255,0A1.833,1.833,0,0,0,289.166,102.008Z" transform="translate(-252.105 -96.77)" fill="#fff"/>
          <path id="Trazado_55457" data-name="Trazado 55457" d="M298.676,101.644v3.523h-1.762V98.849h1.762v.7a2.464,2.464,0,0,1,1.8-.81,2.223,2.223,0,0,1,1.673.7,2.6,2.6,0,0,1,.676,1.879v3.84h-1.762V101.6q0-1.456-1.069-1.456a1.282,1.282,0,0,0-.923.382A1.491,1.491,0,0,0,298.676,101.644Z" transform="translate(-253.64 -96.77)" fill="#fff"/>
          <path id="Trazado_55458" data-name="Trazado 55458" d="M311.264,104.251a3.531,3.531,0,0,1-2.507,1.01,3.327,3.327,0,0,1-2.378-.887A3.117,3.117,0,0,1,305.44,102a3.064,3.064,0,0,1,.956-2.372,3.228,3.228,0,0,1,2.261-.881,3.269,3.269,0,0,1,2.214.787,2.7,2.7,0,0,1,.91,2.161v.939h-4.6a1.261,1.261,0,0,0,.54.846,1.731,1.731,0,0,0,1.033.329,2.024,2.024,0,0,0,1.527-.622Zm-1.691-3.746a1.331,1.331,0,0,0-.887-.305,1.589,1.589,0,0,0-.957.317,1.214,1.214,0,0,0-.505.857H310A1.251,1.251,0,0,0,309.573,100.5Z" transform="translate(-255.014 -96.77)" fill="#fff"/>
          <path id="Trazado_55459" data-name="Trazado 55459" d="M316.273,101.644v3.523h-1.761V98.849h1.761v.7a2.467,2.467,0,0,1,1.8-.81,2.225,2.225,0,0,1,1.673.7,2.6,2.6,0,0,1,.675,1.879v3.84h-1.762V101.6q0-1.456-1.068-1.456a1.28,1.28,0,0,0-.922.382A1.492,1.492,0,0,0,316.273,101.644Z" transform="translate(-256.476 -96.77)" fill="#fff"/>
          <path id="Trazado_55460" data-name="Trazado 55460" d="M325.369,99.774v2.83a.815.815,0,0,0,.187.57.587.587,0,0,0,.446.206,1.02,1.02,0,0,0,.835-.446l.658,1.233a2.546,2.546,0,0,1-1.733.752,2.1,2.1,0,0,1-2.167-2.231V99.774h-.739V98.506h.739V96.615h1.774v1.891H326.9v1.268Z" transform="translate(-257.821 -96.427)" fill="#fff"/>
          <path id="Trazado_55461" data-name="Trazado 55461" d="M334.91,104.251a3.528,3.528,0,0,1-2.506,1.01,3.325,3.325,0,0,1-2.378-.887,3.115,3.115,0,0,1-.939-2.378,3.065,3.065,0,0,1,.957-2.372,3.227,3.227,0,0,1,2.261-.881,3.271,3.271,0,0,1,2.214.787,2.707,2.707,0,0,1,.91,2.161v.939h-4.6a1.258,1.258,0,0,0,.54.846,1.729,1.729,0,0,0,1.033.329,2.026,2.026,0,0,0,1.527-.622Zm-1.69-3.746a1.332,1.332,0,0,0-.887-.305,1.59,1.59,0,0,0-.958.317,1.216,1.216,0,0,0-.5.857h2.771A1.251,1.251,0,0,0,333.22,100.5Z" transform="translate(-258.826 -96.77)" fill="#fff"/>
        </g>
      </g>
      <g id="Grupo_23787" data-name="Grupo 23787" transform="translate(173.671 205.338)">
        <g id="Grupo_23786" data-name="Grupo 23786">
          <path id="Trazado_55462" data-name="Trazado 55462" d="M207.044,252.265l1.748-.206q.294,2.071,1.931,2.071a1.821,1.821,0,0,0,1.276-.424,1.364,1.364,0,0,0,.464-1.05,1.153,1.153,0,0,0-.162-.627,1.2,1.2,0,0,0-.494-.424,14.007,14.007,0,0,0-1.607-.556,5.411,5.411,0,0,1-1.673-.751,2.835,2.835,0,0,1-.844-1.064,3.26,3.26,0,0,1-.314-1.418,3.166,3.166,0,0,1,.4-1.591,2.635,2.635,0,0,1,1.11-1.069,3.827,3.827,0,0,1,1.747-.361A3.072,3.072,0,0,1,214,248.07l-1.792.1a1.933,1.933,0,0,0-.509-1.216,1.621,1.621,0,0,0-1.113-.346,1.788,1.788,0,0,0-1.113.3.915.915,0,0,0-.391.75.936.936,0,0,0,.355.742,5.036,5.036,0,0,0,1.63.663,6.67,6.67,0,0,1,1.949.822,2.793,2.793,0,0,1,.917,1.113,3.9,3.9,0,0,1,.317,1.655,3.4,3.4,0,0,1-.866,2.365,3.479,3.479,0,0,1-2.709.958Q207.413,255.972,207.044,252.265Z" transform="translate(-207.044 -244.796)" fill="#fff"/>
          <path id="Trazado_55463" data-name="Trazado 55463" d="M221.617,256.4v-1.171a2.682,2.682,0,0,1-.927,1,2.225,2.225,0,0,1-1.2.359,1.962,1.962,0,0,1-1.88-1.276,4.975,4.975,0,0,1-.247-1.779v-4.958h1.7v3.6a14.575,14.575,0,0,0,.077,1.957,1.074,1.074,0,0,0,.342.645.942.942,0,0,0,.639.229,1.206,1.206,0,0,0,.786-.3,1.4,1.4,0,0,0,.475-.767,11.293,11.293,0,0,0,.114-2.061v-3.3h1.7V256.4Z" transform="translate(-208.707 -245.404)" fill="#fff"/>
          <path id="Trazado_55464" data-name="Trazado 55464" d="M226.336,255.824V245.016h1.7V248.9a2.828,2.828,0,0,1,.857-.819,1.958,1.958,0,0,1,1-.273,2.341,2.341,0,0,1,1.918,1.027,4.936,4.936,0,0,1,.783,3.028,5.059,5.059,0,0,1-.8,3.068,2.319,2.319,0,0,1-1.885,1.075,2.011,2.011,0,0,1-1.09-.342,2.832,2.832,0,0,1-.913-.991v1.15Zm1.689-4.085a4.769,4.769,0,0,0,.192,1.545,1.744,1.744,0,0,0,.545.81,1.191,1.191,0,0,0,.745.277,1.145,1.145,0,0,0,.958-.587,3.383,3.383,0,0,0,.4-1.86,3.555,3.555,0,0,0-.4-1.933,1.2,1.2,0,0,0-1.021-.6,1.208,1.208,0,0,0-1,.576A3.055,3.055,0,0,0,228.025,251.739Z" transform="translate(-210.154 -244.831)" fill="#fff"/>
          <path id="Trazado_55465" data-name="Trazado 55465" d="M234.739,254.134l1.7-.316a1.3,1.3,0,0,0,1.371,1.231,1.473,1.473,0,0,0,.914-.236.741.741,0,0,0,.3-.612.587.587,0,0,0-.133-.406,1.222,1.222,0,0,0-.554-.258,7.528,7.528,0,0,1-2.66-1.059,2.182,2.182,0,0,1-.708-1.721,2.3,2.3,0,0,1,.693-1.751,2.816,2.816,0,0,1,2.013-.658,3.168,3.168,0,0,1,1.917.491,2.673,2.673,0,0,1,.921,1.581l-1.6.361a1.113,1.113,0,0,0-1.209-.944,1.645,1.645,0,0,0-.893.181.547.547,0,0,0-.265.469.509.509,0,0,0,.243.429,6.791,6.791,0,0,0,1.51.535,4.143,4.143,0,0,1,1.932.971,2.2,2.2,0,0,1,.5,1.512,2.471,2.471,0,0,1-.778,1.874,2.993,2.993,0,0,1-2.149.737,3.213,3.213,0,0,1-2.035-.615A2.962,2.962,0,0,1,234.739,254.134Z" transform="translate(-211.508 -245.368)" fill="#fff"/>
          <path id="Trazado_55466" data-name="Trazado 55466" d="M243.66,246.933v-1.917h1.7v1.917Zm0,8.891v-7.829h1.7v7.829Z" transform="translate(-212.946 -244.831)" fill="#fff"/>
          <path id="Trazado_55467" data-name="Trazado 55467" d="M247.052,254.134l1.7-.316a1.3,1.3,0,0,0,1.371,1.231,1.469,1.469,0,0,0,.914-.236.742.742,0,0,0,.3-.612.583.583,0,0,0-.133-.406,1.223,1.223,0,0,0-.554-.258,7.528,7.528,0,0,1-2.66-1.059,2.184,2.184,0,0,1-.707-1.721,2.3,2.3,0,0,1,.693-1.751,2.813,2.813,0,0,1,2.012-.658,3.166,3.166,0,0,1,1.917.491,2.674,2.674,0,0,1,.922,1.581l-1.6.361a1.114,1.114,0,0,0-1.21-.944,1.642,1.642,0,0,0-.892.181.548.548,0,0,0-.266.469.509.509,0,0,0,.243.429,6.787,6.787,0,0,0,1.511.535,4.147,4.147,0,0,1,1.932.971,2.2,2.2,0,0,1,.5,1.512,2.469,2.469,0,0,1-.778,1.874,2.994,2.994,0,0,1-2.149.737,3.21,3.21,0,0,1-2.034-.615A2.967,2.967,0,0,1,247.052,254.134Z" transform="translate(-213.493 -245.368)" fill="#fff"/>
          <path id="Trazado_55468" data-name="Trazado 55468" d="M258.771,248.036v1.652h-1.158v3.16a6.92,6.92,0,0,0,.052,1.189.408.408,0,0,0,.42.3,1.826,1.826,0,0,0,.678-.2l.148,1.607a2.829,2.829,0,0,1-1.335.309,1.628,1.628,0,0,1-1.039-.309,1.53,1.53,0,0,1-.523-.893,9.2,9.2,0,0,1-.1-1.741v-3.417h-.782v-1.652h.782V246.48l1.7-1.209v2.765Z" transform="translate(-214.795 -244.873)" fill="#fff"/>
          <path id="Trazado_55469" data-name="Trazado 55469" d="M264.522,253.876l1.688.346a3.345,3.345,0,0,1-1.055,1.751,2.705,2.705,0,0,1-1.742.571,2.671,2.671,0,0,1-2.2-.952,4.738,4.738,0,0,1-.916-3.1,4.979,4.979,0,0,1,.922-3.146,2.452,2.452,0,0,1,2.02-1,2.57,2.57,0,0,1,2.16,1.019,5.566,5.566,0,0,1,.9,3.441l-.008.237h-4.254a2.334,2.334,0,0,0,.418,1.443,1.2,1.2,0,0,0,.972.511Q264.248,255,264.522,253.876Zm.088-2.1a2.279,2.279,0,0,0-.391-1.381,1.094,1.094,0,0,0-.877-.462,1.107,1.107,0,0,0-.907.481,2.156,2.156,0,0,0-.368,1.362Z" transform="translate(-215.628 -245.368)" fill="#fff"/>
          <path id="Trazado_55470" data-name="Trazado 55470" d="M268.937,248.532H270.5V249.6a3.148,3.148,0,0,1,.921-.939,2.011,2.011,0,0,1,1.084-.314,1.854,1.854,0,0,1,1.073.31,2.213,2.213,0,0,1,.742.936,3.227,3.227,0,0,1,.918-.936,1.919,1.919,0,0,1,1.043-.31,2.007,2.007,0,0,1,1.132.314,1.945,1.945,0,0,1,.722.9,4.859,4.859,0,0,1,.247,1.793v5.01h-1.7V251.88a3.841,3.841,0,0,0-.206-1.56.722.722,0,0,0-.693-.388,1.047,1.047,0,0,0-.914.543,4.383,4.383,0,0,0-.346,2.121v3.765h-1.7v-4.3a5.892,5.892,0,0,0-.14-1.647.723.723,0,0,0-.745-.487,1.089,1.089,0,0,0-.693.251,1.4,1.4,0,0,0-.457.735,6.609,6.609,0,0,0-.14,1.634v3.809h-1.7Z" transform="translate(-217.02 -245.368)" fill="#fff"/>
          <path id="Trazado_55471" data-name="Trazado 55471" d="M283.4,250.913l-1.541-.34a2.993,2.993,0,0,1,.925-1.706,2.891,2.891,0,0,1,1.854-.52,3.565,3.565,0,0,1,1.644.3,1.781,1.781,0,0,1,.811.823,5.016,5.016,0,0,1,.243,1.892l-.015,2.42a10.368,10.368,0,0,0,.081,1.517,5.18,5.18,0,0,0,.3,1.059h-1.681l-.221-.856a3.154,3.154,0,0,1-.933.778,2.239,2.239,0,0,1-1.058.262,2.015,2.015,0,0,1-1.533-.631,2.341,2.341,0,0,1-.6-1.679,2.591,2.591,0,0,1,.243-1.159,1.986,1.986,0,0,1,.685-.79,4.555,4.555,0,0,1,1.416-.524,8.091,8.091,0,0,0,1.644-.509,2.5,2.5,0,0,0-.093-.856.722.722,0,0,0-.339-.334,1.523,1.523,0,0,0-.7-.129,1.135,1.135,0,0,0-.72.206A1.484,1.484,0,0,0,283.4,250.913Zm2.271,1.688a8.53,8.53,0,0,1-1.01.31,2.362,2.362,0,0,0-1.033.459.9.9,0,0,0-.243.651,1.107,1.107,0,0,0,.269.758.86.86,0,0,0,.674.306,1.239,1.239,0,0,0,.715-.247,1.322,1.322,0,0,0,.49-.588,3.777,3.777,0,0,0,.137-1.235Z" transform="translate(-219.075 -245.368)" fill="#fff"/>
        </g>
      </g>
      <rect id="Rectángulo_7771" data-name="Rectángulo 7771" width="121.628" height="30.197" transform="translate(285.142 137.253)" fill="url(#linear-gradient-5)"/>
      <g id="Grupo_23789" data-name="Grupo 23789" transform="translate(307.277 147.959)">
        <g id="Grupo_23788" data-name="Grupo 23788">
          <path id="Trazado_55472" data-name="Trazado 55472" d="M370.587,183.167a2.7,2.7,0,0,0,2.208-1.069l1.174,1.21a4.43,4.43,0,0,1-6.418.376,4.339,4.339,0,0,1,.023-6.071,4.21,4.21,0,0,1,3.059-1.221,4.336,4.336,0,0,1,3.382,1.538l-1.139,1.292a2.669,2.669,0,0,0-2.161-1.08,2.517,2.517,0,0,0-1.767.675,2.354,2.354,0,0,0-.734,1.82,2.484,2.484,0,0,0,.693,1.838A2.286,2.286,0,0,0,370.587,183.167Z" transform="translate(-366.324 -176.391)" fill="#fff"/>
          <path id="Trazado_55473" data-name="Trazado 55473" d="M382.9,182.008a3.125,3.125,0,0,1-.951,2.313,3.509,3.509,0,0,1-4.78,0,3.3,3.3,0,0,1,0-4.633,3.493,3.493,0,0,1,4.78,0A3.143,3.143,0,0,1,382.9,182.008Zm-4.909,0a1.81,1.81,0,0,0,.44,1.262,1.548,1.548,0,0,0,2.255,0,1.81,1.81,0,0,0,.44-1.262,1.833,1.833,0,0,0-.44-1.268,1.535,1.535,0,0,0-2.255,0A1.833,1.833,0,0,0,378,182.008Z" transform="translate(-367.919 -176.77)" fill="#fff"/>
          <path id="Trazado_55474" data-name="Trazado 55474" d="M391.543,181.761v3.406H389.77v-3.453a2.071,2.071,0,0,0-.229-1.1.817.817,0,0,0-.74-.352,1.263,1.263,0,0,0-.9.382,1.491,1.491,0,0,0-.393,1.121v3.406h-1.762v-6.318H387.5v.716a2.18,2.18,0,0,1,1.668-.822,1.81,1.81,0,0,1,1.086.352,2.3,2.3,0,0,1,.734.857,2.474,2.474,0,0,1,.981-.893,2.685,2.685,0,0,1,1.239-.317,2.465,2.465,0,0,1,1.8.663,2.56,2.56,0,0,1,.681,1.92v3.84h-1.773v-3.453q0-1.456-1.069-1.456a1.263,1.263,0,0,0-.916.382A1.506,1.506,0,0,0,391.543,181.761Z" transform="translate(-369.454 -176.77)" fill="#fff"/>
          <path id="Trazado_55475" data-name="Trazado 55475" d="M403.18,178.743a2.631,2.631,0,0,1,1.967.922,3.261,3.261,0,0,1,.863,2.319,3.324,3.324,0,0,1-.863,2.337,2.663,2.663,0,0,1-2.02.939,2.225,2.225,0,0,1-1.861-.928v3.112H399.5v-8.6h1.762v.7A2.616,2.616,0,0,1,403.18,178.743Zm-1.938,3.271a1.831,1.831,0,0,0,.429,1.257,1.334,1.334,0,0,0,1.039.487,1.425,1.425,0,0,0,1.069-.487,1.752,1.752,0,0,0,.458-1.251,1.892,1.892,0,0,0-.446-1.28,1.366,1.366,0,0,0-1.069-.517,1.321,1.321,0,0,0-1.051.511A1.922,1.922,0,0,0,401.242,182.014Z" transform="translate(-371.672 -176.77)" fill="#fff"/>
          <path id="Trazado_55476" data-name="Trazado 55476" d="M415.075,182.008a3.124,3.124,0,0,1-.95,2.313,3.51,3.51,0,0,1-4.78,0,3.3,3.3,0,0,1,0-4.633,3.494,3.494,0,0,1,4.78,0A3.142,3.142,0,0,1,415.075,182.008Zm-4.909,0a1.811,1.811,0,0,0,.441,1.262,1.548,1.548,0,0,0,2.255,0,1.814,1.814,0,0,0,.44-1.262,1.837,1.837,0,0,0-.44-1.268,1.535,1.535,0,0,0-2.255,0A1.833,1.833,0,0,0,410.166,182.008Z" transform="translate(-373.105 -176.77)" fill="#fff"/>
          <path id="Trazado_55477" data-name="Trazado 55477" d="M419.675,181.644v3.523h-1.762v-6.318h1.762v.7a2.464,2.464,0,0,1,1.8-.81,2.223,2.223,0,0,1,1.673.7,2.6,2.6,0,0,1,.676,1.879v3.84h-1.762V181.6q0-1.456-1.069-1.456a1.282,1.282,0,0,0-.923.382A1.491,1.491,0,0,0,419.675,181.644Z" transform="translate(-374.64 -176.77)" fill="#fff"/>
          <path id="Trazado_55478" data-name="Trazado 55478" d="M432.264,184.251a3.531,3.531,0,0,1-2.507,1.01,3.327,3.327,0,0,1-2.378-.887A3.117,3.117,0,0,1,426.44,182a3.064,3.064,0,0,1,.956-2.372,3.228,3.228,0,0,1,2.261-.881,3.269,3.269,0,0,1,2.214.787,2.7,2.7,0,0,1,.91,2.161v.939h-4.6a1.261,1.261,0,0,0,.54.846,1.731,1.731,0,0,0,1.033.329,2.024,2.024,0,0,0,1.527-.622Zm-1.691-3.746a1.331,1.331,0,0,0-.887-.305,1.589,1.589,0,0,0-.957.317,1.214,1.214,0,0,0-.5.857H431A1.251,1.251,0,0,0,430.573,180.5Z" transform="translate(-376.014 -176.77)" fill="#fff"/>
          <path id="Trazado_55479" data-name="Trazado 55479" d="M437.273,181.644v3.523h-1.761v-6.318h1.761v.7a2.467,2.467,0,0,1,1.8-.81,2.225,2.225,0,0,1,1.673.7,2.6,2.6,0,0,1,.675,1.879v3.84h-1.762V181.6q0-1.456-1.068-1.456a1.28,1.28,0,0,0-.922.382A1.492,1.492,0,0,0,437.273,181.644Z" transform="translate(-377.476 -176.77)" fill="#fff"/>
          <path id="Trazado_55480" data-name="Trazado 55480" d="M446.369,179.774v2.83a.815.815,0,0,0,.187.57.587.587,0,0,0,.446.205,1.02,1.02,0,0,0,.835-.446l.658,1.233a2.546,2.546,0,0,1-1.733.752,2.1,2.1,0,0,1-2.167-2.231v-2.912h-.739v-1.268h.739v-1.891h1.774v1.891H447.9v1.268Z" transform="translate(-378.821 -176.427)" fill="#fff"/>
          <path id="Trazado_55481" data-name="Trazado 55481" d="M455.91,184.251a3.528,3.528,0,0,1-2.506,1.01,3.325,3.325,0,0,1-2.378-.887,3.115,3.115,0,0,1-.939-2.378,3.065,3.065,0,0,1,.957-2.372,3.227,3.227,0,0,1,2.261-.881,3.271,3.271,0,0,1,2.214.787,2.707,2.707,0,0,1,.91,2.161v.939h-4.6a1.258,1.258,0,0,0,.54.846,1.729,1.729,0,0,0,1.033.329,2.026,2.026,0,0,0,1.527-.622Zm-1.69-3.746a1.332,1.332,0,0,0-.887-.305,1.59,1.59,0,0,0-.958.317,1.216,1.216,0,0,0-.5.857h2.771A1.251,1.251,0,0,0,454.22,180.5Z" transform="translate(-379.826 -176.77)" fill="#fff"/>
        </g>
      </g>
      <rect id="Rectángulo_7772" data-name="Rectángulo 7772" width="121.628" height="30.197" transform="translate(315.339 224.489)" fill="url(#linear-gradient-5)"/>
      <g id="Grupo_23791" data-name="Grupo 23791" transform="translate(337.474 235.195)">
        <g id="Grupo_23790" data-name="Grupo 23790">
          <path id="Trazado_55482" data-name="Trazado 55482" d="M406.587,287.167a2.7,2.7,0,0,0,2.208-1.069l1.174,1.21a4.43,4.43,0,0,1-6.418.376,4.339,4.339,0,0,1,.023-6.071,4.211,4.211,0,0,1,3.059-1.221,4.336,4.336,0,0,1,3.382,1.538l-1.139,1.292a2.669,2.669,0,0,0-2.161-1.08,2.517,2.517,0,0,0-1.767.675,2.354,2.354,0,0,0-.734,1.82,2.484,2.484,0,0,0,.693,1.838A2.286,2.286,0,0,0,406.587,287.167Z" transform="translate(-402.324 -280.391)" fill="#fff"/>
          <path id="Trazado_55483" data-name="Trazado 55483" d="M418.9,286.008a3.125,3.125,0,0,1-.951,2.313,3.509,3.509,0,0,1-4.78,0,3.3,3.3,0,0,1,0-4.633,3.493,3.493,0,0,1,4.78,0A3.143,3.143,0,0,1,418.9,286.008Zm-4.909,0a1.81,1.81,0,0,0,.44,1.262,1.548,1.548,0,0,0,2.255,0,1.81,1.81,0,0,0,.44-1.262,1.833,1.833,0,0,0-.44-1.268,1.535,1.535,0,0,0-2.255,0A1.833,1.833,0,0,0,414,286.008Z" transform="translate(-403.919 -280.77)" fill="#fff"/>
          <path id="Trazado_55484" data-name="Trazado 55484" d="M427.543,285.761v3.406H425.77v-3.453a2.071,2.071,0,0,0-.229-1.1.817.817,0,0,0-.74-.352,1.263,1.263,0,0,0-.9.382,1.492,1.492,0,0,0-.393,1.121v3.406h-1.762v-6.318H423.5v.716a2.18,2.18,0,0,1,1.668-.822,1.81,1.81,0,0,1,1.086.352,2.3,2.3,0,0,1,.734.857,2.474,2.474,0,0,1,.981-.893,2.685,2.685,0,0,1,1.239-.317,2.465,2.465,0,0,1,1.8.663,2.56,2.56,0,0,1,.681,1.92v3.84h-1.773v-3.453q0-1.456-1.069-1.456a1.263,1.263,0,0,0-.916.382A1.506,1.506,0,0,0,427.543,285.761Z" transform="translate(-405.454 -280.77)" fill="#fff"/>
          <path id="Trazado_55485" data-name="Trazado 55485" d="M439.18,282.743a2.631,2.631,0,0,1,1.967.922,3.261,3.261,0,0,1,.863,2.319,3.324,3.324,0,0,1-.863,2.337,2.663,2.663,0,0,1-2.02.939,2.225,2.225,0,0,1-1.861-.928v3.112H435.5v-8.6h1.762v.7A2.616,2.616,0,0,1,439.18,282.743Zm-1.938,3.271a1.831,1.831,0,0,0,.429,1.257,1.334,1.334,0,0,0,1.039.487,1.425,1.425,0,0,0,1.069-.487,1.752,1.752,0,0,0,.458-1.251,1.892,1.892,0,0,0-.446-1.28,1.366,1.366,0,0,0-1.069-.517,1.321,1.321,0,0,0-1.051.511A1.922,1.922,0,0,0,437.242,286.014Z" transform="translate(-407.672 -280.77)" fill="#fff"/>
          <path id="Trazado_55486" data-name="Trazado 55486" d="M451.075,286.008a3.124,3.124,0,0,1-.95,2.313,3.51,3.51,0,0,1-4.78,0,3.3,3.3,0,0,1,0-4.633,3.494,3.494,0,0,1,4.78,0A3.142,3.142,0,0,1,451.075,286.008Zm-4.909,0a1.811,1.811,0,0,0,.441,1.262,1.548,1.548,0,0,0,2.255,0,1.814,1.814,0,0,0,.44-1.262,1.837,1.837,0,0,0-.44-1.268,1.535,1.535,0,0,0-2.255,0A1.833,1.833,0,0,0,446.166,286.008Z" transform="translate(-409.105 -280.77)" fill="#fff"/>
          <path id="Trazado_55487" data-name="Trazado 55487" d="M455.675,285.644v3.523h-1.761v-6.318h1.761v.7a2.464,2.464,0,0,1,1.8-.81,2.223,2.223,0,0,1,1.673.7,2.6,2.6,0,0,1,.676,1.879v3.84h-1.761V285.6q0-1.456-1.069-1.456a1.282,1.282,0,0,0-.923.382A1.491,1.491,0,0,0,455.675,285.644Z" transform="translate(-410.64 -280.77)" fill="#fff"/>
          <path id="Trazado_55488" data-name="Trazado 55488" d="M468.264,288.251a3.531,3.531,0,0,1-2.507,1.01,3.327,3.327,0,0,1-2.378-.887A3.117,3.117,0,0,1,462.44,286a3.064,3.064,0,0,1,.956-2.372,3.228,3.228,0,0,1,2.261-.881,3.269,3.269,0,0,1,2.214.787,2.7,2.7,0,0,1,.91,2.161v.939h-4.6a1.261,1.261,0,0,0,.54.846,1.732,1.732,0,0,0,1.033.329,2.024,2.024,0,0,0,1.527-.622Zm-1.691-3.746a1.331,1.331,0,0,0-.887-.305,1.589,1.589,0,0,0-.957.317,1.214,1.214,0,0,0-.505.857H467A1.251,1.251,0,0,0,466.573,284.5Z" transform="translate(-412.014 -280.77)" fill="#fff"/>
          <path id="Trazado_55489" data-name="Trazado 55489" d="M473.273,285.644v3.523h-1.761v-6.318h1.761v.7a2.467,2.467,0,0,1,1.8-.81,2.225,2.225,0,0,1,1.673.7,2.6,2.6,0,0,1,.675,1.879v3.84h-1.762V285.6q0-1.456-1.068-1.456a1.28,1.28,0,0,0-.922.382A1.492,1.492,0,0,0,473.273,285.644Z" transform="translate(-413.476 -280.77)" fill="#fff"/>
          <path id="Trazado_55490" data-name="Trazado 55490" d="M482.369,283.774v2.83a.815.815,0,0,0,.187.57.587.587,0,0,0,.446.206,1.02,1.02,0,0,0,.835-.446l.658,1.233a2.547,2.547,0,0,1-1.733.752,2.1,2.1,0,0,1-2.167-2.231v-2.912h-.739v-1.268h.739v-1.891h1.774v1.891H483.9v1.268Z" transform="translate(-414.821 -280.427)" fill="#fff"/>
          <path id="Trazado_55491" data-name="Trazado 55491" d="M491.91,288.251a3.528,3.528,0,0,1-2.506,1.01,3.325,3.325,0,0,1-2.378-.887,3.114,3.114,0,0,1-.939-2.378,3.065,3.065,0,0,1,.957-2.372,3.227,3.227,0,0,1,2.261-.881,3.271,3.271,0,0,1,2.214.787,2.707,2.707,0,0,1,.91,2.161v.939h-4.6a1.258,1.258,0,0,0,.54.846,1.73,1.73,0,0,0,1.033.329,2.026,2.026,0,0,0,1.527-.622Zm-1.69-3.746a1.332,1.332,0,0,0-.887-.305,1.59,1.59,0,0,0-.958.317,1.216,1.216,0,0,0-.5.857h2.771A1.252,1.252,0,0,0,490.22,284.5Z" transform="translate(-415.826 -280.77)" fill="#fff"/>
        </g>
      </g>
      <g id="Grupo_23792" data-name="Grupo 23792" transform="translate(216.359 106.217)">
        <line id="Línea_345" data-name="Línea 345" x1="7.549" y2="37.746" fill="none" stroke="#8d6097" stroke-miterlimit="10" stroke-width="2"/>
        <line id="Línea_346" data-name="Línea 346" x2="21.594" y2="22.824" transform="translate(80.08)" fill="none" stroke="#8d6097" stroke-miterlimit="10" stroke-width="2"/>
        <line id="Línea_347" data-name="Línea 347" x1="27.934" y2="22.882" transform="translate(62.942 68.637)" fill="none" stroke="#8d6097" stroke-miterlimit="10" stroke-width="2"/>
        <line id="Línea_348" data-name="Línea 348" x2="36.339" y2="7.757" transform="translate(54.538 127.651)" fill="none" stroke="#8d6097" stroke-miterlimit="10" stroke-width="2"/>
      </g>
    </g>
  </g>
</svg>
