<svg xmlns="http://www.w3.org/2000/svg" xmlns:xlink="http://www.w3.org/1999/xlink" width="350.03" height="349.964" viewBox="0 0 350.03 349.964">
  <defs>
    <linearGradient id="linear-gradient" y1="0.5" x2="1" y2="0.5" gradientUnits="objectBoundingBox">
      <stop offset="0" stop-color="#df7f50"/>
      <stop offset="0.158" stop-color="#da6d51"/>
      <stop offset="0.36" stop-color="#d75f52"/>
      <stop offset="0.603" stop-color="#d55652"/>
      <stop offset="1" stop-color="#d55453"/>
    </linearGradient>
    <linearGradient id="linear-gradient-2" y1="0.5" x2="1" y2="0.5" gradientUnits="objectBoundingBox">
      <stop offset="0" stop-color="#df7f50"/>
      <stop offset="1" stop-color="#df7f50"/>
    </linearGradient>
    <linearGradient id="linear-gradient-3" y1="0.5" x2="1" y2="0.5" gradientUnits="objectBoundingBox">
      <stop offset="0" stop-color="#df7f50"/>
      <stop offset="0.05" stop-color="#e0864a"/>
      <stop offset="0.219" stop-color="#e39b3c"/>
      <stop offset="0.409" stop-color="#e5a931"/>
      <stop offset="0.637" stop-color="#e6b22b"/>
      <stop offset="1" stop-color="#e7b52a"/>
    </linearGradient>
    <clipPath id="clip-path">
      <circle id="Elipse_922" data-name="Elipse 922" cx="36.159" cy="36.159" r="36.159" transform="translate(412.718 137.481)" fill="#e2e2e2"/>
    </clipPath>
    <clipPath id="clip-path-2">
      <path id="Trazado_55677" data-name="Trazado 55677" d="M454.729,126.232a5.856,5.856,0,1,1-5.852-5.865A5.849,5.849,0,0,1,454.729,126.232Z" fill="#d45453"/>
    </clipPath>
    <clipPath id="clip-path-3">
      <path id="Trazado_55685" data-name="Trazado 55685" d="M454.729,220.813a5.855,5.855,0,1,1-5.852-5.856A5.851,5.851,0,0,1,454.729,220.813Z" fill="#e6b42a"/>
    </clipPath>
    <clipPath id="clip-path-4">
      <path id="Trazado_55689" data-name="Trazado 55689" d="M496.169,179.381a5.859,5.859,0,1,1,5.855-5.855A5.859,5.859,0,0,1,496.169,179.381Z" fill="#de7f50"/>
    </clipPath>
    <clipPath id="clip-path-5">
      <path id="Trazado_55693" data-name="Trazado 55693" d="M401.58,179.381a5.859,5.859,0,1,1,5.853-5.855A5.862,5.862,0,0,1,401.58,179.381Z" fill="#de7f50"/>
    </clipPath>
  </defs>
  <g id="Grupo_24741" data-name="Grupo 24741" transform="translate(-522.41 -7764)">
    <path id="Trazado_55492" data-name="Trazado 55492" d="M402.542,32.949" transform="translate(248.39 7764)" fill="#e6b42a"/>
    <g id="Grupo_23795" data-name="Grupo 23795" transform="translate(248.39 7764)">
      <g id="Grupo_23794" data-name="Grupo 23794">
        <path id="Trazado_55493" data-name="Trazado 55493" d="M575.311,53.772A173.814,173.814,0,0,0,453.687,0L473.3,34.537,458.527,65.378a109.979,109.979,0,0,1,91.3,153.58l19.015,27.772,39.791.279A175.394,175.394,0,0,0,575.311,53.772Z" fill="url(#linear-gradient)"/>
        <path id="Trazado_55494" data-name="Trazado 55494" d="M327.86,48.674a175.225,175.225,0,0,0-32.7,209.8L315.3,224.137l34.122-2.621A109.952,109.952,0,0,1,436.763,65.652L451.3,35.306,431.685.776A173.607,173.607,0,0,0,327.86,48.674Z" fill="url(#linear-gradient-2)"/>
        <path id="Trazado_55495" data-name="Trazado 55495" d="M558.5,266.168l-19.349-28.253a109.869,109.869,0,0,1-178.566,2.312l-33.619,2.585-20.1,34.259a176.665,176.665,0,0,0,15.891,19.056,175.009,175.009,0,0,0,247.451,5.1,176.089,176.089,0,0,0,28.1-34.771Z" fill="url(#linear-gradient-3)"/>
      </g>
    </g>
    <g id="Grupo_23796" data-name="Grupo 23796" transform="translate(248.39 7764)">
      <path id="Trazado_55496" data-name="Trazado 55496" d="M319.826,174.177l-2.856,1.292.188,6.678,2.924,1.13.076,2.714-13.837-5.611-.076-2.713,13.5-6.3Zm-4.94,7.1-.135-4.8-5.674,2.544Z" fill="#fff"/>
      <path id="Trazado_55497" data-name="Trazado 55497" d="M310.133,160.27l10.425.732-.178,2.553-1.93-.136a3.753,3.753,0,0,1,1.773,3.767,3.634,3.634,0,0,1-1.266,2.692,4.088,4.088,0,0,1-2.994.808l-6.528-.457.178-2.554,5.788.406a2.382,2.382,0,0,0,1.757-.474,2.172,2.172,0,0,0,.739-1.6,2.415,2.415,0,0,0-.724-1.969,3.2,3.2,0,0,0-2.075-.851l-5.144-.361Z" fill="#fff"/>
      <path id="Trazado_55498" data-name="Trazado 55498" d="M321.239,151.968a4.957,4.957,0,0,1,.365,2.7,3.13,3.13,0,0,1-1.11,2.066,3.019,3.019,0,0,1-2.436.5l-5.1-.765-.217,1.448-1.839-.255.221-1.469-2.84-.425.374-2.493,2.839.426.444-2.956,1.835.275-.443,2.956,4.656.7a1.519,1.519,0,0,0,1.054-.119,1.04,1.04,0,0,0,.421-.766,3.627,3.627,0,0,0-.2-1.532Z" fill="#fff"/>
      <path id="Trazado_55499" data-name="Trazado 55499" d="M314.191,141a4.808,4.808,0,0,1,2.25-1.469,5.443,5.443,0,0,1,2.849-.058,5.536,5.536,0,0,1,2.569,1.3,4.793,4.793,0,0,1,1.395,2.3,5.974,5.974,0,0,1,.009,2.938,6.081,6.081,0,0,1-1.294,2.67,4.768,4.768,0,0,1-2.262,1.475,5.512,5.512,0,0,1-2.878.052,5.417,5.417,0,0,1-2.539-1.293,4.789,4.789,0,0,1-1.385-2.312,6.067,6.067,0,0,1,0-2.966A5.955,5.955,0,0,1,314.191,141Zm1.2,5.417a3.6,3.6,0,0,0,4.456,1.021,2.8,2.8,0,0,0,1.337-1.9,2.756,2.756,0,0,0-.385-2.253,3.594,3.594,0,0,0-4.456-1.022,2.753,2.753,0,0,0-1.328,1.861A2.807,2.807,0,0,0,315.394,146.419Z" fill="#fff"/>
      <path id="Trazado_55500" data-name="Trazado 55500" d="M317.906,128.677a4.819,4.819,0,0,1,2.378-1.252,5.429,5.429,0,0,1,2.841.207,5.516,5.516,0,0,1,2.436,1.534,4.776,4.776,0,0,1,1.175,2.424,5.959,5.959,0,0,1-.265,2.926,6.072,6.072,0,0,1-1.536,2.537,4.76,4.76,0,0,1-2.39,1.259,5.516,5.516,0,0,1-2.87-.216,5.428,5.428,0,0,1-2.408-1.525,4.783,4.783,0,0,1-1.163-2.43,6.074,6.074,0,0,1,.275-2.954A5.972,5.972,0,0,1,317.906,128.677Zm.693,5.506a3.6,3.6,0,0,0,4.342,1.431,2.8,2.8,0,0,0,1.508-1.765,2.759,2.759,0,0,0-.174-2.279,3.593,3.593,0,0,0-4.341-1.431,2.752,2.752,0,0,0-1.5,1.728A2.805,2.805,0,0,0,318.6,134.183Z" fill="#fff"/>
      <path id="Trazado_55501" data-name="Trazado 55501" d="M321.193,119.987a4.228,4.228,0,0,1,.3-2.171l2.272.948a3.446,3.446,0,0,0-.3,2.678,2.9,2.9,0,0,0,1.746,1.776l4.652,1.939-.977,2.344-9.647-4.022.977-2.343,1.858.774A3.774,3.774,0,0,1,321.193,119.987Z" fill="#fff"/>
      <path id="Trazado_55502" data-name="Trazado 55502" d="M326.866,107.238l8.421,4.3a4.861,4.861,0,0,1,2,1.778,4.426,4.426,0,0,1,.643,2.477,6.6,6.6,0,0,1-.78,2.837,7.665,7.665,0,0,1-3.244,3.3l-1.173-1.739a5.38,5.38,0,0,0,2.458-2.408,3.288,3.288,0,0,0,.374-2.321,2.481,2.481,0,0,0-1.38-1.637l-1.1-.559a3.471,3.471,0,0,1,.466,1.773,4.3,4.3,0,0,1-.515,1.93,4.6,4.6,0,0,1-1.667,1.869,4.348,4.348,0,0,1-2.33.653,5.675,5.675,0,0,1-2.606-.674,5.5,5.5,0,0,1-2.038-1.7,4.286,4.286,0,0,1-.811-2.256,4.649,4.649,0,0,1,.545-2.442,4.254,4.254,0,0,1,1.266-1.536,3.593,3.593,0,0,1,1.706-.675l-1.392-.711Zm4.818,6.179a3.405,3.405,0,0,0-3.845-1.964,2.819,2.819,0,0,0-1.813,3.571,3.329,3.329,0,0,0,3.836,1.96,2.832,2.832,0,0,0,1.822-3.567Z" fill="#fff"/>
      <path id="Trazado_55503" data-name="Trazado 55503" d="M340.839,104.434l-1.073-.678a3.429,3.429,0,0,1,.124,1.742,5.188,5.188,0,0,1-.756,1.856,4.2,4.2,0,0,1-1.383,1.4,3.068,3.068,0,0,1-1.666.461,3.135,3.135,0,0,1-1.644-.506,2.782,2.782,0,0,1-1.388-2.1,4.663,4.663,0,0,1,.846-2.932l1.628-2.576-.231-.146a1.762,1.762,0,0,0-1.53-.25,2.673,2.673,0,0,0-1.368,1.215,6.04,6.04,0,0,0-.833,3.148l-1.976-.163a11.555,11.555,0,0,1,.36-2.418,8.175,8.175,0,0,1,1-2.151,4.653,4.653,0,0,1,2.511-2.146,3.486,3.486,0,0,1,2.922.494l5.791,3.635Zm-2.47-.5a1.8,1.8,0,0,0-.612-1.427l-.793-.5-1.408,2.23a2.859,2.859,0,0,0-.542,1.425,1.079,1.079,0,0,0,.578.932,1.271,1.271,0,0,0,1.158.142,2.143,2.143,0,0,0,1.055-.94A3.308,3.308,0,0,0,338.369,103.937Z" fill="#fff"/>
      <path id="Trazado_55504" data-name="Trazado 55504" d="M341.668,87.228a4.085,4.085,0,0,1,2.962.972l5.172,3.978-1.56,2.029-4.584-3.526a2.361,2.361,0,0,0-1.752-.558,2.283,2.283,0,0,0-1.539.96,2.578,2.578,0,0,0-.539,2.111,3.148,3.148,0,0,0,1.257,1.891l4.072,3.132-1.548,2.013-8.284-6.371,1.547-2.013,1.549,1.191a3.961,3.961,0,0,1,.661-4.224A3.731,3.731,0,0,1,341.668,87.228Z" fill="#fff"/>
      <path id="Trazado_55505" data-name="Trazado 55505" d="M342.237,78.907a1.519,1.519,0,0,1,1.091.419,1.5,1.5,0,0,1,.531,1.02,1.464,1.464,0,0,1-1.374,1.549,1.493,1.493,0,0,1-1.076-.407,1.516,1.516,0,0,1-.546-1.033,1.459,1.459,0,0,1,1.374-1.548Zm1.522,4.406,1.686-1.9,7.817,6.937-1.685,1.9Z" fill="#fff"/>
      <path id="Trazado_55506" data-name="Trazado 55506" d="M347.455,79.179l6.168-6.153,1.187,1.189L355.461,83l4.191-4.153,1.463,1.466L354.683,86.7l-1.187-1.19-.651-8.786-3.942,3.9Z" fill="#fff"/>
      <path id="Trazado_55507" data-name="Trazado 55507" d="M367.151,75.1l-.821-.969a3.44,3.44,0,0,1-.4,1.7,5.18,5.18,0,0,1-1.279,1.543,4.207,4.207,0,0,1-1.739.923,3.083,3.083,0,0,1-1.728-.06,3.144,3.144,0,0,1-1.416-.977,2.781,2.781,0,0,1-.693-2.421,4.652,4.652,0,0,1,1.687-2.542l2.325-1.97-.176-.208a1.759,1.759,0,0,0-1.384-.7,2.67,2.67,0,0,0-1.67.749,6.028,6.028,0,0,0-1.739,2.752l-1.837-.748a11.511,11.511,0,0,1,1.07-2.2,8.222,8.222,0,0,1,1.6-1.752,4.663,4.663,0,0,1,3.039-1.294,3.49,3.49,0,0,1,2.64,1.35l4.433,5.205Zm-2.207-1.215a1.8,1.8,0,0,0-.156-1.545l-.606-.715-2.013,1.7a2.852,2.852,0,0,0-.944,1.2,1.077,1.077,0,0,0,.271,1.062,1.272,1.272,0,0,0,1.063.483,2.146,2.146,0,0,0,1.288-.579A3.322,3.322,0,0,0,364.944,73.889Z" fill="#fff"/>
      <path id="Trazado_55508" data-name="Trazado 55508" d="M368.486,61.521a4.221,4.221,0,0,1,1.385-1.7l1.449,1.99a3.443,3.443,0,0,0-1.648,2.132,2.9,2.9,0,0,0,.57,2.425l2.968,4.073-2.052,1.495L365,63.491l2.053-1.5,1.185,1.626A3.764,3.764,0,0,1,368.486,61.521Z" fill="#fff"/>
      <path id="Trazado_55509" data-name="Trazado 55509" d="M376.838,57.982a5.044,5.044,0,0,0-1.4.586,2.012,2.012,0,0,0-.746.738.749.749,0,0,0,.05.79.822.822,0,0,0,.806.38,7.789,7.789,0,0,0,1.577-.34,14.431,14.431,0,0,1,1.868-.409,3.374,3.374,0,0,1,1.544.155,2.56,2.56,0,0,1,1.331,1.134,2.686,2.686,0,0,1,.264,2.607,5.015,5.015,0,0,1-2.052,2.272,7.482,7.482,0,0,1-2.2.943,5.569,5.569,0,0,1-2.231.13L375.441,65a5.13,5.13,0,0,0,1.926-.1,5.648,5.648,0,0,0,1.751-.7,2.222,2.222,0,0,0,.818-.808.8.8,0,0,0-.037-.844.887.887,0,0,0-.852-.431,8.611,8.611,0,0,0-1.66.335,13.327,13.327,0,0,1-1.782.4,3.119,3.119,0,0,1-1.465-.159,2.515,2.515,0,0,1-1.275-1.1,2.723,2.723,0,0,1-.311-2.59,4.7,4.7,0,0,1,1.951-2.195,7.28,7.28,0,0,1,1.881-.845,6.343,6.343,0,0,1,1.949-.263l.208,2.042A7.527,7.527,0,0,0,376.838,57.982Z" fill="#fff"/>
      <path id="Trazado_55510" data-name="Trazado 55510" d="M388.075,50.816a5.844,5.844,0,0,1,2.983,2.954c.159.3.271.527.339.683l-6.825,3.6a2.91,2.91,0,0,0,3.756.713,3.973,3.973,0,0,0,1.215-.983,3.761,3.761,0,0,0,.726-1.367l1.875.624a5.288,5.288,0,0,1-1.065,2.063,6.408,6.408,0,0,1-1.984,1.577,5.819,5.819,0,0,1-2.807.731,4.642,4.642,0,0,1-2.537-.771,6.062,6.062,0,0,1-2.576-4.9,4.77,4.77,0,0,1,.787-2.547,5.565,5.565,0,0,1,2.122-1.881A4.757,4.757,0,0,1,388.075,50.816Zm.49,3.21a2.539,2.539,0,0,0-1.531-1.269,2.972,2.972,0,0,0-3.348,1.756,2.979,2.979,0,0,0,.041,2.065Z" fill="#fff"/>
      <path id="Trazado_55511" data-name="Trazado 55511" d="M520.657,67.418l.49-3.1-5.684-3.512-2.55,1.823-2.31-1.427,12.291-8.48,2.309,1.427L523.05,68.9Zm-3.215-8.027,4.088,2.527.992-6.139Z" fill="#fff"/>
      <path id="Trazado_55512" data-name="Trazado 55512" d="M537.6,66.98l-6.349,8.3-2.033-1.555,1.175-1.535a3.754,3.754,0,0,1-4.12-.594,3.633,3.633,0,0,1-1.551-2.539,4.092,4.092,0,0,1,.974-2.945l3.975-5.2,2.033,1.554-3.524,4.609a2.381,2.381,0,0,0-.572,1.727,2.164,2.164,0,0,0,.932,1.5,2.414,2.414,0,0,0,2.042.481,3.207,3.207,0,0,0,1.853-1.264l3.132-4.1Z" fill="#fff"/>
      <path id="Trazado_55513" data-name="Trazado 55513" d="M538.411,80.812a4.953,4.953,0,0,1-2.458-1.181,3.123,3.123,0,0,1-1.113-2.063,3.018,3.018,0,0,1,.919-2.312l3.446-3.838-1.091-.979,1.225-1.394,1.106.992,1.917-2.137,1.875,1.684-1.918,2.137,2.225,2L543.3,75.1l-2.224-2-3.145,3.5a1.524,1.524,0,0,0-.482.946,1.046,1.046,0,0,0,.408.773,3.656,3.656,0,0,0,1.393.673Z" fill="#fff"/>
      <path id="Trazado_55514" data-name="Trazado 55514" d="M551.465,80.972a4.815,4.815,0,0,1-.01,2.687,5.441,5.441,0,0,1-1.518,2.412,5.523,5.523,0,0,1-2.5,1.43,4.784,4.784,0,0,1-2.692-.1,5.969,5.969,0,0,1-2.459-1.608,6.077,6.077,0,0,1-1.519-2.548,4.773,4.773,0,0,1,.011-2.7,5.513,5.513,0,0,1,1.539-2.433,5.425,5.425,0,0,1,2.476-1.41,4.79,4.79,0,0,1,2.692.115,6.069,6.069,0,0,1,2.478,1.629A5.967,5.967,0,0,1,551.465,80.972ZM546.279,79a3.593,3.593,0,0,0-3.3,3.16,2.8,2.8,0,0,0,.85,2.16,2.756,2.756,0,0,0,2.094.917,3.595,3.595,0,0,0,3.3-3.161,2.758,2.758,0,0,0-.823-2.132A2.8,2.8,0,0,0,546.279,79Z" fill="#fff"/>
      <path id="Trazado_55515" data-name="Trazado 55515" d="M556.62,89.446a2.669,2.669,0,0,0-1.96-1.069,3.155,3.155,0,0,0-2.232.776,3.215,3.215,0,0,0-1.273,2.035,2.672,2.672,0,0,0,.62,2.146,3.313,3.313,0,0,0,2.72,1.423l-.031,2.054a4.627,4.627,0,0,1-2.38-.47,6.2,6.2,0,0,1-2.1-1.745,5.58,5.58,0,0,1-1.2-2.557,4.679,4.679,0,0,1,.288-2.622,6.1,6.1,0,0,1,4.341-3.47,4.722,4.722,0,0,1,2.637.289,5.611,5.611,0,0,1,2.247,1.74,6.231,6.231,0,0,1,1.207,2.3,4.586,4.586,0,0,1,.038,2.31l-2.108-.286A3.539,3.539,0,0,0,556.62,89.446Z" fill="#fff"/>
      <path id="Trazado_55516" data-name="Trazado 55516" d="M566.1,99.954a4.8,4.8,0,0,1-.47,2.645,5.409,5.409,0,0,1-1.908,2.117,5.517,5.517,0,0,1-2.7.983,4.8,4.8,0,0,1-2.635-.56,5.953,5.953,0,0,1-2.147-2.006,6.066,6.066,0,0,1-1.062-2.769,4.773,4.773,0,0,1,.474-2.66,5.518,5.518,0,0,1,1.931-2.133,5.432,5.432,0,0,1,2.682-.966,4.791,4.791,0,0,1,2.633.573,6.064,6.064,0,0,1,2.162,2.03A5.951,5.951,0,0,1,566.1,99.954Zm-4.772-2.83a3.594,3.594,0,0,0-3.795,2.548,2.807,2.807,0,0,0,.469,2.275,2.756,2.756,0,0,0,1.906,1.26,3.591,3.591,0,0,0,3.794-2.549,2.747,2.747,0,0,0-.446-2.241A2.8,2.8,0,0,0,561.328,97.124Z" fill="#fff"/>
      <path id="Trazado_55517" data-name="Trazado 55517" d="M573,112.789a4.08,4.08,0,0,1-2.093,2.309l-5.738,3.107-1.218-2.251,5.086-2.753a2.356,2.356,0,0,0,1.222-1.372,2.276,2.276,0,0,0-.251-1.8,2.578,2.578,0,0,0-1.708-1.352,3.153,3.153,0,0,0-2.239.379l-4.518,2.445-1.209-2.233,9.19-4.975,1.209,2.233-1.718.93a3.961,3.961,0,0,1,3.59,2.322A3.738,3.738,0,0,1,573,112.789Z" fill="#fff"/>
      <path id="Trazado_55518" data-name="Trazado 55518" d="M569.264,125.895a4.968,4.968,0,0,1-1.755-2.086,3.137,3.137,0,0,1-.168-2.339,3.017,3.017,0,0,1,1.787-1.73l4.717-2.085-.592-1.34,1.689-.768.6,1.357,2.626-1.16,1.019,2.3-2.627,1.162,1.209,2.733-1.7.751-1.208-2.734-4.307,1.9a1.52,1.52,0,0,0-.827.665,1.051,1.051,0,0,0,.054.873,3.649,3.649,0,0,0,.994,1.184Z" fill="#fff"/>
      <path id="Trazado_55519" data-name="Trazado 55519" d="M580.07,128.091a4.232,4.232,0,0,1,1.26,1.794l-2.308.856a3.45,3.45,0,0,0-1.606-2.164,2.9,2.9,0,0,0-2.488-.108l-4.725,1.754-.884-2.382,9.8-3.636.884,2.381-1.886.7A3.778,3.778,0,0,1,580.07,128.091Z" fill="#fff"/>
      <path id="Trazado_55520" data-name="Trazado 55520" d="M583.473,139.421a4.813,4.813,0,0,1-1.261,2.373,5.421,5.421,0,0,1-2.467,1.427,5.516,5.516,0,0,1-2.876.1,4.791,4.791,0,0,1-2.336-1.343,5.976,5.976,0,0,1-1.426-2.569,6.063,6.063,0,0,1-.157-2.962,4.767,4.767,0,0,1,1.267-2.385,5.531,5.531,0,0,1,2.5-1.436,5.432,5.432,0,0,1,2.847-.094,4.791,4.791,0,0,1,2.329,1.355,6.052,6.052,0,0,1,1.434,2.6A5.978,5.978,0,0,1,583.473,139.421ZM579.8,135.26a3.594,3.594,0,0,0-4.4,1.258,2.8,2.8,0,0,0-.252,2.308,2.755,2.755,0,0,0,1.426,1.787,3.593,3.593,0,0,0,4.393-1.259,2.754,2.754,0,0,0,.265-2.27A2.8,2.8,0,0,0,579.8,135.26Z" fill="#fff"/>
      <path id="Trazado_55521" data-name="Trazado 55521" d="M589.249,143.687l.528,2.484-14.177,3.02-.528-2.484Z" fill="#fff"/>
      <path id="Trazado_55522" data-name="Trazado 55522" d="M577.114,158.266l1.256-.182a3.437,3.437,0,0,1-1.227-1.244,5.2,5.2,0,0,1-.63-1.9,4.2,4.2,0,0,1,.139-1.965,3.079,3.079,0,0,1,.967-1.433,3.14,3.14,0,0,1,1.579-.682,2.779,2.779,0,0,1,2.42.695,4.666,4.666,0,0,1,1.262,2.778l.437,3.016.271-.039a1.755,1.755,0,0,0,1.323-.8,2.661,2.661,0,0,0,.251-1.813,6.039,6.039,0,0,0-1.412-2.934l1.608-1.161a11.618,11.618,0,0,1,1.3,2.072,8.207,8.207,0,0,1,.636,2.286,4.654,4.654,0,0,1-.513,3.263,3.488,3.488,0,0,1-2.543,1.523l-6.764,1Zm2.2-1.227a1.8,1.8,0,0,0,1.392.686l.928-.134-.378-2.61a2.894,2.894,0,0,0-.514-1.436,1.08,1.08,0,0,0-1.046-.332,1.272,1.272,0,0,0-.973.645,2.139,2.139,0,0,0-.19,1.4A3.3,3.3,0,0,0,579.315,157.039Z" fill="#fff"/>
      <path id="Trazado_55523" data-name="Trazado 55523" d="M587.923,166.6a4.21,4.21,0,0,1,.706,2.074l-2.455.175a3.446,3.446,0,0,0-.934-2.528,2.9,2.9,0,0,0-2.358-.8l-5.028.358-.18-2.533L588.1,162.6l.18,2.533-2.008.142A3.77,3.77,0,0,1,587.923,166.6Z" fill="#fff"/>
      <path id="Trazado_55524" data-name="Trazado 55524" d="M586.511,175.454a5.068,5.068,0,0,0,.231-1.5,2.029,2.029,0,0,0-.242-1.021.749.749,0,0,0-.7-.37.821.821,0,0,0-.745.491,7.739,7.739,0,0,0-.532,1.522,14.5,14.5,0,0,1-.625,1.808,3.379,3.379,0,0,1-.937,1.236,2.563,2.563,0,0,1-1.662.545,2.692,2.692,0,0,1-2.363-1.134,5.017,5.017,0,0,1-.868-2.936,7.47,7.47,0,0,1,.342-2.37,5.571,5.571,0,0,1,1.053-1.971l1.792.851a5.123,5.123,0,0,0-.921,1.695,5.613,5.613,0,0,0-.311,1.861,2.215,2.215,0,0,0,.262,1.119.8.8,0,0,0,.74.408.887.887,0,0,0,.812-.5,8.785,8.785,0,0,0,.579-1.593,13.391,13.391,0,0,1,.588-1.728,3.112,3.112,0,0,1,.9-1.168,2.518,2.518,0,0,1,1.6-.514,2.723,2.723,0,0,1,2.371,1.085,4.7,4.7,0,0,1,.857,2.809,7.293,7.293,0,0,1-.26,2.046,6.335,6.335,0,0,1-.791,1.8l-1.851-.888A7.555,7.555,0,0,0,586.511,175.454Z" fill="#fff"/>
      <path id="Trazado_55525" data-name="Trazado 55525" d="M586.638,188.885a5.846,5.846,0,0,1-4.084.971c-.339-.024-.591-.049-.759-.074l.55-7.7a2.912,2.912,0,0,0-2.59,2.811,3.984,3.984,0,0,0,.193,1.551,3.741,3.741,0,0,0,.776,1.339l-1.52,1.262a5.267,5.267,0,0,1-1.189-1.994,6.415,6.415,0,0,1-.291-2.518,5.818,5.818,0,0,1,.864-2.768,4.647,4.647,0,0,1,1.995-1.748,6.067,6.067,0,0,1,5.524.4,4.77,4.77,0,0,1,1.746,2.015,5.567,5.567,0,0,1,.476,2.795A4.758,4.758,0,0,1,586.638,188.885Zm-2.983-1.281a2.535,2.535,0,0,0,1.886-.629,2.668,2.668,0,0,0,.818-1.861,2.7,2.7,0,0,0-.539-1.909,2.981,2.981,0,0,0-1.775-1.057Z" fill="#fff"/>
    </g>
    <g id="Grupo_23834" data-name="Grupo 23834" transform="translate(248.39 7764)">
      <path id="Trazado_55671" data-name="Trazado 55671" d="M448.877,237.036a63.4,63.4,0,1,1,63.4-63.395A63.47,63.47,0,0,1,448.877,237.036Zm0-122.854a59.456,59.456,0,1,0,59.457,59.459A59.525,59.525,0,0,0,448.877,114.182Z"/>
    </g>
    <g id="Grupo_23837" data-name="Grupo 23837" transform="translate(248.39 7764)">
      <g id="Grupo_23836" data-name="Grupo 23836">
        <circle id="Elipse_921" data-name="Elipse 921" cx="36.159" cy="36.159" r="36.159" transform="translate(412.718 137.481)" fill="#e2e2e2"/>
        <g id="Grupo_23835" data-name="Grupo 23835" clip-path="url(#clip-path)">
          <path id="Trazado_55672" data-name="Trazado 55672" d="M412.712,137.478v0Z" fill="#e2e2e2"/>
          <rect id="Rectángulo_7773" data-name="Rectángulo 7773" width="3.622" height="72.326" transform="translate(412.712 137.478)" fill="#e2e2e2"/>
          <rect id="Rectángulo_7774" data-name="Rectángulo 7774" width="3.608" height="72.326" transform="translate(416.334 137.478)" fill="#e2e2e2"/>
          <rect id="Rectángulo_7775" data-name="Rectángulo 7775" width="3.622" height="72.326" transform="translate(419.942 137.478)" fill="#e2e2e2"/>
          <rect id="Rectángulo_7776" data-name="Rectángulo 7776" width="3.622" height="72.326" transform="translate(423.564 137.478)" fill="#e2e2e2"/>
          <rect id="Rectángulo_7777" data-name="Rectángulo 7777" width="3.608" height="72.326" transform="translate(427.186 137.478)" fill="#e2e2e2"/>
          <rect id="Rectángulo_7778" data-name="Rectángulo 7778" width="3.622" height="72.326" transform="translate(430.794 137.478)" fill="#e2e2e2"/>
          <rect id="Rectángulo_7779" data-name="Rectángulo 7779" width="3.608" height="72.326" transform="translate(434.416 137.478)" fill="#e2e2e2"/>
          <rect id="Rectángulo_7780" data-name="Rectángulo 7780" width="3.622" height="72.326" transform="translate(438.023 137.478)" fill="#e2e2e2"/>
          <rect id="Rectángulo_7781" data-name="Rectángulo 7781" width="3.608" height="72.326" transform="translate(441.645 137.478)" fill="#e2e2e2"/>
          <rect id="Rectángulo_7782" data-name="Rectángulo 7782" width="3.622" height="72.326" transform="translate(445.253 137.478)" fill="#e2e2e2"/>
          <rect id="Rectángulo_7783" data-name="Rectángulo 7783" width="3.622" height="72.326" transform="translate(448.875 137.478)" fill="#e2e2e2"/>
          <rect id="Rectángulo_7784" data-name="Rectángulo 7784" width="3.608" height="72.326" transform="translate(452.497 137.478)" fill="#e2e2e2"/>
          <rect id="Rectángulo_7785" data-name="Rectángulo 7785" width="3.622" height="72.326" transform="translate(456.105 137.478)" fill="#e2e2e2"/>
          <rect id="Rectángulo_7786" data-name="Rectángulo 7786" width="3.608" height="72.326" transform="translate(459.727 137.478)" fill="#e2e2e2"/>
          <rect id="Rectángulo_7787" data-name="Rectángulo 7787" width="3.622" height="72.326" transform="translate(463.335 137.478)" fill="#e2e2e2"/>
          <rect id="Rectángulo_7788" data-name="Rectángulo 7788" width="3.622" height="72.326" transform="translate(466.956 137.478)" fill="#e2e2e2"/>
          <rect id="Rectángulo_7789" data-name="Rectángulo 7789" width="3.608" height="72.326" transform="translate(470.578 137.478)" fill="#e2e2e2"/>
          <rect id="Rectángulo_7790" data-name="Rectángulo 7790" width="3.622" height="72.326" transform="translate(474.186 137.478)" fill="#e2e2e2"/>
          <rect id="Rectángulo_7791" data-name="Rectángulo 7791" width="3.608" height="72.326" transform="translate(477.808 137.478)" fill="#e2e2e2"/>
          <rect id="Rectángulo_7792" data-name="Rectángulo 7792" width="3.622" height="72.326" transform="translate(481.416 137.478)" fill="#e2e2e2"/>
          <path id="Trazado_55673" data-name="Trazado 55673" d="M485.038,209.8v0Z" fill="#e2e2e2"/>
        </g>
      </g>
    </g>
    <g id="Grupo_23840" data-name="Grupo 23840" transform="translate(248.39 7764)">
      <g id="Grupo_23839" data-name="Grupo 23839">
        <path id="Trazado_55674" data-name="Trazado 55674" d="M454.729,126.232a5.856,5.856,0,1,1-5.852-5.865A5.849,5.849,0,0,1,454.729,126.232Z" fill="#d45453"/>
        <g id="Grupo_23838" data-name="Grupo 23838" clip-path="url(#clip-path-2)">
          <path id="Trazado_55675" data-name="Trazado 55675" d="M443.02,120.37v0Z" fill="#d45453"/>
          <rect id="Rectángulo_7793" data-name="Rectángulo 7793" width="0.587" height="11.711" transform="translate(443.02 120.37)" fill="#d45453"/>
          <rect id="Rectángulo_7794" data-name="Rectángulo 7794" width="0.587" height="11.711" transform="translate(443.607 120.37)" fill="#d45453"/>
          <rect id="Rectángulo_7795" data-name="Rectángulo 7795" width="0.587" height="11.711" transform="translate(444.194 120.37)" fill="#d45453"/>
          <rect id="Rectángulo_7796" data-name="Rectángulo 7796" width="0.587" height="11.711" transform="translate(444.781 120.37)" fill="#d45453"/>
          <rect id="Rectángulo_7797" data-name="Rectángulo 7797" width="0.573" height="11.711" transform="translate(445.368 120.37)" fill="#d45453"/>
          <rect id="Rectángulo_7798" data-name="Rectángulo 7798" width="0.587" height="11.711" transform="translate(445.94 120.37)" fill="#d45453"/>
          <rect id="Rectángulo_7799" data-name="Rectángulo 7799" width="0.587" height="11.711" transform="translate(446.527 120.37)" fill="#d45453"/>
          <rect id="Rectángulo_7800" data-name="Rectángulo 7800" width="0.587" height="11.711" transform="translate(447.114 120.37)" fill="#d45453"/>
          <rect id="Rectángulo_7801" data-name="Rectángulo 7801" width="0.587" height="11.711" transform="translate(447.701 120.37)" fill="#d45453"/>
          <rect id="Rectángulo_7802" data-name="Rectángulo 7802" width="0.587" height="11.711" transform="translate(448.288 120.37)" fill="#d45453"/>
          <rect id="Rectángulo_7803" data-name="Rectángulo 7803" width="0.587" height="11.711" transform="translate(448.875 120.37)" fill="#d45453"/>
          <rect id="Rectángulo_7804" data-name="Rectángulo 7804" width="0.587" height="11.711" transform="translate(449.462 120.37)" fill="#d45453"/>
          <rect id="Rectángulo_7805" data-name="Rectángulo 7805" width="0.587" height="11.711" transform="translate(450.049 120.37)" fill="#d45453"/>
          <rect id="Rectángulo_7806" data-name="Rectángulo 7806" width="0.573" height="11.711" transform="translate(450.636 120.37)" fill="#d45453"/>
          <rect id="Rectángulo_7807" data-name="Rectángulo 7807" width="0.587" height="11.711" transform="translate(451.209 120.37)" fill="#d45453"/>
          <rect id="Rectángulo_7808" data-name="Rectángulo 7808" width="0.587" height="11.711" transform="translate(451.796 120.37)" fill="#d45453"/>
          <rect id="Rectángulo_7809" data-name="Rectángulo 7809" width="0.587" height="11.711" transform="translate(452.383 120.37)" fill="#d45453"/>
          <rect id="Rectángulo_7810" data-name="Rectángulo 7810" width="0.587" height="11.711" transform="translate(452.969 120.37)" fill="#d45453"/>
          <rect id="Rectángulo_7811" data-name="Rectángulo 7811" width="0.587" height="11.711" transform="translate(453.557 120.37)" fill="#d45453"/>
          <rect id="Rectángulo_7812" data-name="Rectángulo 7812" width="0.587" height="11.711" transform="translate(454.144 120.37)" fill="#d45453"/>
          <path id="Trazado_55676" data-name="Trazado 55676" d="M454.73,132.08v0Z" fill="#d45453"/>
        </g>
      </g>
    </g>
    <g id="Grupo_23841" data-name="Grupo 23841" transform="translate(248.39 7764)">
      <path id="Trazado_55678" data-name="Trazado 55678" d="M418.464,137.943a2.951,2.951,0,1,1-2.949-2.956A2.948,2.948,0,0,1,418.464,137.943Z"/>
    </g>
    <g id="Grupo_23842" data-name="Grupo 23842" transform="translate(248.39 7764)">
      <path id="Trazado_55679" data-name="Trazado 55679" d="M485.5,206.962a2.952,2.952,0,1,1-2.951-2.949A2.947,2.947,0,0,1,485.5,206.962Z"/>
    </g>
    <g id="Grupo_23843" data-name="Grupo 23843" transform="translate(248.39 7764)">
      <path id="Trazado_55680" data-name="Trazado 55680" d="M483.54,141.887a2.955,2.955,0,1,1,2.948-2.949A2.957,2.957,0,0,1,483.54,141.887Z"/>
    </g>
    <g id="Grupo_23844" data-name="Grupo 23844" transform="translate(248.39 7764)">
      <path id="Trazado_55681" data-name="Trazado 55681" d="M414.521,208.923a2.955,2.955,0,1,1,2.951-2.956A2.956,2.956,0,0,1,414.521,208.923Z"/>
    </g>
    <g id="Grupo_23847" data-name="Grupo 23847" transform="translate(248.39 7764)">
      <g id="Grupo_23846" data-name="Grupo 23846">
        <path id="Trazado_55682" data-name="Trazado 55682" d="M454.729,220.813a5.855,5.855,0,1,1-5.852-5.856A5.851,5.851,0,0,1,454.729,220.813Z" fill="#e6b42a"/>
        <g id="Grupo_23845" data-name="Grupo 23845" clip-path="url(#clip-path-3)">
          <path id="Trazado_55683" data-name="Trazado 55683" d="M443.02,214.957v0Z" fill="#e6b42a"/>
          <rect id="Rectángulo_7813" data-name="Rectángulo 7813" width="0.587" height="11.711" transform="translate(443.02 214.957)" fill="#e6b42a"/>
          <rect id="Rectángulo_7814" data-name="Rectángulo 7814" width="0.587" height="11.711" transform="translate(443.607 214.957)" fill="#e6b42a"/>
          <rect id="Rectángulo_7815" data-name="Rectángulo 7815" width="0.587" height="11.711" transform="translate(444.194 214.957)" fill="#e6b42a"/>
          <rect id="Rectángulo_7816" data-name="Rectángulo 7816" width="0.587" height="11.711" transform="translate(444.781 214.957)" fill="#e6b42a"/>
          <rect id="Rectángulo_7817" data-name="Rectángulo 7817" width="0.573" height="11.711" transform="translate(445.368 214.957)" fill="#e6b42a"/>
          <rect id="Rectángulo_7818" data-name="Rectángulo 7818" width="0.587" height="11.711" transform="translate(445.94 214.957)" fill="#e6b42a"/>
          <rect id="Rectángulo_7819" data-name="Rectángulo 7819" width="0.587" height="11.711" transform="translate(446.527 214.957)" fill="#e6b42a"/>
          <rect id="Rectángulo_7820" data-name="Rectángulo 7820" width="0.587" height="11.711" transform="translate(447.114 214.957)" fill="#e6b42a"/>
          <rect id="Rectángulo_7821" data-name="Rectángulo 7821" width="0.587" height="11.711" transform="translate(447.701 214.957)" fill="#e6b42a"/>
          <rect id="Rectángulo_7822" data-name="Rectángulo 7822" width="0.587" height="11.711" transform="translate(448.288 214.957)" fill="#e6b42a"/>
          <rect id="Rectángulo_7823" data-name="Rectángulo 7823" width="0.587" height="11.711" transform="translate(448.875 214.957)" fill="#e6b42a"/>
          <rect id="Rectángulo_7824" data-name="Rectángulo 7824" width="0.587" height="11.711" transform="translate(449.462 214.957)" fill="#e6b42a"/>
          <rect id="Rectángulo_7825" data-name="Rectángulo 7825" width="0.587" height="11.711" transform="translate(450.049 214.957)" fill="#e6b42a"/>
          <rect id="Rectángulo_7826" data-name="Rectángulo 7826" width="0.573" height="11.711" transform="translate(450.636 214.957)" fill="#e6b42a"/>
          <rect id="Rectángulo_7827" data-name="Rectángulo 7827" width="0.587" height="11.711" transform="translate(451.209 214.957)" fill="#e6b42a"/>
          <rect id="Rectángulo_7828" data-name="Rectángulo 7828" width="0.587" height="11.711" transform="translate(451.796 214.957)" fill="#e6b42a"/>
          <rect id="Rectángulo_7829" data-name="Rectángulo 7829" width="0.587" height="11.711" transform="translate(452.383 214.957)" fill="#e6b42a"/>
          <rect id="Rectángulo_7830" data-name="Rectángulo 7830" width="0.587" height="11.711" transform="translate(452.969 214.957)" fill="#e6b42a"/>
          <rect id="Rectángulo_7831" data-name="Rectángulo 7831" width="0.587" height="11.711" transform="translate(453.557 214.957)" fill="#e6b42a"/>
          <rect id="Rectángulo_7832" data-name="Rectángulo 7832" width="0.587" height="11.711" transform="translate(454.144 214.957)" fill="#e6b42a"/>
          <path id="Trazado_55684" data-name="Trazado 55684" d="M454.73,226.668v0Z" fill="#e6b42a"/>
        </g>
      </g>
    </g>
    <g id="Grupo_23850" data-name="Grupo 23850" transform="translate(248.39 7764)">
      <g id="Grupo_23849" data-name="Grupo 23849">
        <path id="Trazado_55686" data-name="Trazado 55686" d="M496.169,179.381a5.859,5.859,0,1,1,5.855-5.855A5.859,5.859,0,0,1,496.169,179.381Z" fill="#de7f50"/>
        <g id="Grupo_23848" data-name="Grupo 23848" clip-path="url(#clip-path-4)">
          <path id="Trazado_55687" data-name="Trazado 55687" d="M490.306,167.657v0Z" fill="#de7f50"/>
          <rect id="Rectángulo_7833" data-name="Rectángulo 7833" width="0.587" height="11.725" transform="translate(490.306 167.657)" fill="#de7f50"/>
          <rect id="Rectángulo_7834" data-name="Rectángulo 7834" width="0.587" height="11.725" transform="translate(490.893 167.657)" fill="#de7f50"/>
          <rect id="Rectángulo_7835" data-name="Rectángulo 7835" width="0.587" height="11.725" transform="translate(491.48 167.657)" fill="#de7f50"/>
          <rect id="Rectángulo_7836" data-name="Rectángulo 7836" width="0.587" height="11.725" transform="translate(492.067 167.657)" fill="#de7f50"/>
          <rect id="Rectángulo_7837" data-name="Rectángulo 7837" width="0.587" height="11.725" transform="translate(492.654 167.657)" fill="#de7f50"/>
          <rect id="Rectángulo_7838" data-name="Rectángulo 7838" width="0.587" height="11.725" transform="translate(493.241 167.657)" fill="#de7f50"/>
          <rect id="Rectángulo_7839" data-name="Rectángulo 7839" width="0.587" height="11.725" transform="translate(493.828 167.657)" fill="#de7f50"/>
          <rect id="Rectángulo_7840" data-name="Rectángulo 7840" width="0.573" height="11.725" transform="translate(494.415 167.657)" fill="#de7f50"/>
          <rect id="Rectángulo_7841" data-name="Rectángulo 7841" width="0.601" height="11.725" transform="translate(494.988 167.657)" fill="#de7f50"/>
          <rect id="Rectángulo_7842" data-name="Rectángulo 7842" width="0.573" height="11.725" transform="translate(495.589 167.657)" fill="#de7f50"/>
          <rect id="Rectángulo_7843" data-name="Rectángulo 7843" width="0.587" height="11.725" transform="translate(496.162 167.657)" fill="#de7f50"/>
          <rect id="Rectángulo_7844" data-name="Rectángulo 7844" width="0.587" height="11.725" transform="translate(496.749 167.657)" fill="#de7f50"/>
          <rect id="Rectángulo_7845" data-name="Rectángulo 7845" width="0.587" height="11.725" transform="translate(497.335 167.657)" fill="#de7f50"/>
          <rect id="Rectángulo_7846" data-name="Rectángulo 7846" width="0.587" height="11.725" transform="translate(497.923 167.657)" fill="#de7f50"/>
          <rect id="Rectángulo_7847" data-name="Rectángulo 7847" width="0.587" height="11.725" transform="translate(498.509 167.657)" fill="#de7f50"/>
          <rect id="Rectángulo_7848" data-name="Rectángulo 7848" width="0.587" height="11.725" transform="translate(499.096 167.657)" fill="#de7f50"/>
          <rect id="Rectángulo_7849" data-name="Rectángulo 7849" width="0.587" height="11.725" transform="translate(499.683 167.657)" fill="#de7f50"/>
          <rect id="Rectángulo_7850" data-name="Rectángulo 7850" width="0.587" height="11.725" transform="translate(500.27 167.657)" fill="#de7f50"/>
          <rect id="Rectángulo_7851" data-name="Rectángulo 7851" width="0.587" height="11.725" transform="translate(500.857 167.657)" fill="#de7f50"/>
          <rect id="Rectángulo_7852" data-name="Rectángulo 7852" width="0.587" height="11.725" transform="translate(501.444 167.657)" fill="#de7f50"/>
          <path id="Trazado_55688" data-name="Trazado 55688" d="M502.031,179.381v0Z" fill="#de7f50"/>
        </g>
      </g>
    </g>
    <g id="Grupo_23853" data-name="Grupo 23853" transform="translate(248.39 7764)">
      <g id="Grupo_23852" data-name="Grupo 23852">
        <path id="Trazado_55690" data-name="Trazado 55690" d="M401.58,179.381a5.859,5.859,0,1,1,5.853-5.855A5.862,5.862,0,0,1,401.58,179.381Z" fill="#de7f50"/>
        <g id="Grupo_23851" data-name="Grupo 23851" clip-path="url(#clip-path-5)">
          <path id="Trazado_55691" data-name="Trazado 55691" d="M395.719,167.657v0Z" fill="#de7f50"/>
          <rect id="Rectángulo_7853" data-name="Rectángulo 7853" width="0.587" height="11.725" transform="translate(395.719 167.657)" fill="#de7f50"/>
          <rect id="Rectángulo_7854" data-name="Rectángulo 7854" width="0.587" height="11.725" transform="translate(396.306 167.657)" fill="#de7f50"/>
          <rect id="Rectángulo_7855" data-name="Rectángulo 7855" width="0.587" height="11.725" transform="translate(396.893 167.657)" fill="#de7f50"/>
          <rect id="Rectángulo_7856" data-name="Rectángulo 7856" width="0.587" height="11.725" transform="translate(397.48 167.657)" fill="#de7f50"/>
          <rect id="Rectángulo_7857" data-name="Rectángulo 7857" width="0.572" height="11.725" transform="translate(398.067 167.657)" fill="#de7f50"/>
          <rect id="Rectángulo_7858" data-name="Rectángulo 7858" width="0.601" height="11.725" transform="translate(398.639 167.657)" fill="#de7f50"/>
          <rect id="Rectángulo_7859" data-name="Rectángulo 7859" width="0.572" height="11.725" transform="translate(399.241 167.657)" fill="#de7f50"/>
          <rect id="Rectángulo_7860" data-name="Rectángulo 7860" width="0.587" height="11.725" transform="translate(399.813 167.657)" fill="#de7f50"/>
          <rect id="Rectángulo_7861" data-name="Rectángulo 7861" width="0.587" height="11.725" transform="translate(400.4 167.657)" fill="#de7f50"/>
          <rect id="Rectángulo_7862" data-name="Rectángulo 7862" width="0.587" height="11.725" transform="translate(400.987 167.657)" fill="#de7f50"/>
          <rect id="Rectángulo_7863" data-name="Rectángulo 7863" width="0.587" height="11.725" transform="translate(401.574 167.657)" fill="#de7f50"/>
          <rect id="Rectángulo_7864" data-name="Rectángulo 7864" width="0.587" height="11.725" transform="translate(402.161 167.657)" fill="#de7f50"/>
          <rect id="Rectángulo_7865" data-name="Rectángulo 7865" width="0.587" height="11.725" transform="translate(402.748 167.657)" fill="#de7f50"/>
          <rect id="Rectángulo_7866" data-name="Rectángulo 7866" width="0.587" height="11.725" transform="translate(403.335 167.657)" fill="#de7f50"/>
          <rect id="Rectángulo_7867" data-name="Rectángulo 7867" width="0.587" height="11.725" transform="translate(403.922 167.657)" fill="#de7f50"/>
          <rect id="Rectángulo_7868" data-name="Rectángulo 7868" width="0.587" height="11.725" transform="translate(404.509 167.657)" fill="#de7f50"/>
          <rect id="Rectángulo_7869" data-name="Rectángulo 7869" width="0.587" height="11.725" transform="translate(405.096 167.657)" fill="#de7f50"/>
          <rect id="Rectángulo_7870" data-name="Rectángulo 7870" width="0.572" height="11.725" transform="translate(405.683 167.657)" fill="#de7f50"/>
          <rect id="Rectángulo_7871" data-name="Rectángulo 7871" width="0.587" height="11.725" transform="translate(406.255 167.657)" fill="#de7f50"/>
          <rect id="Rectángulo_7872" data-name="Rectángulo 7872" width="0.587" height="11.725" transform="translate(406.843 167.657)" fill="#de7f50"/>
          <path id="Trazado_55692" data-name="Trazado 55692" d="M407.43,179.381v0Z" fill="#de7f50"/>
        </g>
      </g>
    </g>
    <g id="Grupo_23854" data-name="Grupo 23854" transform="translate(248.39 7764)">
      <path id="Trazado_55694" data-name="Trazado 55694" d="M448.87,181.894a8.373,8.373,0,1,1,8.375-8.368A8.376,8.376,0,0,1,448.87,181.894Zm0-12.8a4.429,4.429,0,1,0,4.434,4.434A4.434,4.434,0,0,0,448.87,169.092Z"/>
    </g>
    <g id="Grupo_23855" data-name="Grupo 23855" transform="translate(248.39 7764)">
      <path id="Trazado_55695" data-name="Trazado 55695" d="M444.2,171.139a1.959,1.959,0,0,1-1.372-.559l-18.361-17.838a1.97,1.97,0,1,1,2.745-2.827l18.361,17.838a1.971,1.971,0,0,1-1.373,3.386Z"/>
    </g>
    <g id="Grupo_23856" data-name="Grupo 23856" transform="translate(248.39 7764)">
      <path id="Trazado_55696" data-name="Trazado 55696" d="M453.549,171.139a1.973,1.973,0,0,1-1.388-3.371l24.371-24.2a1.972,1.972,0,0,1,2.778,2.8l-24.372,24.2A1.973,1.973,0,0,1,453.549,171.139Z"/>
    </g>
    <g id="Grupo_23857" data-name="Grupo 23857" transform="translate(248.39 7764)">
      <path id="Trazado_55697" data-name="Trazado 55697" d="M537.256,137.95H510.247a1.972,1.972,0,0,1,0-3.944h27.009a1.972,1.972,0,0,1,0,3.944Z"/>
    </g>
    <g id="Grupo_23858" data-name="Grupo 23858" transform="translate(248.39 7764)">
      <path id="Trazado_55698" data-name="Trazado 55698" d="M404.917,237.036h-27a1.971,1.971,0,0,1,0-3.943h27a1.971,1.971,0,0,1,0,3.943Z"/>
    </g>
    <g id="Grupo_23859" data-name="Grupo 23859" transform="translate(248.39 7764)">
      <path id="Trazado_55699" data-name="Trazado 55699" d="M399.08,113.86h-6.722a1.972,1.972,0,0,1,0-3.944h6.722a1.972,1.972,0,0,1,0,3.944Z"/>
    </g>
    <g id="Grupo_23860" data-name="Grupo 23860" transform="translate(248.39 7764)">
      <path id="Trazado_55700" data-name="Trazado 55700" d="M370.322,181.894H363.6a1.972,1.972,0,0,1,0-3.944h6.723a1.972,1.972,0,0,1,0,3.944Z"/>
    </g>
    <g id="Grupo_23861" data-name="Grupo 23861" transform="translate(248.39 7764)">
      <path id="Trazado_55701" data-name="Trazado 55701" d="M527.115,208.934H520.39a1.972,1.972,0,0,1,0-3.944h6.725a1.972,1.972,0,0,1,0,3.944Z"/>
    </g>
    <g id="Grupo_23862" data-name="Grupo 23862" transform="translate(248.39 7764)">
      <path id="Trazado_55702" data-name="Trazado 55702" d="M452.237,249.774h-6.726a1.972,1.972,0,0,1,0-3.944h6.726a1.972,1.972,0,0,1,0,3.944Z"/>
    </g>
    <g id="Grupo_23863" data-name="Grupo 23863" transform="translate(248.39 7764)">
      <path id="Trazado_55703" data-name="Trazado 55703" d="M526.5,162.227a1.972,1.972,0,0,1,0-3.944l17.74-.007h0a1.972,1.972,0,0,1,0,3.944l-17.74.007Z"/>
    </g>
    <g id="Grupo_23864" data-name="Grupo 23864" transform="translate(248.39 7764)">
      <path id="Trazado_55704" data-name="Trazado 55704" d="M510.891,237.036H493.153a1.971,1.971,0,0,1,0-3.943h17.738a1.971,1.971,0,0,1,0,3.943Z"/>
    </g>
    <g id="Grupo_23865" data-name="Grupo 23865" transform="translate(248.39 7764)">
      <path id="Trazado_55705" data-name="Trazado 55705" d="M418.666,99.257a1.972,1.972,0,0,1,0-3.944l17.741-.007h0a1.972,1.972,0,0,1,0,3.944l-17.741.007Z"/>
    </g>
    <g id="Grupo_23867" data-name="Grupo 23867" transform="translate(248.39 7764)">
      <g id="Grupo_23866" data-name="Grupo 23866">
        <path id="Trazado_55706" data-name="Trazado 55706" d="M402.812,316.712l-.178-3.128-6.3-2.228-2.106,2.323-2.56-.9,10.212-10.894,2.561.9,1.022,14.866Zm-4.845-7.161,4.531,1.6-.332-6.209Z" fill="#fff"/>
        <path id="Trazado_55707" data-name="Trazado 55707" d="M419.222,310.234l-2.49,10.151-2.486-.61.46-1.879A3.75,3.75,0,0,1,410.694,319a3.631,3.631,0,0,1-2.438-1.7,4.091,4.091,0,0,1-.289-3.088l1.559-6.355,2.486.609L410.63,314.1a2.385,2.385,0,0,0,.169,1.811,2.169,2.169,0,0,0,1.454,1,2.415,2.415,0,0,0,2.064-.38,3.2,3.2,0,0,0,1.191-1.9l1.228-5.008Z" fill="#fff"/>
        <path id="Trazado_55708" data-name="Trazado 55708" d="M426.643,321.414a4.968,4.968,0,0,1-2.707.329,3.138,3.138,0,0,1-2.051-1.138,3.021,3.021,0,0,1-.471-2.442l.834-5.09-1.446-.236.28-1.835,1.465.24.464-2.834,2.487.406-.464,2.834,2.95.483-.3,1.832-2.95-.483-.76,4.646a1.521,1.521,0,0,0,.1,1.057,1.049,1.049,0,0,0,.761.431,3.623,3.623,0,0,0,1.534-.184Z" fill="#fff"/>
        <path id="Trazado_55709" data-name="Trazado 55709" d="M437.343,313.22a4.809,4.809,0,0,1,1.764,2.027,5.414,5.414,0,0,1,.451,2.814,5.516,5.516,0,0,1-.933,2.723,4.789,4.789,0,0,1-2.089,1.7,5.981,5.981,0,0,1-2.91.413,6.078,6.078,0,0,1-2.822-.913,4.768,4.768,0,0,1-1.773-2.037,5.513,5.513,0,0,1-.448-2.844,5.418,5.418,0,0,1,.931-2.693,4.79,4.79,0,0,1,2.1-1.69,6.08,6.08,0,0,1,2.938-.41A5.967,5.967,0,0,1,437.343,313.22Zm-5.2,1.939a3.593,3.593,0,0,0-.4,4.554,2.808,2.808,0,0,0,2.064,1.063,2.753,2.753,0,0,0,2.179-.693,3.6,3.6,0,0,0,.4-4.554,2.754,2.754,0,0,0-2.025-1.058A2.8,2.8,0,0,0,432.144,315.159Z" fill="#fff"/>
        <path id="Trazado_55710" data-name="Trazado 55710" d="M451.045,313.809a4.09,4.09,0,0,1,1.083,2.924l.105,6.523-2.559.042-.093-5.782a2.355,2.355,0,0,0-.654-1.718,2.275,2.275,0,0,0-1.709-.607,2.567,2.567,0,0,0-1.988.892,3.144,3.144,0,0,0-.7,2.16l.083,5.137-2.54.04-.169-10.449,2.539-.041.032,1.953a3.954,3.954,0,0,1,3.716-2.111A3.729,3.729,0,0,1,451.045,313.809Z" fill="#fff"/>
        <path id="Trazado_55711" data-name="Trazado 55711" d="M462.354,312.539a4.806,4.806,0,0,1,2.108,1.666,5.43,5.43,0,0,1,.964,2.683,5.537,5.537,0,0,1-.415,2.848,4.787,4.787,0,0,1-1.74,2.057,5.957,5.957,0,0,1-2.782.943,6.061,6.061,0,0,1-2.942-.376,4.758,4.758,0,0,1-2.12-1.674,5.54,5.54,0,0,1-.966-2.711,5.451,5.451,0,0,1,.417-2.82,4.8,4.8,0,0,1,1.751-2.048,6.056,6.056,0,0,1,2.811-.946A5.969,5.969,0,0,1,462.354,312.539ZM457.6,315.4a3.59,3.59,0,0,0,.451,4.549,2.8,2.8,0,0,0,2.226.663,2.755,2.755,0,0,0,2.012-1.082,3.6,3.6,0,0,0-.452-4.549,2.747,2.747,0,0,0-2.185-.667A2.8,2.8,0,0,0,457.6,315.4Z" fill="#fff"/>
        <path id="Trazado_55712" data-name="Trazado 55712" d="M483.2,308.925a4.131,4.131,0,0,1,1.634,2.647l1.427,6.367-2.5.559-1.265-5.642a2.409,2.409,0,0,0-.982-1.571,2.22,2.22,0,0,0-1.769-.254,2.5,2.5,0,0,0-1.686,1.278,3.177,3.177,0,0,0-.23,2.233l1.128,5.033-2.5.559-1.264-5.642a2.431,2.431,0,0,0-.973-1.574,2.187,2.187,0,0,0-1.759-.256,2.53,2.53,0,0,0-1.7,1.283,3.166,3.166,0,0,0-.23,2.233l1.126,5.033-2.477.556-2.286-10.2,2.479-.554.423,1.887a4.34,4.34,0,0,1,5.522-2.649,3.431,3.431,0,0,1,1.672,1.518,3.868,3.868,0,0,1,3.246-3.291A3.643,3.643,0,0,1,483.2,308.925Z" fill="#fff"/>
        <path id="Trazado_55713" data-name="Trazado 55713" d="M486.987,301.865l2.63.183-1.746,2.693-1.935.432Zm-.537,4.8,2.412-.794,3.269,9.926-2.412.8Z" fill="#fff"/>
        <path id="Trazado_55714" data-name="Trazado 55714" d="M501.379,312.309l-.473-1.178a3.438,3.438,0,0,1-.918,1.486,5.215,5.215,0,0,1-1.7,1.063,4.193,4.193,0,0,1-1.943.329,3.073,3.073,0,0,1-1.62-.6,3.144,3.144,0,0,1-1.037-1.373,2.778,2.778,0,0,1,.1-2.516,4.672,4.672,0,0,1,2.4-1.884l2.825-1.137-.1-.254a1.76,1.76,0,0,0-1.1-1.1,2.671,2.671,0,0,0-1.82.186,6.045,6.045,0,0,0-2.517,2.066l-1.509-1.287a11.63,11.63,0,0,1,1.707-1.751,8.235,8.235,0,0,1,2.071-1.161,4.655,4.655,0,0,1,3.291-.272,3.484,3.484,0,0,1,2.081,2.109l2.573,6.335Zm-1.712-1.848a1.8,1.8,0,0,0,.337-1.516l-.35-.869-2.447.985a2.86,2.86,0,0,0-1.273.84,1.074,1.074,0,0,0-.075,1.093,1.269,1.269,0,0,0,.856.793,2.15,2.15,0,0,0,1.406-.144A3.329,3.329,0,0,0,499.667,310.461Z" fill="#fff"/>
      </g>
    </g>
  </g>
</svg>
